<svg width="50" height="278" fill="none" xmlns="http://www.w3.org/2000/svg"><path d="M.226 276.462l49.736.565v-48.614l-7.003-7.123H7.003l-6.74 6.746v48.426H.227zm13.516-13.492v-28.226H36.22v28.226H13.743zm4.48-59.656h-4.48v-33.616H.264v47.07L50 216.692v-47.107l-13.78.076v33.615h-4.48v-33.615H18.26l-.037 33.653zM.039 165.402h49.924v-13.906l-11.52.226v-28.226l11.52.113v-13.303H.038v55.096zm13.704-41.906H25v28.226H13.742v-28.226zm36.22-63.915l-13.78.113v32.41H.226v13.453h49.736V59.581zM13.968 13.567V.227L6.965 0 0 .226v55.059h31.928l-.264-41.831 4.33.075v41.718h13.968V.188h-31.89l.189 41.492-4.255.264-.038-28.377z" fill="#fff"/></svg>