<svg class="line-dash__cont anim" width="1904" height="408" fill="none" xmlns="http://www.w3.org/2000/svg"><path class="stroke" d="M472.52 404.96H471V408h1.52v-3.04z" fill="#6E7797"/><path class="stroke" d="M1893.18 321.352h-7.6v-1.52h7.6v1.52zm-15.2 0h-7.6v-1.52h7.6v1.52zm-15.2 0h-7.6v-1.52h7.6v1.52zm-15.2 0h-7.6v-1.52h7.6v1.52zm-15.2 0h-7.6v-1.52h7.6v1.52zm-15.2 0h-7.6v-1.52h7.6v1.52zm-15.2 0h-7.6v-1.52h7.6v1.52zm-15.21 0h-7.6v-1.52h7.6v1.52zm-15.2 0h-7.6v-1.52h7.6v1.52zm-15.2 0h-7.6v-1.52h7.6v1.52zm-15.2 0h-7.6v-1.52h7.6v1.52zm-15.2 0h-7.6v-1.52h7.6v1.52zm-15.2 0h-7.6v-1.52h7.6v1.52zm-15.2 0h-7.6v-1.52h7.6v1.52zm-15.21 0h-7.6v-1.52h7.6v1.52zm-15.2 0h-7.6v-1.52h7.6v1.52zm-15.2 0h-7.6v-1.52h7.6v1.52zm-15.2 0h-7.6v-1.52h7.6v1.52zm-15.2 0h-7.6v-1.52h7.6v1.52zm-15.2 0h-7.6v-1.52h7.6v1.52zm-15.2 0h-7.6v-1.52h7.6v1.52zm-15.21 0h-7.6v-1.52h7.6v1.52zm-15.2 0h-7.6v-1.52h7.6v1.52zm-15.2 0h-7.6v-1.52h7.6v1.52zm-15.2 0h-7.6v-1.52h7.6v1.52zm-15.2 0h-7.6v-1.52h7.6v1.52zm-15.2 0h-7.6v-1.52h7.6v1.52zm-15.2 0h-7.6v-1.52h7.6v1.52zm-15.21 0h-7.6v-1.52h7.6v1.52zm-15.2 0h-7.6v-1.52h7.6v1.52zm-15.2 0h-7.6v-1.52h7.6v1.52zm-15.2 0h-7.6v-1.52h7.6v1.52zm-15.2 0h-7.6v-1.52h7.6v1.52zm-15.2 0h-7.6v-1.52h7.6v1.52zm-15.2 0h-7.6v-1.52h7.6v1.52zm-15.21 0h-7.6v-1.52h7.6v1.52zm-15.2 0h-7.6v-1.52h7.6v1.52zm-15.2 0h-7.6v-1.52h7.6v1.52zm-15.2 0h-7.6v-1.52h7.6v1.52zm-15.2 0h-7.6v-1.52h7.6v1.52zm-15.2 0h-7.6v-1.52h7.6v1.52zm-15.2 0h-7.6v-1.52h7.6v1.52zm-15.21 0h-7.6v-1.52h7.6v1.52zm-15.2 0h-7.6v-1.52h7.6v1.52zm-15.2 0h-7.6v-1.52h7.6v1.52zm-15.2 0h-7.6v-1.52h7.6v1.52zm-15.2 0h-7.6v-1.52h7.6v1.52zm-15.2 0h-7.6v-1.52h7.6v1.52zm-15.2 0h-7.6v-1.52h7.6v1.52zm-15.21 0h-7.6v-1.52h7.6v1.52zm-15.2 0h-7.6v-1.52h7.6v1.52zm-15.2 0h-7.6v-1.52h7.6v1.52zm-15.2 0h-7.6v-1.52h7.6v1.52zm-15.2 0h-7.6v-1.52h7.6v1.52zm-15.2 0h-7.6v-1.52h7.6v1.52zm-15.2 0h-7.6v-1.52h7.6v1.52zm-15.21 0h-7.6v-1.52h7.6v1.52zm-15.2 0h-7.6v-1.52h7.6v1.52zm-15.2 0h-7.6v-1.52h7.6v1.52zm-15.199 0H988.7v-1.52h7.601v1.52zm-15.202 0h-7.601v-1.52h7.601v1.52zm-15.201 0h-7.601v-1.52h7.601v1.52zm-15.202 0h-7.6v-1.52h7.6v1.52zm-15.201 0h-7.601v-1.52h7.601v1.52zm-15.202 0h-7.6v-1.52h7.6v1.52zm-15.201 0h-7.601v-1.52h7.601v1.52zm-15.201 0h-7.601v-1.52h7.601v1.52zm-15.202 0h-7.6v-1.52h7.6v1.52zm-15.201 0h-7.601v-1.52h7.601v1.52zm-15.202 0h-7.6v-1.52h7.6v1.52zm-15.201 0h-7.601v-1.52h7.601v1.52zm-15.201 0h-7.601v-1.52h7.601v1.52zm-15.202 0h-7.601v-1.52h7.601v1.52zm-15.201 0h-7.601v-1.52h7.601v1.52zm-15.202 0h-7.6v-1.52h7.6v1.52zm-15.201 0h-7.601v-1.52h7.601v1.52zm-15.202 0h-7.6v-1.52h7.6v1.52zm-15.201 0h-7.601v-1.52h7.601v1.52zm-15.201 0h-7.601v-1.52h7.601v1.52zm-15.202 0h-7.6v-1.52h7.6v1.52zm-15.201 0h-7.601v-1.52h7.601v1.52zm-15.202 0h-7.6v-1.52h7.6v1.52zm-15.201 0h-7.601v-1.52h7.601v1.52zm-15.201 0h-7.601v-1.52h7.601v1.52zm-15.202 0h-7.601v-1.52h7.601v1.52zm-15.201 0h-7.601v-1.52h7.601v1.52zm-15.202 0h-7.6v-1.52h7.6v1.52zm-15.201 0h-7.601v-1.52h7.601v1.52zm-15.202 0h-7.6v-1.52h7.6v1.52zm-15.201 0h-7.601v-1.52h7.601v1.52zm-15.201 0h-7.601v-1.52h7.601v1.52zm-15.202 0h-7.6v-1.52h7.6v1.52zm-15.201 0h-7.601v-1.52h7.601v1.52zm-15.202 0h-7.6v-1.52h7.6v1.52zm-15.201 0h-7.601v-1.52h7.601v1.52zm-15.201 0h-7.601v-1.52h7.601v1.52zm-15.202 0h-7.601v-1.52h7.601v1.52zm-15.201 0h-7.601v-1.52h7.601v1.52zm-15.202 0h-7.6v-1.52h7.6v1.52zm-15.201 0h-7.601v-1.52h7.601v1.52zm-15.202 0h-7.6v-1.52h7.6v1.52zm-15.201 0h-7.601v-1.52h7.601v1.52zm-15.201 0h-7.601v-1.52h7.601v1.52zm-15.202 0h-7.601v-1.52h7.601v1.52zm-15.201 0h-7.601v-1.52h7.601v1.52zm-15.202 0h-7.6v-1.52h7.6v1.52zm-15.201 0h-7.601v-1.52h7.601v1.52zm-15.201 0h-7.601v-1.52h7.601v1.52zm-15.202 0h-7.601v-1.52h7.601v1.52zm-15.201 0h-7.601v-1.52h7.601v1.52zm-15.202 0h-7.6v-1.52h7.6v1.52zm-15.201 0h-7.601v-1.52h7.601v1.52zm-15.202 0h-7.6v-1.52h7.6v1.52zm-15.201 0h-7.601v-1.52h7.601v1.52zm-15.201 0h-7.601v-1.52h7.601v1.52zm-15.202 0h-7.6v-1.52h7.6v1.52zm-15.201 0h-7.601v-1.52h7.601v1.52zm-15.202 0h-7.6v-1.52h7.6v1.52zm-15.201 0h-7.6v-1.52h7.6v1.52zm-15.201 0h-7.601v-1.52h7.6v1.52zm-15.202 0h-7.6v-1.52h7.6v1.52zm-15.201 0h-7.601v-1.52h7.6v1.52zm-15.202 0h-7.6v-1.52h7.6v1.52zm-15.201 0h-7.6v-1.52h7.6v1.52zm-15.202 0H2v-1.52h6.208v1.52z" fill="#32395E"/><path class="stroke" d="M1803 408h-1v-2.108h1V408zm0-4.216h-1v-2.108h1v2.108zm0-4.216h-1v-2.109h1v2.109zm0-4.217h-1v-2.108h1v2.108zm0-4.216h-1v-2.108h1v2.108zm0-4.216h-1v-2.108h1v2.108zm0-4.216h-1v-2.108h1v2.108zm0-4.217h-1v-2.108h1v2.108zm0-4.216h-1v-2.108h1v2.108zm0-4.216h-1v-2.108h1v2.108zm0-4.216h-1v-2.108h1v2.108zm0-4.216h-1v-2.108h1v2.108zm0-4.217h-1v-2.108h1v2.108zm0-4.216h-1v-2.108h1v2.108zm0-4.216h-1v-2.108h1v2.108zm0-4.216h-1v-2.108h1v2.108zm0-4.216h-1v-2.109h1v2.109zm0-4.217h-1v-2.108h1v2.108zm0-4.216h-1V330h1v2.108zm0-4.216h-1v-2.108h1v2.108zm0-4.216h-1v-2.108h1v2.108zm0-4.217h-1v-2.108h1v2.108zm0-4.216h-1v-2.108h1v2.108zm0-4.216h-1v-2.108h1v2.108zm0-4.216h-1v-2.108h1v2.108zm0-4.216h-1v-2.109h1v2.109zm0-4.217h-1v-2.108h1v2.108zm0-4.216h-1v-2.108h1v2.108zm0-4.216h-1v-2.108h1v2.108zm0-4.216h-1v-2.108h1v2.108zm0-4.216h-1v-2.109h1v2.109zm0-4.217h-1v-2.108h1v2.108zm0-4.216h-1v-2.108h1v2.108zm0-4.216h-1v-2.108h1v2.108zm0-4.216h-1v-2.108h1v2.108zm0-4.217h-1v-2.108h1v2.108zm0-4.216h-1v-2.108h1v2.108zm0-4.216h-1v-2.108h1V252zm0-4.216h-1v-2.108h1v2.108zm0-4.216h-1v-2.109h1v2.109zm0-4.217h-1v-2.108h1v2.108zm0-4.216h-1v-2.108h1v2.108zm0-4.216h-1v-2.108h1v2.108zm0-4.216h-1v-2.108h1v2.108zm0-4.217h-1v-2.108h1v2.108zm0-4.216h-1v-2.108h1v2.108zm0-4.216h-1v-2.108h1v2.108zm0-4.216h-1v-2.108h1v2.108zm0-4.216h-1v-2.108h1v2.108zm0-4.217h-1v-2.108h1v2.108zm0-4.216h-1v-2.108h1v2.108zm0-4.216h-1v-2.108h1v2.108zm0-4.216h-1v-2.108h1v2.108zm0-4.216h-1v-2.109h1v2.109zm0-4.217h-1v-2.108h1v2.108zm0-4.216h-1V174h1v2.108zm0-4.216h-1v-2.108h1v2.108zm0-4.216h-1v-2.108h1v2.108zm0-4.217h-1v-2.108h1v2.108zm0-4.216h-1v-2.108h1v2.108zm0-4.216h-1v-2.108h1v2.108zm0-4.216h-1v-2.108h1v2.108zm0-4.216h-1v-2.109h1v2.109zm0-4.217h-1v-2.108h1v2.108zm0-4.216h-1v-2.108h1v2.108zm0-4.216h-1v-2.108h1v2.108zm0-4.216h-1v-2.108h1v2.108zm0-4.216h-1v-2.109h1v2.109zm0-4.217h-1v-2.108h1v2.108zm0-4.216h-1v-2.108h1v2.108zm0-4.216h-1v-2.108h1v2.108zm0-4.216h-1v-2.108h1v2.108zm0-4.217h-1v-2.108h1v2.108zm0-4.216h-1v-2.108h1v2.108zm0-4.216h-1v-2.108h1V96zm0-4.216h-1v-2.108h1v2.108zm0-4.216h-1V85.46h1v2.108zm0-4.217h-1v-2.108h1v2.108zm0-4.216h-1v-2.108h1v2.108zm0-4.216h-1V72.81h1v2.108zm0-4.216h-1v-2.108h1v2.108zm0-4.216h-1v-2.109h1v2.109zm0-4.217h-1v-2.108h1v2.108zm0-4.216h-1v-2.108h1v2.108zm0-4.216h-1V51.73h1v2.108zm0-4.216h-1v-2.108h1v2.108zm0-4.217h-1v-2.108h1v2.108zm0-4.216h-1v-2.108h1v2.108zm0-4.216h-1v-2.108h1v2.108zm0-4.216h-1v-2.108h1v2.108zm0-4.216h-1v-2.109h1v2.109zm0-4.217h-1v-2.108h1v2.108zm0-4.216h-1V18h1v2.108zM103 408h-1v-2.108h1V408zm0-4.216h-1v-2.108h1v2.108zm0-4.216h-1v-2.109h1v2.109zm0-4.217h-1v-2.108h1v2.108zm0-4.216h-1v-2.108h1v2.108zm0-4.216h-1v-2.108h1v2.108zm0-4.216h-1v-2.108h1v2.108zm0-4.217h-1v-2.108h1v2.108zm0-4.216h-1v-2.108h1v2.108zm0-4.216h-1v-2.108h1v2.108zm0-4.216h-1v-2.108h1v2.108zm0-4.216h-1v-2.108h1v2.108zm0-4.217h-1v-2.108h1v2.108zm0-4.216h-1v-2.108h1v2.108zm0-4.216h-1v-2.108h1v2.108zm0-4.216h-1v-2.108h1v2.108zm0-4.216h-1v-2.109h1v2.109zm0-4.217h-1v-2.108h1v2.108zm0-4.216h-1V330h1v2.108zm0-4.216h-1v-2.108h1v2.108zm0-4.216h-1v-2.108h1v2.108zm0-4.217h-1v-2.108h1v2.108zm0-4.216h-1v-2.108h1v2.108zm0-4.216h-1v-2.108h1v2.108zm0-4.216h-1v-2.108h1v2.108zm0-4.216h-1v-2.109h1v2.109zm0-4.217h-1v-2.108h1v2.108zm0-4.216h-1v-2.108h1v2.108zm0-4.216h-1v-2.108h1v2.108zm0-4.216h-1v-2.108h1v2.108zm0-4.216h-1v-2.109h1v2.109zm0-4.217h-1v-2.108h1v2.108zm0-4.216h-1v-2.108h1v2.108zm0-4.216h-1v-2.108h1v2.108zm0-4.216h-1v-2.108h1v2.108zm0-4.217h-1v-2.108h1v2.108zm0-4.216h-1v-2.108h1v2.108zm0-4.216h-1v-2.108h1V252zm0-4.216h-1v-2.108h1v2.108zm0-4.216h-1v-2.109h1v2.109zm0-4.217h-1v-2.108h1v2.108zm0-4.216h-1v-2.108h1v2.108zm0-4.216h-1v-2.108h1v2.108zm0-4.216h-1v-2.108h1v2.108zm0-4.217h-1v-2.108h1v2.108zm0-4.216h-1v-2.108h1v2.108zm0-4.216h-1v-2.108h1v2.108zm0-4.216h-1v-2.108h1v2.108zm0-4.216h-1v-2.108h1v2.108zm0-4.217h-1v-2.108h1v2.108zm0-4.216h-1v-2.108h1v2.108zm0-4.216h-1v-2.108h1v2.108zm0-4.216h-1v-2.108h1v2.108zm0-4.216h-1v-2.109h1v2.109zm0-4.217h-1v-2.108h1v2.108zm0-4.216h-1V174h1v2.108zm0-4.216h-1v-2.108h1v2.108zm0-4.216h-1v-2.108h1v2.108zm0-4.217h-1v-2.108h1v2.108zm0-4.216h-1v-2.108h1v2.108zm0-4.216h-1v-2.108h1v2.108zm0-4.216h-1v-2.108h1v2.108zm0-4.216h-1v-2.109h1v2.109zm0-4.217h-1v-2.108h1v2.108zm0-4.216h-1v-2.108h1v2.108zm0-4.216h-1v-2.108h1v2.108zm0-4.216h-1v-2.108h1v2.108zm0-4.216h-1v-2.109h1v2.109zm0-4.217h-1v-2.108h1v2.108zm0-4.216h-1v-2.108h1v2.108zm0-4.216h-1v-2.108h1v2.108zm0-4.216h-1v-2.108h1v2.108zm0-4.217h-1v-2.108h1v2.108zm0-4.216h-1v-2.108h1v2.108zM103 96h-1v-2.108h1V96zm0-4.216h-1v-2.108h1v2.108zm0-4.216h-1V85.46h1v2.108zm0-4.217h-1v-2.108h1v2.108zm0-4.216h-1v-2.108h1v2.108zm0-4.216h-1V72.81h1v2.108zm0-4.216h-1v-2.108h1v2.108zm0-4.216h-1v-2.109h1v2.109zm0-4.217h-1v-2.108h1v2.108zm0-4.216h-1v-2.108h1v2.108zm0-4.216h-1V51.73h1v2.108zm0-4.216h-1v-2.108h1v2.108zm0-4.217h-1v-2.108h1v2.108zm0-4.216h-1v-2.108h1v2.108zm0-4.216h-1v-2.108h1v2.108zm0-4.216h-1v-2.108h1v2.108zm0-4.216h-1v-2.109h1v2.109zm0-4.217h-1v-2.108h1v2.108zm0-4.216h-1V18h1v2.108zM361 408h-1v-2.108h1V408zm0-4.216h-1v-2.108h1v2.108zm0-4.216h-1v-2.109h1v2.109zm0-4.217h-1v-2.108h1v2.108zm0-4.216h-1v-2.108h1v2.108zm0-4.216h-1v-2.108h1v2.108zm0-4.216h-1v-2.108h1v2.108zm0-4.217h-1v-2.108h1v2.108zm0-4.216h-1v-2.108h1v2.108zm0-4.216h-1v-2.108h1v2.108zm0-4.216h-1v-2.108h1v2.108zm0-4.216h-1v-2.108h1v2.108zm0-4.217h-1v-2.108h1v2.108zm0-4.216h-1v-2.108h1v2.108zm0-4.216h-1v-2.108h1v2.108zm0-4.216h-1v-2.108h1v2.108zm0-4.216h-1v-2.109h1v2.109zm0-4.217h-1v-2.108h1v2.108zm0-4.216h-1V330h1v2.108zm0-4.216h-1v-2.108h1v2.108zm0-4.216h-1v-2.108h1v2.108zm0-4.217h-1v-2.108h1v2.108zm0-4.216h-1v-2.108h1v2.108zm0-4.216h-1v-2.108h1v2.108zm0-4.216h-1v-2.108h1v2.108zm0-4.216h-1v-2.109h1v2.109zm0-4.217h-1v-2.108h1v2.108zm0-4.216h-1v-2.108h1v2.108zm0-4.216h-1v-2.108h1v2.108zm0-4.216h-1v-2.108h1v2.108zm0-4.216h-1v-2.109h1v2.109zm0-4.217h-1v-2.108h1v2.108zm0-4.216h-1v-2.108h1v2.108zm0-4.216h-1v-2.108h1v2.108zm0-4.216h-1v-2.108h1v2.108zm0-4.217h-1v-2.108h1v2.108zm0-4.216h-1v-2.108h1v2.108zm0-4.216h-1v-2.108h1V252zm0-4.216h-1v-2.108h1v2.108zm0-4.216h-1v-2.109h1v2.109zm0-4.217h-1v-2.108h1v2.108zm0-4.216h-1v-2.108h1v2.108zm0-4.216h-1v-2.108h1v2.108zm0-4.216h-1v-2.108h1v2.108zm0-4.217h-1v-2.108h1v2.108zm0-4.216h-1v-2.108h1v2.108zm0-4.216h-1v-2.108h1v2.108zm0-4.216h-1v-2.108h1v2.108zm0-4.216h-1v-2.108h1v2.108zm0-4.217h-1v-2.108h1v2.108zm0-4.216h-1v-2.108h1v2.108zm0-4.216h-1v-2.108h1v2.108zm0-4.216h-1v-2.108h1v2.108zm0-4.216h-1v-2.109h1v2.109zm0-4.217h-1v-2.108h1v2.108zm0-4.216h-1V174h1v2.108zm0-4.216h-1v-2.108h1v2.108zm0-4.216h-1v-2.108h1v2.108zm0-4.217h-1v-2.108h1v2.108zm0-4.216h-1v-2.108h1v2.108zm0-4.216h-1v-2.108h1v2.108zm0-4.216h-1v-2.108h1v2.108zm0-4.216h-1v-2.109h1v2.109zm0-4.217h-1v-2.108h1v2.108zm0-4.216h-1v-2.108h1v2.108zm0-4.216h-1v-2.108h1v2.108zm0-4.216h-1v-2.108h1v2.108zm0-4.216h-1v-2.109h1v2.109zm0-4.217h-1v-2.108h1v2.108zm0-4.216h-1v-2.108h1v2.108zm0-4.216h-1v-2.108h1v2.108zm0-4.216h-1v-2.108h1v2.108zm0-4.217h-1v-2.108h1v2.108zm0-4.216h-1v-2.108h1v2.108zM361 96h-1v-2.108h1V96zm0-4.216h-1v-2.108h1v2.108zm0-4.216h-1V85.46h1v2.108zm0-4.217h-1v-2.108h1v2.108zm0-4.216h-1v-2.108h1v2.108zm0-4.216h-1V72.81h1v2.108zm0-4.216h-1v-2.108h1v2.108zm0-4.216h-1v-2.109h1v2.109zm0-4.217h-1v-2.108h1v2.108zm0-4.216h-1v-2.108h1v2.108zm0-4.216h-1V51.73h1v2.108zm0-4.216h-1v-2.108h1v2.108zm0-4.217h-1v-2.108h1v2.108zm0-4.216h-1v-2.108h1v2.108zm0-4.216h-1v-2.108h1v2.108zm0-4.216h-1v-2.108h1v2.108zm0-4.216h-1v-2.109h1v2.109zm0-4.217h-1v-2.108h1v2.108zm0-4.216h-1V18h1v2.108zM740 408h-1v-2.108h1V408zm0-4.216h-1v-2.108h1v2.108zm0-4.216h-1v-2.109h1v2.109zm0-4.217h-1v-2.108h1v2.108zm0-4.216h-1v-2.108h1v2.108zm0-4.216h-1v-2.108h1v2.108zm0-4.216h-1v-2.108h1v2.108zm0-4.217h-1v-2.108h1v2.108zm0-4.216h-1v-2.108h1v2.108zm0-4.216h-1v-2.108h1v2.108zm0-4.216h-1v-2.108h1v2.108zm0-4.216h-1v-2.108h1v2.108zm0-4.217h-1v-2.108h1v2.108zm0-4.216h-1v-2.108h1v2.108zm0-4.216h-1v-2.108h1v2.108zm0-4.216h-1v-2.108h1v2.108zm0-4.216h-1v-2.109h1v2.109zm0-4.217h-1v-2.108h1v2.108zm0-4.216h-1V330h1v2.108zm0-4.216h-1v-2.108h1v2.108zm0-4.216h-1v-2.108h1v2.108zm0-4.217h-1v-2.108h1v2.108zm0-4.216h-1v-2.108h1v2.108zm0-4.216h-1v-2.108h1v2.108zm0-4.216h-1v-2.108h1v2.108zm0-4.216h-1v-2.109h1v2.109zm0-4.217h-1v-2.108h1v2.108zm0-4.216h-1v-2.108h1v2.108zm0-4.216h-1v-2.108h1v2.108zm0-4.216h-1v-2.108h1v2.108zm0-4.216h-1v-2.109h1v2.109zm0-4.217h-1v-2.108h1v2.108zm0-4.216h-1v-2.108h1v2.108zm0-4.216h-1v-2.108h1v2.108zm0-4.216h-1v-2.108h1v2.108zm0-4.217h-1v-2.108h1v2.108zm0-4.216h-1v-2.108h1v2.108zm0-4.216h-1v-2.108h1V252zm0-4.216h-1v-2.108h1v2.108zm0-4.216h-1v-2.109h1v2.109zm0-4.217h-1v-2.108h1v2.108zm0-4.216h-1v-2.108h1v2.108zm0-4.216h-1v-2.108h1v2.108zm0-4.216h-1v-2.108h1v2.108zm0-4.217h-1v-2.108h1v2.108zm0-4.216h-1v-2.108h1v2.108zm0-4.216h-1v-2.108h1v2.108zm0-4.216h-1v-2.108h1v2.108zm0-4.216h-1v-2.108h1v2.108zm0-4.217h-1v-2.108h1v2.108zm0-4.216h-1v-2.108h1v2.108zm0-4.216h-1v-2.108h1v2.108zm0-4.216h-1v-2.108h1v2.108zm0-4.216h-1v-2.109h1v2.109zm0-4.217h-1v-2.108h1v2.108zm0-4.216h-1V174h1v2.108zm0-4.216h-1v-2.108h1v2.108zm0-4.216h-1v-2.108h1v2.108zm0-4.217h-1v-2.108h1v2.108zm0-4.216h-1v-2.108h1v2.108zm0-4.216h-1v-2.108h1v2.108zm0-4.216h-1v-2.108h1v2.108zm0-4.216h-1v-2.109h1v2.109zm0-4.217h-1v-2.108h1v2.108zm0-4.216h-1v-2.108h1v2.108zm0-4.216h-1v-2.108h1v2.108zm0-4.216h-1v-2.108h1v2.108zm0-4.216h-1v-2.109h1v2.109zm0-4.217h-1v-2.108h1v2.108zm0-4.216h-1v-2.108h1v2.108zm0-4.216h-1v-2.108h1v2.108zm0-4.216h-1v-2.108h1v2.108zm0-4.217h-1v-2.108h1v2.108zm0-4.216h-1v-2.108h1v2.108zM740 96h-1v-2.108h1V96zm0-4.216h-1v-2.108h1v2.108zm0-4.216h-1V85.46h1v2.108zm0-4.217h-1v-2.108h1v2.108zm0-4.216h-1v-2.108h1v2.108zm0-4.216h-1V72.81h1v2.108zm0-4.216h-1v-2.108h1v2.108zm0-4.216h-1v-2.109h1v2.109zm0-4.217h-1v-2.108h1v2.108zm0-4.216h-1v-2.108h1v2.108zm0-4.216h-1V51.73h1v2.108zm0-4.216h-1v-2.108h1v2.108zm0-4.217h-1v-2.108h1v2.108zm0-4.216h-1v-2.108h1v2.108zm0-4.216h-1v-2.108h1v2.108zm0-4.216h-1v-2.108h1v2.108zm0-4.216h-1v-2.109h1v2.109zm0-4.217h-1v-2.108h1v2.108zm0-4.216h-1V18h1v2.108zM1392 408h-1v-2.108h1V408zm0-4.216h-1v-2.108h1v2.108zm0-4.216h-1v-2.109h1v2.109zm0-4.217h-1v-2.108h1v2.108zm0-4.216h-1v-2.108h1v2.108zm0-4.216h-1v-2.108h1v2.108zm0-4.216h-1v-2.108h1v2.108zm0-4.217h-1v-2.108h1v2.108zm0-4.216h-1v-2.108h1v2.108zm0-4.216h-1v-2.108h1v2.108zm0-4.216h-1v-2.108h1v2.108zm0-4.216h-1v-2.108h1v2.108zm0-4.217h-1v-2.108h1v2.108zm0-4.216h-1v-2.108h1v2.108zm0-4.216h-1v-2.108h1v2.108zm0-4.216h-1v-2.108h1v2.108zm0-4.216h-1v-2.109h1v2.109zm0-4.217h-1v-2.108h1v2.108zm0-4.216h-1V330h1v2.108zm0-4.216h-1v-2.108h1v2.108zm0-4.216h-1v-2.108h1v2.108zm0-4.217h-1v-2.108h1v2.108zm0-4.216h-1v-2.108h1v2.108zm0-4.216h-1v-2.108h1v2.108zm0-4.216h-1v-2.108h1v2.108zm0-4.216h-1v-2.109h1v2.109zm0-4.217h-1v-2.108h1v2.108zm0-4.216h-1v-2.108h1v2.108zm0-4.216h-1v-2.108h1v2.108zm0-4.216h-1v-2.108h1v2.108zm0-4.216h-1v-2.109h1v2.109zm0-4.217h-1v-2.108h1v2.108zm0-4.216h-1v-2.108h1v2.108zm0-4.216h-1v-2.108h1v2.108zm0-4.216h-1v-2.108h1v2.108zm0-4.217h-1v-2.108h1v2.108zm0-4.216h-1v-2.108h1v2.108zm0-4.216h-1v-2.108h1V252zm0-4.216h-1v-2.108h1v2.108zm0-4.216h-1v-2.109h1v2.109zm0-4.217h-1v-2.108h1v2.108zm0-4.216h-1v-2.108h1v2.108zm0-4.216h-1v-2.108h1v2.108zm0-4.216h-1v-2.108h1v2.108zm0-4.217h-1v-2.108h1v2.108zm0-4.216h-1v-2.108h1v2.108zm0-4.216h-1v-2.108h1v2.108zm0-4.216h-1v-2.108h1v2.108zm0-4.216h-1v-2.108h1v2.108zm0-4.217h-1v-2.108h1v2.108zm0-4.216h-1v-2.108h1v2.108zm0-4.216h-1v-2.108h1v2.108zm0-4.216h-1v-2.108h1v2.108zm0-4.216h-1v-2.109h1v2.109zm0-4.217h-1v-2.108h1v2.108zm0-4.216h-1V174h1v2.108zm0-4.216h-1v-2.108h1v2.108zm0-4.216h-1v-2.108h1v2.108zm0-4.217h-1v-2.108h1v2.108zm0-4.216h-1v-2.108h1v2.108zm0-4.216h-1v-2.108h1v2.108zm0-4.216h-1v-2.108h1v2.108zm0-4.216h-1v-2.109h1v2.109zm0-4.217h-1v-2.108h1v2.108zm0-4.216h-1v-2.108h1v2.108zm0-4.216h-1v-2.108h1v2.108zm0-4.216h-1v-2.108h1v2.108zm0-4.216h-1v-2.109h1v2.109zm0-4.217h-1v-2.108h1v2.108zm0-4.216h-1v-2.108h1v2.108zm0-4.216h-1v-2.108h1v2.108zm0-4.216h-1v-2.108h1v2.108zm0-4.217h-1v-2.108h1v2.108zm0-4.216h-1v-2.108h1v2.108zm0-4.216h-1v-2.108h1V96zm0-4.216h-1v-2.108h1v2.108zm0-4.216h-1V85.46h1v2.108zm0-4.217h-1v-2.108h1v2.108zm0-4.216h-1v-2.108h1v2.108zm0-4.216h-1V72.81h1v2.108zm0-4.216h-1v-2.108h1v2.108zm0-4.216h-1v-2.109h1v2.109zm0-4.217h-1v-2.108h1v2.108zm0-4.216h-1v-2.108h1v2.108zm0-4.216h-1V51.73h1v2.108zm0-4.216h-1v-2.108h1v2.108zm0-4.217h-1v-2.108h1v2.108zm0-4.216h-1v-2.108h1v2.108zm0-4.216h-1v-2.108h1v2.108zm0-4.216h-1v-2.108h1v2.108zm0-4.216h-1v-2.109h1v2.109zm0-4.217h-1v-2.108h1v2.108zm0-4.216h-1V18h1v2.108z" fill="#6E7797"/><path class="stroke" d="M384.513 29.51c.532.336 1.526.644 2.702.644 2.31 0 3.724-1.176 3.724-2.786 0-1.19-.882-2.016-1.974-2.212v-.028c1.12-.392 1.666-1.148 1.666-2.114 0-1.246-1.078-2.268-3.024-2.268-1.176 0-2.268.336-2.814.686l.434 1.54c.378-.224 1.162-.546 1.904-.546.896 0 1.344.406 1.344.952 0 .77-.91 1.036-1.624 1.05h-.826v1.526h.868c.938 0 1.834.406 1.834 1.302 0 .686-.56 1.218-1.666 1.218-.868 0-1.736-.364-2.114-.56l-.434 1.596zm11.056.644c2.114 0 3.5-1.106 3.5-2.758 0-1.176-.784-1.932-1.666-2.268v-.042c.896-.448 1.316-1.218 1.316-2.002 0-1.106-.882-2.338-3.01-2.338-1.82 0-3.206 1.022-3.206 2.562 0 .798.434 1.54 1.316 1.988v.042c-.994.434-1.624 1.19-1.624 2.282 0 1.232 1.064 2.534 3.374 2.534zm.084-1.47c-.798 0-1.302-.616-1.288-1.274 0-.658.406-1.162 1.106-1.358.84.224 1.428.7 1.428 1.498 0 .644-.49 1.134-1.246 1.134zm-.042-6.496c.784 0 1.106.56 1.106 1.12 0 .574-.434 1.022-.924 1.162-.728-.224-1.288-.616-1.288-1.232 0-.574.378-1.05 1.106-1.05zm7.724 7.966c2.114 0 3.5-1.106 3.5-2.758 0-1.176-.784-1.932-1.666-2.268v-.042c.896-.448 1.316-1.218 1.316-2.002 0-1.106-.882-2.338-3.01-2.338-1.82 0-3.206 1.022-3.206 2.562 0 .798.434 1.54 1.316 1.988v.042c-.994.434-1.624 1.19-1.624 2.282 0 1.232 1.064 2.534 3.374 2.534zm.084-1.47c-.798 0-1.302-.616-1.288-1.274 0-.658.406-1.162 1.106-1.358.84.224 1.428.7 1.428 1.498 0 .644-.49 1.134-1.246 1.134zm-.042-6.496c.784 0 1.106.56 1.106 1.12 0 .574-.434 1.022-.924 1.162-.728-.224-1.288-.616-1.288-1.232 0-.574.378-1.05 1.106-1.05zM1426.35 30v-2.17h1.09v-1.596h-1.09V20.9h-2.6l-3.45 5.544v1.386h4.04V30h2.01zm-4.06-3.766v-.028l1.22-1.988c.31-.574.55-1.106.84-1.694h.06c-.05.588-.07 1.148-.07 1.694v2.016h-2.05zm12.5 3.766v-1.75h-3.43v-.028l.84-.7c1.32-1.176 2.42-2.394 2.42-3.92 0-1.652-1.13-2.856-3.19-2.856-1.23 0-2.3.42-2.98.938l.6 1.526c.48-.364 1.16-.756 1.95-.756 1.05 0 1.49.588 1.49 1.33-.02 1.064-.99 2.086-2.98 3.864l-1.17 1.064V30h6.45zm7.09 0v-2.17h1.09v-1.596h-1.09V20.9h-2.6l-3.45 5.544v1.386h4.04V30h2.01zm-4.06-3.766v-.028l1.22-1.988c.31-.574.55-1.106.84-1.694h.06c-.05.588-.07 1.148-.07 1.694v2.016h-2.05zm393.83-5.334h-5.02l-.6 4.774c.38-.056.73-.084 1.23-.084 1.82 0 2.57.574 2.57 1.512 0 .966-.94 1.386-1.82 1.386-.83 0-1.66-.252-2.06-.448l-.38 1.596c.5.266 1.43.518 2.53.518 2.45 0 3.91-1.498 3.91-3.192 0-1.064-.42-1.82-1.11-2.282-.64-.462-1.52-.658-2.39-.658-.22 0-.39 0-.59.028l.2-1.4h3.53V20.9zm4.92 9.254c2.11 0 3.5-1.106 3.5-2.758 0-1.176-.78-1.932-1.67-2.268v-.042c.9-.448 1.32-1.218 1.32-2.002 0-1.106-.88-2.338-3.01-2.338-1.82 0-3.21 1.022-3.21 2.562 0 .798.44 1.54 1.32 1.988v.042c-.99.434-1.62 1.19-1.62 2.282 0 1.232 1.06 2.534 3.37 2.534zm.08-1.47c-.79 0-1.3-.616-1.28-1.274 0-.658.4-1.162 1.1-1.358.84.224 1.43.7 1.43 1.498 0 .644-.49 1.134-1.25 1.134zm-.04-6.496c.79 0 1.11.56 1.11 1.12 0 .574-.44 1.022-.93 1.162-.72-.224-1.28-.616-1.28-1.232 0-.574.37-1.05 1.1-1.05zm7.82-1.442c-2.35 0-3.47 2.086-3.47 4.718.01 2.576 1.05 4.69 3.4 4.69 2.33 0 3.46-1.932 3.46-4.746 0-2.492-.95-4.662-3.39-4.662zm-.03 1.61c.86 0 1.29 1.064 1.29 3.08 0 2.072-.45 3.108-1.27 3.108-.83 0-1.33-.994-1.32-3.08-.01-2.114.52-3.108 1.3-3.108z" fill="#60FD00"/><path class="stroke" d="M778.645 20.9h-5.012l-.602 4.774a7.857 7.857 0 011.232-.084c1.82 0 2.562.574 2.562 1.512 0 .966-.938 1.386-1.82 1.386-.826 0-1.652-.252-2.058-.448l-.378 1.596c.504.266 1.428.518 2.534.518 2.45 0 3.906-1.498 3.906-3.192 0-1.064-.42-1.82-1.106-2.282-.644-.462-1.526-.658-2.394-.658-.224 0-.392 0-.588.028l.196-1.4h3.528V20.9zm8.144 9.1v-1.75h-3.43v-.028l.84-.7c1.316-1.176 2.422-2.394 2.422-3.92 0-1.652-1.134-2.856-3.192-2.856-1.232 0-2.296.42-2.982.938l.602 1.526c.476-.364 1.162-.756 1.946-.756 1.05 0 1.498.588 1.498 1.33-.028 1.064-.994 2.086-2.982 3.864l-1.176 1.064V30h6.454z" fill="red"/><path class="stroke" d="M127.241 30.126c.238.014.602.028.966 0 1.414-.056 2.604-.49 3.472-1.274.994-.91 1.596-2.296 1.596-4.186 0-2.128-1.106-3.92-3.444-3.92-2.002 0-3.43 1.498-3.43 3.276 0 1.764 1.302 2.842 2.842 2.842.826 0 1.414-.238 1.82-.658l.042.014a2.829 2.829 0 01-1.148 1.68c-.49.336-1.148.518-1.792.56-.42.028-.658.028-.924 0v1.666zm2.534-7.826c.966 0 1.33.952 1.33 1.918 0 .266-.042.406-.112.532-.196.322-.602.602-1.176.602-.868 0-1.288-.672-1.288-1.456-.014-.952.518-1.596 1.246-1.596zm7.794 7.854c2.114 0 3.5-1.106 3.5-2.758 0-1.176-.784-1.932-1.666-2.268v-.042c.896-.448 1.316-1.218 1.316-2.002 0-1.106-.882-2.338-3.01-2.338-1.82 0-3.206 1.022-3.206 2.562 0 .798.434 1.54 1.316 1.988v.042c-.994.434-1.624 1.19-1.624 2.282 0 1.232 1.064 2.534 3.374 2.534zm.084-1.47c-.798 0-1.302-.616-1.288-1.274 0-.658.406-1.162 1.106-1.358.84.224 1.428.7 1.428 1.498 0 .644-.49 1.134-1.246 1.134zm-.042-6.496c.784 0 1.106.56 1.106 1.12 0 .574-.434 1.022-.924 1.162-.728-.224-1.288-.616-1.288-1.232 0-.574.378-1.05 1.106-1.05zM373.196 21l5.196 9H368l5.196-9zM1409.2 21l5.19 9H1404l5.2-9zm405 0l5.19 9H1809l5.2-9z" fill="#60FD00"/><path class="stroke" d="M761.196 30l5.196-9H756l5.196 9z" fill="red"/><path class="stroke" d="M115.196 21l5.196 9H110l5.196-9z" fill="#60FD00"/><path class="line-path dashed" d="M1 299c20.5-19.667 63.3-60 70.5-64 9-5 22-11 41 0s38.5-3 42.5-7 36-31 41-33 22-2.5 28-5.5 33.5-34 40-39.5 15.5-11.5 45.5-9.5 31.5-16 54-13.5 34 15 61.5 23.5 30.5 20.5 44.5 25 72.5-11 84-4 16.5 19 26 49.5 13 39.5 19.5 45.5 24.5 10.5 54-5 51-19 57-18.5 17.5 3 44.5 22.5 45 11.5 51 8 47-26.5 55-30 16-12 21.5-22 13-24.5 26-26.5 28 4.5 50.5 7 29-18 51.5-12.5 25.5 26.5 41.5 31.5 24 1 33 0 18-2.5 35 17 48.5 2.5 52.5-2.5 25.5-18 29-21.5 10-16 15-29.5 29-75.5 40.5-84 38.5-17.5 45-20.5 27.5-15.5 39.5-14 17 3.5 49 24.5 88.5 52.5 105 58 87-16 117.5-11 33 7 44.5 1 28.5-44.5 35.5-50 19.5-10 28-11 31.5-6 36.5-11 34.5-48 44.5-52.5 18.5-7.5 47 3.5c5 1.167 17.3 2 26.5-4s21.83-10.833 27-12.5" stroke="#FFCB00" stroke-width="1.5" stroke-dasharray="7 7"/><path class="line-path" d="M2 274.782c22.333-2.333 69.2-7.8 78-11 11-4 40.5-25.5 44-29s31-21.5 36.5-22.5 13.5-5 46.5-4.5 41-6 50.5-11.5 64-74.5 101.5-73 54.5 22 70.5 39.5 36 27 45 28.5 68 3.5 82 5 45-1.5 56.5 6.5 50 38 62.5 48.5 54 47 65.5 47.5 79.5-11.5 83.5-14 16-9.5 19.5-13 11-14.5 12.5-27 17-31 27.5-35 35-11.5 66 0 49.5 5.5 55.5 5 60.5-14 71.5-12.5 34 9.5 62.5 18.5 45 7 52 3 18-8 27.5-20 48-67.5 57.5-73.5 52-25 56.5-27.5 49-24 68-20 24 5.5 60 33 50.5 44 71.5 44 112-42 118.5-45 28.5-4 42.5-6 27.5-10 32.5-15.5 32-52.5 44.5-60 31.5-19.5 76-3c35.6 13.2 52.17 7.833 56 3.5" stroke="#8000FF" stroke-width="4"/></svg>