<svg width="1139" height="442" fill="none" xmlns="http://www.w3.org/2000/svg"><path d="M-12 258c1.839 9.167 8.827 27.7 22.067 28.5 16.55 1 39.12-18.5 48.147-14 9.027 4.5 24.073 18.5 33.1 19 9.028.5 44.134-20.5 49.651-25 5.517-4.5 20.061-22 28.086-19.5 8.024 2.5 31.596 9 35.106 16 3.511 7 5.016 23.5 11.034 30 6.018 6.5 108.831 145.5 118.861 144 10.031-1.5 29.59-19 38.618-31.5 9.027-12.5 47.143-60 60.684-55.5 13.541 4.5 11.535 10 30.593 7s20.061-5.5 29.59 0 48.147 46.5 62.189 44c14.043-2.5 17.554-13 17.554-23s9.529-66.5 14.042-70.5c4.514-4 43.633-30.5 57.174-38 13.542-7.5 38.116-20 40.624-27 2.508-7 8.024-96.5 11.535-104.5 3.511-8 55.168-101.5 65.7-114 10.532-12.5 15.046-22.5 28.085-18 13.04 4.5 31.095 9 40.122 16 9.028 7 22.067 22 30.593 21.5s9.529-4.5 19.56 0c10.03 4.5 9.529 13 18.556 14 9.028 1 25.578-9 32.599-6.5 7.022 2.5 24.073 28.5 32.599 30.5 8.526 2 28.086-4 34.606-.5 6.515 3.5 29.585 38.5 38.115 42 8.53 3.5 39.12 4.5 42.63 1.5 2.81-2.4 14.54-18 20.06-25.5" stroke="#343A59" stroke-width="8"/><path opacity=".3" d="M1100.38 133c21.33 0 38.62-17.237 38.62-38.5S1121.71 56 1100.38 56s-38.61 17.237-38.61 38.5 17.28 38.5 38.61 38.5z" fill="red"/><path opacity=".3" d="M1099.88 125c16.62 0 30.09-13.431 30.09-30 0-16.569-13.47-30-30.09-30-16.62 0-30.09 13.431-30.09 30 0 16.569 13.47 30 30.09 30z" fill="red"/><path opacity=".3" d="M1099.88 116c11.63 0 21.06-9.626 21.06-21.5s-9.43-21.5-21.06-21.5c-11.63 0-21.06 9.626-21.06 21.5s9.43 21.5 21.06 21.5z" fill="red"/><path d="M1100.38 107c6.93 0 12.54-5.596 12.54-12.5s-5.61-12.5-12.54-12.5c-6.92 0-12.54 5.596-12.54 12.5s5.62 12.5 12.54 12.5z" fill="red"/></svg>