<svg width="1221" height="117" fill="none" xmlns="http://www.w3.org/2000/svg"><path d="M.5 68c6.833-2.333 21.3-7.4 24.5-9 4-2 28.5-16 30-16.5s13.5-6.5 15.5-8S84 18 85 17.5s10-12 12-13S104 0 108.5 1s9.5 3.5 20 13c8.4 7.6 35.833 31.167 48.5 42 2.167 1.667 7.5 4.9 11.5 4.5 5-.5 41-9.5 42.5-10s12-4 16-2 8 3.5 15.5 13.5 17 9 18.5 9 8-2.5 11-6 11.5-5 18.5-2 20 1.5 25 4.5 15.5 13.5 17 15 22.5 22.5 25.5 24 28.5 10 33.5 9 8-1.5 12-5.5 32-25.5 35.5-26 13.5-1 28.5-.5 41.5 2 46.5 0 6.5-2 14-8.5 31-26.5 38.5-27.5 16 2 23 3S665 62 673 61.5s76.5-49 121.5-48c22 .489 79.5 44.5 86 44.5s11-1.5 18.5-7 23-5 27.5-3 29 17 46.5 30.5 22.5 13.5 23.5 14 28.5-6 33-8 17-4.5 20-4 5.5-.5 16.5 8.5 29.5 21 34 20.5 40-6 43.5-10 5.5-4.5 10-22 25-11.5 36.5-14c9.2-2 24.17-3.5 30.5-4" stroke="#E542FF" stroke-width="1.5"/></svg>