<svg width="49" height="49" fill="none" xmlns="http://www.w3.org/2000/svg"><circle cx="24.5" cy="24.5" r="24" fill="#000" stroke="url(#paint0_linear_207_1896)"/><path d="M21.16 23.464a1.464 1.464 0 00-2.071 2.071l4.375 4.375a1.458 1.458 0 001.036.423 1.46 1.46 0 001.05-.496l10.208-11.666a1.458 1.458 0 00-2.188-1.925l-9.07 10.5-3.34-3.282z" fill="url(#paint1_linear_207_1896)"/><path d="M37.625 23.041a1.459 1.459 0 00-1.459 1.459A11.666 11.666 0 0124.5 36.166a11.666 11.666 0 01-8.269-19.891 11.566 11.566 0 018.269-3.442 12.85 12.85 0 012.77.321 1.458 1.458 0 10.686-2.83 15.372 15.372 0 00-3.456-.408A14.584 14.584 0 0014.29 34.84a14.482 14.482 0 0010.21 4.243A14.583 14.583 0 0039.083 24.5a1.458 1.458 0 00-1.458-1.459z" fill="url(#paint2_linear_207_1896)"/><defs><linearGradient id="paint0_linear_207_1896" x1="49" y1="49" x2="0" y2="49" gradientUnits="userSpaceOnUse"><stop stop-color="#DE22E2"/><stop offset="1" stop-color="#FF2121"/></linearGradient><linearGradient id="paint1_linear_207_1896" x1="36.08" y1="30.333" x2="18.66" y2="30.333" gradientUnits="userSpaceOnUse"><stop stop-color="#DE22E2"/><stop offset="1" stop-color="#FF2121"/></linearGradient><linearGradient id="paint2_linear_207_1896" x1="39.083" y1="39.083" x2="9.992" y2="39.083" gradientUnits="userSpaceOnUse"><stop stop-color="#DE22E2"/><stop offset="1" stop-color="#FF2121"/></linearGradient></defs></svg>