<svg width="166" height="66" fill="none" xmlns="http://www.w3.org/2000/svg"><path d="M81.729 41.453v-9.509H43.92V53.09c-.181.43-.453.792-.77 1.11-.34.203-.725.475-1.132.746-.453.204-.95.385-1.562.544-12.792 3.26-24.496 6.452-37.288 9.712-.407.113-1.879.543-2.535.792h1.11c9.734 0 19.47.023 29.181-.022.091 0 .182 0 .272-.023h39.62l10.934-.023-.022-8.852c-6.679 0-13.267-.068-19.855-.068v-3.554h19.855v-8.83H61.806c.045-.837-.045-2.331 0-3.169h19.923zM77.314.023H0C.86.408 1.155.61 1.472.679c13.56 3.419 27.1 6.837 40.66 10.188 1.494.362 1.925.973 1.902 2.513-.09 7.109-.045 9.033-.045 16.278h37.74V.023h-4.415zM64.024 19.81H61.83v-9.803h2.196v9.803zM117.975.023H83.314V29.68c5.908 0 11.704.046 17.636.046v-4.71h20.013v-5.75h.045v-2.943c0-.271-.022-1.041-.045-2.966-.023-1.54.43-2.15 1.902-2.513 13.584-3.35 20.466-5.161 34.027-8.58.317-.09 6.656-1.766 8.128-2.264l-47.045.023zm-14.739 17.206h-2.264V9.984h2.264v7.245zm19.651 37.831c-1.222-.295-1.743-.77-1.879-1.812v-3.124c0-.294 0-.453.023-.566V31.763h-14.444v8.966c-1.721-2.287-4.573-6.815-5.864-8.92H96.92s-10.482-.114-13.606-.114v34.186h16.979c0-3.17-.158-6.294-.158-9.893 2.082 3.215 3.826 5.954 5.66 8.648.317.453.656.86 1.041 1.245 3.079.068 7.471.023 11.184 0v.045h47.045c-.86-.384-1.155-.588-1.472-.656-13.606-3.396-27.144-6.837-40.706-10.21zm-84.74-20.512c.95 0 1.721-1.237 1.721-2.762 0-1.526-.77-2.762-1.72-2.762s-1.721 1.236-1.721 2.762c0 1.525.77 2.762 1.72 2.762zm88.703 0c.95 0 1.72-1.237 1.72-2.762 0-1.526-.77-2.762-1.72-2.762-.951 0-1.721 1.236-1.721 2.762 0 1.525.77 2.762 1.721 2.762z" fill="red"/></svg>