<svg width="1768" height="418" fill="none" xmlns="http://www.w3.org/2000/svg"><path d="M42.267 121H39.25v-1.368h6.78V121h-3.762zm-9.821 0h-6.792v-1.368h6.792V121zm-13.584 0h-6.791v-1.368h6.791V121zM5.28 121H1v-1.368h4.292L5.28 121zm1761.451-.082l-6.66-1.286.25-1.367 6.68 1.244-.27 1.409zm-862.898-.233h-.408v-1.367h2.811l3.967-.082v1.367l-3.967.082h-2.404zm-850.97-.136l-.109-1.368a138.33 138.33 0 006.71-.738l.177 1.367c-2.227.315-4.51.561-6.764.752l-.014-.013zm843.744-.069a123.99 123.99 0 01-6.792-.56l.149-1.368c2.228.246 4.496.438 6.792.561l-.149 1.367zm20.456 0v-1.367l6.792-.137v1.368l-6.792.136zm13.584-.26v-1.367l6.792-.137v1.368l-6.792.136zm13.584-.259v-1.368l6.791-.137v1.368l-6.791.137zm13.583-.26v-1.368l6.792-.137v1.368l-6.792.137zm13.584-.274v-1.367l6.792-.137v1.368l-6.792.136zm13.583-.273v-1.368l6.792-.137v1.368l-6.792.137zm-102.067-.11l-6.791-.971.19-1.367 6.792.971-.191 1.367zm115.664-.164v-1.367l6.793-.137v1.368l-6.793.136zm-932.335-.15l-.258-1.368c2.2-.424 4.428-.916 6.601-1.449l.326 1.367a141.29 141.29 0 01-6.52 1.422l-.15.028zm945.928-.123v-1.368l6.8-.137v1.368l-6.8.137zm741.06-.164l-6.69-1.245.25-1.367 6.68 1.244-.24 1.368zm-727.3-.178v-1.368l6.8-.137v1.368l-6.8.137zm13.59-.287v-1.368l6.79-.137v1.368l-6.79.137zm13.58-.288v-1.367l6.79-.151v1.368l-6.79.15zm13.59-.3v-1.368l6.79-.15v1.367l-6.79.151zm13.58-.301v-1.368l6.79-.15v1.367l-6.79.151zm-210.723 0l-6.792-.971.19-1.368 6.792.971-.19 1.368zm224.413-.192v-1.367l6.79-.164v1.367l-6.79.164zm13.58-.328v-1.368l6.8-.164v1.368l-6.8.164zm13.59-.342v-1.367l6.79-.192v1.368l-6.79.191zm618.84-.246l-6.68-1.244.24-1.368 6.68 1.244-.24 1.368zm-605.19-.164v-1.368c3.78-.123 6.07-.232 6.79-.314l.15 1.367c-.76.028-3.01.123-6.89.26l-.05.055zM79.649 115.42l-.394-1.367a118.51 118.51 0 006.411-2.147l.462 1.285a86.216 86.216 0 01-6.48 2.229zm776.518-.273l-6.792-.971.191-1.368 6.791.971-.19 1.368zm870.503-1.737l-6.68-1.245.24-1.367 6.68 1.244-.24 1.368zm-883.951-.205l-6.791-.971.19-1.368 6.792.971-.191 1.368zm305.401-.752l-.6-1.231 6.1-3.036.61 1.231-6.11 3.036zm-318.848-1.176l-6.792-.971.19-1.368 6.792.971-.19 1.368zm884.048-.37l-6.69-1.244.25-1.368 6.68 1.245-.24 1.367zm-1620.848-.191l-.53-1.258a153.95 153.95 0 006.14-2.831l.598 1.231a105.626 105.626 0 01-6.195 2.871l-.013-.013zm723.352-1.368l-6.792-.971.19-1.367 6.792.971-.19 1.367zm884.146-.93l-6.69-1.244.25-1.368 6.68 1.245-.24 1.367zm-897.539-1.012l-6.792-.971.19-1.367 6.724.971-.122 1.367zm357.939-1.053l-.61-1.217 6.09-3.063.61 1.217-6.09 3.063zm526.3-.451l-6.69-1.245.25-1.367 6.68 1.244-.24 1.368zm-897.687-.438l-6.792-.971.19-1.367 6.792.971-.19 1.367zm-684.205-.793l-.665-1.19a118.083 118.083 0 005.8-3.487l.734 1.149a157.947 157.947 0 01-5.909 3.542l.04-.014zm670.757-1.135l-6.792-.971.191-1.368 6.723.971-.122 1.368zm897.765-.123l-6.68-1.245.24-1.367 6.69 1.244-.25 1.368zm-911.213-1.805l-6.723-.971.19-1.368 6.724.971-.191 1.368zm897.873-.684l-6.68-1.245.24-1.367 6.69 1.244-.25 1.368zm-487.42-.684l-.61-1.217 6.07-3.063.61 1.217-6.07 3.063zm-423.887-.56l-6.791-.972.19-1.367 6.724.97-.123 1.368zm897.957-1.259l-6.68-1.244.24-1.368 6.68 1.245-.24 1.367zm-911.459-.684l-3.654-.52-3.056-.396.163-1.367 3.083.41 3.654.52-.19 1.353zm-618.867-.355l-.747-1.135 5.65-3.788.748 1.135-5.651 3.788zm605.419-1.204a122.506 122.506 0 00-3.681-.191l-3.097-.11V94.51l3.097.11c1.241 0 2.477.063 3.709.19l-.028 1.368zm817.307-.232c-2.27 0-4.56-.11-6.79-.26l.08-1.368c2.23.15 4.5.233 6.79.26l-.08 1.368zm94.18 0l-6.68-1.245.24-1.367 6.68 1.244-.24 1.368zm-87.34 0v-1.368c2.24-.095 4.51-.246 6.79-.465l.12 1.368c-2.36.123-4.59.273-6.91.37v.095zm-837.689-.205l-6.792-.246v-1.368l6.792.246v1.368zm-13.584-.492l-6.792-.247v-1.367l6.792.246v1.368zm830.823-.083a150.08 150.08 0 01-6.79-.984l.23-1.368c2.22.383 4.47.711 6.68.971l-.12 1.381zm-844.393-.41l-6.792-.246v-1.368l6.792.247v1.367zm878.433-.096l-.2-1.367c2.21-.328 4.45-.725 6.66-1.176l.27 1.367c-2.23.342-4.5.739-6.74 1.08l.01.096zm-892.003-.396l-6.792-.246V92.65l6.792.246v1.368zm517.223 0l-.61-1.217 6.07-3.077.61 1.217-6.07 3.077zm-530.806-.616l-6.792-.246v-1.367l6.792.246v1.367zm965.986-.26l-3.74-.697-2.93-.506.21-1.368 2.96.52 3.74.698-.24 1.354zm-979.57-.246a123.139 123.139 0 01-6.792-.437l.122-1.368c2.228.205 4.497.356 6.792.438l-.122 1.367zm871.67-.437c-2.21-.506-4.44-1.08-6.61-1.696l.36-1.368c2.15.616 4.35 1.176 6.55 1.682l-.3 1.382zm60.86-.602l-.22-1.367c2.23-.356 4.51-.657 6.79-.89l.14 1.368c-2.25.274-4.5.575-6.7.916l-.01-.027zm-946.127-.205a156.85 156.85 0 01-6.792-1.162l.272-1.368c2.2.438 4.442.834 6.656 1.149l-.136 1.38zm979.797-.63a118.42 118.42 0 00-6.79-.546l.07-1.368c2.26.123 4.56.315 6.79.56l-.07 1.355zm-20.24-.574l-.07-1.367c2.19-.11 4.42-.164 6.6-.164h.22v1.367h-.23c-2.15.028-4.35.082-6.55.192l.03-.028zm-1458.658-.916l-.747-1.135 5.65-3.788.747 1.135-5.65 3.788zm485.721-.574a142.58 142.58 0 01-4.401-1.217l-2.16-.643.38-1.368 2.16.643c1.449.428 2.903.83 4.361 1.204l-.34 1.38zm885.517-.15l-6.51-1.956.39-1.368 6.51 1.956-.39 1.367zm-302.02-1.136l-.61-1.217 6.07-3.077.61 1.217-6.07 3.077zm-596.564-2.475l-6.52-1.928.38-1.368 6.52 1.928-.38 1.368zm885.584-.287l-6.51-1.956.39-1.368 6.51 1.956-.39 1.368zM138.9 82.216l-.747-1.136 5.651-3.788.747 1.135-5.651 3.788zm1070.06-.424l-.61-1.218 6.07-3.077.61 1.217-6.07 3.078zm-621.761-.206l-6.52-1.928.38-1.368 6.52 1.929-.38 1.367zm885.651-.355l-6.51-1.956.4-1.367 6.5 1.955-.39 1.368zM574.227 77.73l-6.52-1.928.38-1.368 6.52 1.928-.38 1.368zm885.653-.41l-6.51-1.956.39-1.368 6.51 1.956-.39 1.368zm-238.68-1.696l-.61-1.217 6.07-3.078.61 1.218-6.07 3.077zm-1070.903-.999l-.747-1.135 5.651-3.788.747 1.135-5.651 3.788zm410.93-.766l-6.52-1.928.38-1.367 6.521 1.928-.381 1.367zm885.653-.478l-6.51-1.956.39-1.367 6.51 1.955-.39 1.368zm-898.666-3.392l-6.52-1.928.38-1.368 6.52 1.929-.38 1.367zm885.646-.533l-6.59-1.928.4-1.368 6.51 1.956-.32 1.34zm-200.49 0l-.61-1.217 6.07-3.077.61 1.217-6.07 3.077zm-1071.744-2.42l-.747-1.136 5.65-3.788.747 1.135-5.65 3.788zm373.548-.89l-6.52-1.928.38-1.368 6.52 1.929-.38 1.367zm885.646-.588l-6.5-1.955.39-1.368 6.51 1.956-.4 1.367zm-175.43-2.243l-.61-1.217 6.07-3.077.61 1.218-6.07 3.077zm-723.351-.998l-6.521-1.928.381-1.368 6.52 1.929-.38 1.367zm885.651-.656l-6.51-1.956.39-1.367 6.51 1.955-.39 1.368zM172.805 59.459l-.747-1.135 5.651-3.788.747 1.135-5.651 3.788zm336.193-1.026l-6.52-1.928.381-1.368 6.52 1.929-.381 1.367zm885.652-.71l-6.51-1.956.39-1.368 6.51 1.956-.39 1.367zm-137.2-.589l-.61-1.217 6.07-3.077.62 1.23-6.08 3.064zm-761.56-2.557l-6.52-1.929.38-1.367 6.521 1.928-.381 1.368zm885.72-.78l-6.51-1.955.39-1.368 6.51 1.956-.39 1.367zM184.107 51.883l-.748-1.136 5.651-3.788.747 1.135-5.65 3.788zm1085.603-.63l-.53-1.258a113.91 113.91 0 016.34-2.543l.47 1.285a75.117 75.117 0 00-6.28 2.517zm-786.792-.478l-6.52-1.928.38-1.368 6.52 1.928-.38 1.368zm885.732-.834l-6.51-1.956.4-1.368 6.5 1.956-.39 1.368zm-898.745-3.064l-6.52-1.928.38-1.368 6.52 1.929-.38 1.367zm812.505-.355l-.4-1.368c2.16-.67 4.38-1.3 6.58-1.846l.32 1.367c-2.18.561-4.37 1.108-6.52 1.833l.02.014zm73.27-.534a136.96 136.96 0 00-6.54-1.736l.31-1.368c2.21.52 4.42 1.108 6.61 1.75l-.38 1.354zM195.422 44.306l-.747-1.135 5.65-3.788.747 1.135-5.65 3.788zm1100.088-1.094l-.25-1.368c2.21-.437 4.48-.82 6.79-1.135l.19 1.368c-2.31.315-4.55.697-6.73 1.121v.014zm-838.632-.164l-6.52-1.928.38-1.368 6.521 1.928-.381 1.368zm885.652-.15c-2.2-.397-4.44-.739-6.69-1.026l.18-1.368c2.26.288 4.52.63 6.79 1.04l-.28 1.354zm-33.65-1.546l-.12-1.367c2.25-.192 4.55-.342 6.79-.41v1.367c-2.19.04-4.46.178-6.68.37l.01.04zm20.24-.15c-2.24-.164-4.51-.274-6.79-.315V39.52c2.25 0 4.55.15 6.79.314v1.368zm-885.296-2.038l-6.52-1.928.381-1.368 6.52 1.928-.381 1.368zM206.696 36.73l-.747-1.135 5.651-3.788.747 1.134-5.651 3.789zm224.129-1.368l-6.52-1.928.38-1.368 6.52 1.929-.38 1.367zm-13.027-3.856l-6.574-1.997.38-1.368 6.52 1.929-.326 1.436zm-199.76-2.312l-.747-1.135 5.651-3.788.747 1.135-5.651 3.788zm186.734-1.545l-6.52-1.928.38-1.368 6.52 1.928-.38 1.368zm-13.027-3.857l-6.52-1.928.38-1.367 6.52 1.928-.38 1.367zm-162.392-2.16l-.733-1.15a123.257 123.257 0 015.827-3.569l.679 1.19c-1.983 1.053-3.912 2.23-5.8 3.46l.027.069zm149.42-1.696l-6.52-1.928.38-1.368 6.52 1.928-.38 1.368zm-13.027-3.857l-6.52-1.928.38-1.368 6.52 1.929-.38 1.367zm-124.602-1.19l-.611-1.217a116.579 116.579 0 016.18-2.913l.544 1.259c-2.147.82-4.211 1.791-6.208 2.803l.095.069zm111.575-2.735l-6.52-1.928.381-1.368 6.52 1.929-.381 1.367zm-99.16-2.735l-.475-1.285a144.31 144.31 0 016.452-2.23l.408 1.368a72.732 72.732 0 00-6.521 2.134l.136.013zm86.161-1.108l-6.507-1.928.381-1.367 6.52 1.928-.394 1.367zm-73.283-2.954l-.34-1.367c2.187-.56 4.428-1.08 6.656-1.518l.272 1.367c-2.337.438-4.551.917-6.711 1.505l.123.013zm60.229-.683a149.046 149.046 0 00-6.615-1.368l.231-1.367c2.241.396 4.496.861 6.683 1.367l-.299 1.368zm-46.985-1.97l-.191-1.367c2.242-.328 4.524-.602 6.792-.807l.122 1.368c-2.377.205-4.632.464-6.846.793l.123.013zm33.673-.383a117.92 117.92 0 00-6.792-.642l.096-1.368c2.268.15 4.55.37 6.791.657l-.095 1.353zm-20.307-.861V.092c2.255-.082 4.55-.11 6.792-.082v1.368c-2.337-.028-4.592 0-6.792.082z" fill="#fff"/><path class="line-path" d="M1014.1 418a35.741 35.741 0 01-5.69-.463 33.25 33.25 0 01-14.827-6.039 33.33 33.33 0 01-10.296-12.272l-66.612-137.263a29.426 29.426 0 00-8.012-9.917 29.378 29.378 0 00-11.445-5.592l-25.132-6.38a31.063 31.063 0 00-15.237-.034 31.102 31.102 0 00-13.426 7.217l-58.86 55.028a34.369 34.369 0 01-17.026 8.611l-22.091 4.272a35.25 35.25 0 01-29.355-7.646l-45.622-39.165a32.339 32.339 0 01-8.146-10.421l-34.488-70.645c-6.789-13.971-24.44-20.229-39.226-13.958a34.875 34.875 0 01-21.846 1.847 34.934 34.934 0 01-18.643-11.56l-9.884-12.121a30.932 30.932 0 00-17.296-10.348 30.89 30.89 0 00-19.989 2.512l-80.231 39.275a35.364 35.364 0 01-28.065 1.251l-92.858-35.547a31.189 31.189 0 00-25.282 1.36 28.263 28.263 0 00-9.301 7.358 28.338 28.338 0 00-5.472 10.532l-36.85 135.848c-3.761 13.849-16.836 23.821-31.826 24.256l-67.522 1.918a31.29 31.29 0 00-7.889 1.238l-45.078 13.155a35.16 35.16 0 01-28.595-3.945L0 313.807l2.172-3.455 41.996 26.582a31.08 31.08 0 0025.295 3.482l45.079-13.155a35.389 35.389 0 018.907-1.36l67.522-1.918c13.198-.381 24.712-9.115 28.011-21.249l36.85-135.849a32.363 32.363 0 016.244-12.011 32.293 32.293 0 0110.606-8.395 35.242 35.242 0 0128.513-1.496l92.859 35.479a31.273 31.273 0 0024.833-1.102l80.231-39.275a34.987 34.987 0 0122.647-2.823 35.032 35.032 0 0119.58 11.747l9.885 12.121a30.833 30.833 0 0016.469 10.181 30.794 30.794 0 0019.281-1.651c16.768-7.101 36.66 0 44.467 15.93l34.515 70.741a28.284 28.284 0 007.074 9.101l45.648 39.138a31.11 31.11 0 0012.199 6.341 31.077 31.077 0 0013.735.461l22.253-4.489a30.293 30.293 0 0014.936-7.591l58.86-55.028a35.274 35.274 0 0115.192-8.174 35.233 35.233 0 0117.245.012l25.132 6.38a33.424 33.424 0 0112.979 6.397 33.491 33.491 0 019.071 11.288l66.613 137.263a29.31 29.31 0 009.061 10.773 29.233 29.233 0 0013.03 5.294c4.86.819 9.85.454 14.54-1.064a30.669 30.669 0 0012.41-7.656l34.76-35.779a35.124 35.124 0 0114.6-8.81 35.08 35.08 0 0117.01-.903l72.82 14.121c14.4 2.802 28.65-4.639 33.87-17.685l18.9-47.233a32.021 32.021 0 015.87-9.441l61.28-68.686a28.099 28.099 0 006.12-11.291l27.16-100.805a31.468 31.468 0 015.66-11.305l34.28-43.886a34.912 34.912 0 0120.74-12.467 34.852 34.852 0 0123.85 4.032l98.26 56.13a31.176 31.176 0 0020.84 3.578l47.53-8.38a35.022 35.022 0 0131.56 10.407l56.49 61.054a29.39 29.39 0 004.22 3.755l32.59 23.806a32.983 32.983 0 019.8 11.401L1768 320.609l-3.61 1.877-53.86-104.219c-2.06-3.944-5-7.357-8.6-9.972l-32.59-23.807a33.491 33.491 0 01-4.8-4.271l-56.49-61.055a30.897 30.897 0 00-27.87-9.155l-47.52 8.38a35.243 35.243 0 01-23.57-4.081l-98.27-56.13a30.745 30.745 0 00-21.05-3.588 30.775 30.775 0 00-18.32 10.989l-34.31 43.899a27.554 27.554 0 00-4.95 9.863l-27.15 100.805a32.13 32.13 0 01-7.02 12.938l-61.24 68.686a27.857 27.857 0 00-5.11 8.23l-18.91 47.233c-5.94 14.855-22.1 23.344-38.42 20.174l-72.82-14.12a30.983 30.983 0 00-27.79 8.57l-34.81 35.819a34.718 34.718 0 01-11.37 7.676 34.577 34.577 0 01-13.45 2.65z" fill="#D51313"/><path opacity=".3" d="M1421.5 101c21.26 0 38.5-17.237 38.5-38.5S1442.76 24 1421.5 24 1383 41.237 1383 62.5s17.24 38.5 38.5 38.5z" fill="#D51313"/><path opacity=".3" d="M1421 93c16.57 0 30-13.431 30-30 0-16.569-13.43-30-30-30s-30 13.431-30 30c0 16.569 13.43 30 30 30z" fill="#D51313"/><path opacity=".3" d="M1421 84c11.6 0 21-9.626 21-21.5s-9.4-21.5-21-21.5-21 9.626-21 21.5 9.4 21.5 21 21.5z" fill="#D51313"/><path d="M1421.5 75c6.9 0 12.5-5.596 12.5-12.5s-5.6-12.5-12.5-12.5-12.5 5.596-12.5 12.5 5.6 12.5 12.5 12.5z" fill="#D51313"/></svg>