<svg width="88" height="80" fill="none" xmlns="http://www.w3.org/2000/svg"><path d="M80.904.888L3.396 33.147s-3.664 1.332-3.38 3.789c.29 2.46 3.281 3.587 3.281 3.587L22.8 47.485s5.886 20.479 7.045 24.376c1.159 3.886 2.088 3.977 2.088 3.977 1.079.498 2.06-.294 2.06-.294l12.6-12.185 19.638 15.973c5.312 2.458 7.245-2.662 7.245-2.662L87.275 2.837c0-4.917-6.371-1.949-6.371-1.949zM67.182 70.732L46.173 53.648l-6.52 6.302 1.434-13.409L69.091 20 30.92 42.663l-16.933-6.044L78.588 9.73 67.182 70.732z" fill="url(#paint0_linear_295_2896)"/><defs><linearGradient id="paint0_linear_295_2896" x1="87.275" y1="80" x2="0" y2="80" gradientUnits="userSpaceOnUse"><stop stop-color="#DE22E2"/><stop offset="1" stop-color="#FF2121"/></linearGradient></defs></svg>