<svg width="205" height="79" fill="none" xmlns="http://www.w3.org/2000/svg"><path d="M12.5 79l10.825-18.75H1.675L12.5 79z" fill="url(#paint0_linear_295_2763)"/><path d="M12.5 54l10.825-18.75H1.675L12.5 54z" fill="url(#paint1_linear_295_2763)"/><path d="M12.5 25L23.325 6.25H1.675L12.5 25z" fill="url(#paint2_linear_295_2763)"/><path d="M132.5 79l10.825-18.75h-21.65L132.5 79z" fill="url(#paint3_linear_295_2763)"/><path d="M132.5 54l10.825-18.75h-21.65L132.5 54z" fill="url(#paint4_linear_295_2763)"/><path d="M132.5 25l10.825-18.75h-21.65L132.5 25z" fill="url(#paint5_linear_295_2763)"/><path d="M72.5 79l10.825-18.75h-21.65L72.5 79z" fill="url(#paint6_linear_295_2763)"/><path d="M72.5 54l10.825-18.75h-21.65L72.5 54z" fill="url(#paint7_linear_295_2763)"/><path d="M72.5 25L83.325 6.25h-21.65L72.5 25z" fill="url(#paint8_linear_295_2763)"/><path d="M192.5 79l10.825-18.75h-21.65L192.5 79z" fill="url(#paint9_linear_295_2763)"/><path d="M192.5 54l10.825-18.75h-21.65L192.5 54z" fill="url(#paint10_linear_295_2763)"/><path d="M192.5 25l10.825-18.75h-21.65L192.5 25z" fill="url(#paint11_linear_295_2763)"/><path d="M42.5 79l10.825-18.75h-21.65L42.5 79z" fill="url(#paint12_linear_295_2763)"/><path d="M42.5 54l10.825-18.75h-21.65L42.5 54z" fill="url(#paint13_linear_295_2763)"/><path d="M42.5 25L53.325 6.25h-21.65L42.5 25z" fill="url(#paint14_linear_295_2763)"/><path d="M162.5 79l10.825-18.75h-21.65L162.5 79z" fill="url(#paint15_linear_295_2763)"/><path d="M162.5 54l10.825-18.75h-21.65L162.5 54z" fill="url(#paint16_linear_295_2763)"/><path d="M162.5 25l10.825-18.75h-21.65L162.5 25z" fill="url(#paint17_linear_295_2763)"/><path d="M102.5 79l10.825-18.75h-21.65L102.5 79z" fill="url(#paint18_linear_295_2763)"/><path d="M102.5 54l10.825-18.75h-21.65L102.5 54z" fill="url(#paint19_linear_295_2763)"/><path d="M102.5 25l10.825-18.75h-21.65L102.5 25z" fill="url(#paint20_linear_295_2763)"/><defs><linearGradient id="paint1_linear_295_2763" x1="25" y1="29" x2="0" y2="29" gradientUnits="userSpaceOnUse"><stop stop-color="red"/><stop offset="1" stop-color="#2621FF"/></linearGradient><linearGradient id="paint10_linear_295_2763" x1="205" y1="29" x2="180" y2="29" gradientUnits="userSpaceOnUse"><stop stop-color="red"/><stop offset="1" stop-color="#2621FF"/></linearGradient><linearGradient id="paint2_linear_295_2763" x1="25" y1="0" x2="0" y2="0" gradientUnits="userSpaceOnUse"><stop stop-color="red"/><stop offset="1" stop-color="#2621FF"/></linearGradient><linearGradient id="paint3_linear_295_2763" x1="145" y1="54" x2="120" y2="54" gradientUnits="userSpaceOnUse"><stop stop-color="red"/><stop offset="1" stop-color="#2621FF"/></linearGradient><linearGradient id="paint4_linear_295_2763" x1="145" y1="29" x2="120" y2="29" gradientUnits="userSpaceOnUse"><stop stop-color="red"/><stop offset="1" stop-color="#2621FF"/></linearGradient><linearGradient id="paint5_linear_295_2763" x1="145" y1="0" x2="120" y2="0" gradientUnits="userSpaceOnUse"><stop stop-color="red"/><stop offset="1" stop-color="#2621FF"/></linearGradient><linearGradient id="paint6_linear_295_2763" x1="85" y1="54" x2="60" y2="54" gradientUnits="userSpaceOnUse"><stop stop-color="red"/><stop offset="1" stop-color="#2621FF"/></linearGradient><linearGradient id="paint7_linear_295_2763" x1="85" y1="29" x2="60" y2="29" gradientUnits="userSpaceOnUse"><stop stop-color="red"/><stop offset="1" stop-color="#2621FF"/></linearGradient><linearGradient id="paint8_linear_295_2763" x1="85" y1="0" x2="60" y2="0" gradientUnits="userSpaceOnUse"><stop stop-color="red"/><stop offset="1" stop-color="#2621FF"/></linearGradient><linearGradient id="paint9_linear_295_2763" x1="205" y1="54" x2="180" y2="54" gradientUnits="userSpaceOnUse"><stop stop-color="red"/><stop offset="1" stop-color="#2621FF"/></linearGradient><linearGradient id="paint0_linear_295_2763" x1="25" y1="54" x2="0" y2="54" gradientUnits="userSpaceOnUse"><stop stop-color="red"/><stop offset="1" stop-color="#2621FF"/></linearGradient><linearGradient id="paint11_linear_295_2763" x1="205" y1="0" x2="180" y2="0" gradientUnits="userSpaceOnUse"><stop stop-color="red"/><stop offset="1" stop-color="#2621FF"/></linearGradient><linearGradient id="paint12_linear_295_2763" x1="55" y1="54" x2="30" y2="54" gradientUnits="userSpaceOnUse"><stop stop-color="red"/><stop offset="1" stop-color="#2621FF"/></linearGradient><linearGradient id="paint13_linear_295_2763" x1="55" y1="29" x2="30" y2="29" gradientUnits="userSpaceOnUse"><stop stop-color="red"/><stop offset="1" stop-color="#2621FF"/></linearGradient><linearGradient id="paint14_linear_295_2763" x1="55" y1="0" x2="30" y2="0" gradientUnits="userSpaceOnUse"><stop stop-color="red"/><stop offset="1" stop-color="#2621FF"/></linearGradient><linearGradient id="paint15_linear_295_2763" x1="175" y1="54" x2="150" y2="54" gradientUnits="userSpaceOnUse"><stop stop-color="red"/><stop offset="1" stop-color="#2621FF"/></linearGradient><linearGradient id="paint16_linear_295_2763" x1="175" y1="29" x2="150" y2="29" gradientUnits="userSpaceOnUse"><stop stop-color="red"/><stop offset="1" stop-color="#2621FF"/></linearGradient><linearGradient id="paint17_linear_295_2763" x1="175" y1="0" x2="150" y2="0" gradientUnits="userSpaceOnUse"><stop stop-color="red"/><stop offset="1" stop-color="#2621FF"/></linearGradient><linearGradient id="paint18_linear_295_2763" x1="115" y1="54" x2="90" y2="54" gradientUnits="userSpaceOnUse"><stop stop-color="red"/><stop offset="1" stop-color="#2621FF"/></linearGradient><linearGradient id="paint19_linear_295_2763" x1="115" y1="29" x2="90" y2="29" gradientUnits="userSpaceOnUse"><stop stop-color="red"/><stop offset="1" stop-color="#2621FF"/></linearGradient><linearGradient id="paint20_linear_295_2763" x1="115" y1="0" x2="90" y2="0" gradientUnits="userSpaceOnUse"><stop stop-color="red"/><stop offset="1" stop-color="#2621FF"/></linearGradient></defs></svg>