<svg width="84" height="84" fill="none" xmlns="http://www.w3.org/2000/svg"><path d="M57.05 52.795c.797-2.394.797-4.255.531-4.787s-.797-.532-1.861-1.064-5.85-2.925-6.649-3.191c-.797-.266-1.861-.266-2.393.798-1.064 1.33-1.862 2.66-2.66 3.457-.531.532-1.595.798-2.393.266-1.064-.532-4.255-1.596-7.978-4.787-2.925-2.66-4.787-5.85-5.585-6.915-.532-1.063 0-1.595.532-2.127l1.596-1.596c.532-.531.797-.797 1.063-1.595.266-.532 0-1.33-.265-1.862-.266-.532-2.128-5.319-2.926-7.18-.532-1.33-1.064-1.33-2.127-1.33-.266-.266-.798-.266-1.064-.266-1.33 0-2.66.266-3.457 1.33-1.064 1.064-3.458 3.457-3.458 8.244s3.458 9.574 3.99 10.106c.531.532 6.914 10.637 16.754 14.892 7.712 3.191 10.105 2.926 11.701 2.66 2.66-.798 5.85-2.66 6.648-5.053z" stroke="url(#paint0_linear_295_2888)" stroke-width="4" stroke-miterlimit="10" stroke-linecap="round" stroke-linejoin="round"/><path d="M41.89 2C19.819 2 2 7.053 2 36.572 2 55.72 9.446 64.496 20.616 68.485v11.7c0 1.597 1.861 2.394 3.191 1.33l10.372-10.371h7.712c22.073 0 39.89-5.053 39.89-34.572C81.782 7.052 63.965 2 41.892 2z" stroke="url(#paint1_linear_295_2888)" stroke-width="4" stroke-miterlimit="10" stroke-linecap="round" stroke-linejoin="round"/><path d="M40.561 29.126c3.457 0 6.117 2.66 6.117 6.117" stroke="url(#paint2_linear_295_2888)" stroke-width="4" stroke-miterlimit="10" stroke-linecap="round" stroke-linejoin="round"/><path d="M40.561 12.638c12.5 0 22.605 10.105 22.605 22.604" stroke="url(#paint3_linear_295_2888)" stroke-width="4" stroke-miterlimit="10" stroke-linecap="round" stroke-linejoin="round"/><path d="M40.561 20.882a14.3 14.3 0 0114.36 14.36" stroke="url(#paint4_linear_295_2888)" stroke-width="4" stroke-miterlimit="10" stroke-linecap="round" stroke-linejoin="round"/><defs><linearGradient id="paint0_linear_295_2888" x1="57.74" y1="57.995" x2="17.956" y2="57.995" gradientUnits="userSpaceOnUse"><stop stop-color="#DE22E2"/><stop offset="1" stop-color="#FF2121"/></linearGradient><linearGradient id="paint1_linear_295_2888" x1="81.782" y1="82" x2="2" y2="82" gradientUnits="userSpaceOnUse"><stop stop-color="#DE22E2"/><stop offset="1" stop-color="#FF2121"/></linearGradient><linearGradient id="paint2_linear_295_2888" x1="46.678" y1="35.243" x2="40.561" y2="35.243" gradientUnits="userSpaceOnUse"><stop stop-color="#DE22E2"/><stop offset="1" stop-color="#FF2121"/></linearGradient><linearGradient id="paint3_linear_295_2888" x1="63.166" y1="35.242" x2="40.561" y2="35.242" gradientUnits="userSpaceOnUse"><stop stop-color="#DE22E2"/><stop offset="1" stop-color="#FF2121"/></linearGradient><linearGradient id="paint4_linear_295_2888" x1="54.922" y1="35.242" x2="40.561" y2="35.242" gradientUnits="userSpaceOnUse"><stop stop-color="#DE22E2"/><stop offset="1" stop-color="#FF2121"/></linearGradient></defs></svg>