<svg width="50" height="278" viewBox="0 0 50 278" fill="none" xmlns="http://www.w3.org/2000/svg">
<path d="M0.225906 276.462L49.9624 277.027L49.9624 228.413L42.9593 221.29L7.00301 221.29L0.263557 228.036L0.263559 276.462L0.225906 276.462ZM13.7425 262.97L13.7425 234.744L36.2199 234.744L36.2199 262.97L13.7425 262.97ZM18.2229 203.314L13.7425 203.314L13.7425 169.698L0.263554 169.698L0.263556 216.768L50 216.692L50 169.585L36.2199 169.661L36.2199 203.276L31.7395 203.276L31.7395 169.661L18.2605 169.661L18.2229 203.314ZM0.037648 165.402L49.9624 165.402L49.9624 151.496L38.4413 151.722L38.4413 123.496L49.9624 123.609L49.9624 110.306L0.0376456 110.306L0.037648 165.402ZM13.7425 123.496L25 123.496L25 151.722L13.7425 151.722L13.7425 123.496ZM49.9624 59.581L36.1822 59.694L36.1822 92.1037L0.225898 92.1037L0.225898 105.557L49.9624 105.557L49.9624 59.581ZM13.9684 13.5668L13.9684 0.226104L6.96535 -3.04466e-07L-1.20994e-05 0.226105L-9.69266e-06 55.2848L31.9277 55.2848L31.6642 13.4538L35.994 13.5291L35.994 55.2471L49.9624 55.2471L49.9623 0.188444L18.0723 0.188445L18.2605 41.6803L14.006 41.9441L13.9684 13.5668Z" fill="white"/>
</svg>
