<svg class="line-dash__cont anim" width="1904" height="408" viewBox="0 0 1904 408" fill="none"
     xmlns="http://www.w3.org/2000/svg">
    <path class="stroke" d="M472.52 404.96H471V408H472.52V404.96Z" fill="#6E7797"/>
    <path class="stroke" d="M1893.18 321.352H1885.58V319.832H1893.18V321.352ZM1877.98 321.352H1870.38V319.832H1877.98V321.352ZM1862.78 321.352H1855.18V319.832H1862.78V321.352ZM1847.58 321.352H1839.98V319.832H1847.58V321.352ZM1832.38 321.352H1824.78V319.832H1832.38V321.352ZM1817.18 321.352H1809.58V319.832H1817.18V321.352ZM1801.98 321.352H1794.38V319.832H1801.98V321.352ZM1786.77 321.352H1779.17V319.832H1786.77V321.352ZM1771.57 321.352H1763.97V319.832H1771.57V321.352ZM1756.37 321.352H1748.77V319.832H1756.37V321.352ZM1741.17 321.352H1733.57V319.832H1741.17V321.352ZM1725.97 321.352H1718.37V319.832H1725.97V321.352ZM1710.77 321.352H1703.17V319.832H1710.77V321.352ZM1695.57 321.352H1687.97V319.832H1695.57V321.352ZM1680.36 321.352H1672.76V319.832H1680.36V321.352ZM1665.16 321.352H1657.56V319.832H1665.16V321.352ZM1649.96 321.352H1642.36V319.832H1649.96V321.352ZM1634.76 321.352H1627.16V319.832H1634.76V321.352ZM1619.56 321.352H1611.96V319.832H1619.56V321.352ZM1604.36 321.352H1596.76V319.832H1604.36V321.352ZM1589.16 321.352H1581.56V319.832H1589.16V321.352ZM1573.95 321.352H1566.35V319.832H1573.95V321.352ZM1558.75 321.352H1551.15V319.832H1558.75V321.352ZM1543.55 321.352H1535.95V319.832H1543.55V321.352ZM1528.35 321.352H1520.75V319.832H1528.35V321.352ZM1513.15 321.352H1505.55V319.832H1513.15V321.352ZM1497.95 321.352H1490.35V319.832H1497.95V321.352ZM1482.75 321.352H1475.15V319.832H1482.75V321.352ZM1467.54 321.352H1459.94V319.832H1467.54V321.352ZM1452.34 321.352H1444.74V319.832H1452.34V321.352ZM1437.14 321.352H1429.54V319.832H1437.14V321.352ZM1421.94 321.352H1414.34V319.832H1421.94V321.352ZM1406.74 321.352H1399.14V319.832H1406.74V321.352ZM1391.54 321.352H1383.94V319.832H1391.54V321.352ZM1376.34 321.352H1368.74V319.832H1376.34V321.352ZM1361.13 321.352H1353.53V319.832H1361.13V321.352ZM1345.93 321.352H1338.33V319.832H1345.93V321.352ZM1330.73 321.352H1323.13V319.832H1330.73V321.352ZM1315.53 321.352H1307.93V319.832H1315.53V321.352ZM1300.33 321.352H1292.73V319.832H1300.33V321.352ZM1285.13 321.352H1277.53V319.832H1285.13V321.352ZM1269.93 321.352H1262.33V319.832H1269.93V321.352ZM1254.72 321.352H1247.12V319.832H1254.72V321.352ZM1239.52 321.352H1231.92V319.832H1239.52V321.352ZM1224.32 321.352H1216.72V319.832H1224.32V321.352ZM1209.12 321.352H1201.52V319.832H1209.12V321.352ZM1193.92 321.352H1186.32V319.832H1193.92V321.352ZM1178.72 321.352H1171.12V319.832H1178.72V321.352ZM1163.52 321.352H1155.92V319.832H1163.52V321.352ZM1148.31 321.352H1140.71V319.832H1148.31V321.352ZM1133.11 321.352H1125.51V319.832H1133.11V321.352ZM1117.91 321.352H1110.31V319.832H1117.91V321.352ZM1102.71 321.352H1095.11V319.832H1102.71V321.352ZM1087.51 321.352H1079.91V319.832H1087.51V321.352ZM1072.31 321.352H1064.71V319.832H1072.31V321.352ZM1057.11 321.352H1049.51V319.832H1057.11V321.352ZM1041.9 321.352H1034.3V319.832H1041.9V321.352ZM1026.7 321.352H1019.1V319.832H1026.7V321.352ZM1011.5 321.352H1003.9V319.832H1011.5V321.352ZM996.301 321.352H988.7V319.832H996.301V321.352ZM981.099 321.352H973.498V319.832H981.099V321.352ZM965.898 321.352H958.297V319.832H965.898V321.352ZM950.696 321.352H943.096V319.832H950.696V321.352ZM935.495 321.352H927.894V319.832H935.495V321.352ZM920.293 321.352H912.693V319.832H920.293V321.352ZM905.092 321.352H897.491V319.832H905.092V321.352ZM889.891 321.352H882.29V319.832H889.891V321.352ZM874.689 321.352H867.089V319.832H874.689V321.352ZM859.488 321.352H851.887V319.832H859.488V321.352ZM844.286 321.352H836.686V319.832H844.286V321.352ZM829.085 321.352H821.484V319.832H829.085V321.352ZM813.884 321.352H806.283V319.832H813.884V321.352ZM798.682 321.352H791.081V319.832H798.682V321.352ZM783.481 321.352H775.88V319.832H783.481V321.352ZM768.279 321.352H760.679V319.832H768.279V321.352ZM753.078 321.352H745.477V319.832H753.078V321.352ZM737.876 321.352H730.276V319.832H737.876V321.352ZM722.675 321.352H715.074V319.832H722.675V321.352ZM707.474 321.352H699.873V319.832H707.474V321.352ZM692.272 321.352H684.672V319.832H692.272V321.352ZM677.071 321.352H669.47V319.832H677.071V321.352ZM661.869 321.352H654.269V319.832H661.869V321.352ZM646.668 321.352H639.067V319.832H646.668V321.352ZM631.467 321.352H623.866V319.832H631.467V321.352ZM616.265 321.352H608.664V319.832H616.265V321.352ZM601.064 321.352H593.463V319.832H601.064V321.352ZM585.862 321.352H578.262V319.832H585.862V321.352ZM570.661 321.352H563.06V319.832H570.661V321.352ZM555.459 321.352H547.859V319.832H555.459V321.352ZM540.258 321.352H532.657V319.832H540.258V321.352ZM525.057 321.352H517.456V319.832H525.057V321.352ZM509.855 321.352H502.255V319.832H509.855V321.352ZM494.654 321.352H487.053V319.832H494.654V321.352ZM479.452 321.352H471.852V319.832H479.452V321.352ZM464.251 321.352H456.65V319.832H464.251V321.352ZM449.05 321.352H441.449V319.832H449.05V321.352ZM433.848 321.352H426.247V319.832H433.848V321.352ZM418.647 321.352H411.046V319.832H418.647V321.352ZM403.445 321.352H395.845V319.832H403.445V321.352ZM388.244 321.352H380.643V319.832H388.244V321.352ZM373.042 321.352H365.442V319.832H373.042V321.352ZM357.841 321.352H350.24V319.832H357.841V321.352ZM342.64 321.352H335.039V319.832H342.64V321.352ZM327.438 321.352H319.837V319.832H327.438V321.352ZM312.237 321.352H304.636V319.832H312.237V321.352ZM297.035 321.352H289.435V319.832H297.035V321.352ZM281.834 321.352H274.233V319.832H281.834V321.352ZM266.633 321.352H259.032V319.832H266.633V321.352ZM251.431 321.352H243.83V319.832H251.431V321.352ZM236.23 321.352H228.629V319.832H236.23V321.352ZM221.028 321.352H213.428V319.832H221.028V321.352ZM205.827 321.352H198.226V319.832H205.827V321.352ZM190.625 321.352H183.025V319.832H190.625V321.352ZM175.424 321.352H167.823V319.832H175.424V321.352ZM160.223 321.352H152.622V319.832H160.223V321.352ZM145.021 321.352H137.421V319.832H145.021V321.352ZM129.82 321.352H122.219V319.832H129.82V321.352ZM114.618 321.352H107.018V319.832H114.618V321.352ZM99.417 321.352H91.8162V319.832H99.417V321.352ZM84.2155 321.352H76.6148V319.832H84.2155V321.352ZM69.0141 321.352H61.4134V319.832H69.0141V321.352ZM53.8127 321.352H46.212V319.832H53.8127V321.352ZM38.6113 321.352H31.0106V319.832H38.6113V321.352ZM23.4099 321.352H15.8092V319.832H23.4099V321.352ZM8.20846 321.352H2V319.832H8.20846V321.352Z"
          fill="#32395E"/>
    <path class="stroke" d="M1803 408H1802V405.892H1803V408ZM1803 403.784H1802V401.676H1803V403.784ZM1803 399.568H1802V397.459H1803V399.568ZM1803 395.351H1802V393.243H1803V395.351ZM1803 391.135H1802V389.027H1803V391.135ZM1803 386.919H1802V384.811H1803V386.919ZM1803 382.703H1802V380.595H1803V382.703ZM1803 378.486H1802V376.378H1803V378.486ZM1803 374.27H1802V372.162H1803V374.27ZM1803 370.054H1802V367.946H1803V370.054ZM1803 365.838H1802V363.73H1803V365.838ZM1803 361.622H1802V359.514H1803V361.622ZM1803 357.405H1802V355.297H1803V357.405ZM1803 353.189H1802V351.081H1803V353.189ZM1803 348.973H1802V346.865H1803V348.973ZM1803 344.757H1802V342.649H1803V344.757ZM1803 340.541H1802V338.432H1803V340.541ZM1803 336.324H1802V334.216H1803V336.324ZM1803 332.108H1802V330H1803V332.108ZM1803 327.892H1802V325.784H1803V327.892ZM1803 323.676H1802V321.568H1803V323.676ZM1803 319.459H1802V317.351H1803V319.459ZM1803 315.243H1802V313.135H1803V315.243ZM1803 311.027H1802V308.919H1803V311.027ZM1803 306.811H1802V304.703H1803V306.811ZM1803 302.595H1802V300.486H1803V302.595ZM1803 298.378H1802V296.27H1803V298.378ZM1803 294.162H1802V292.054H1803V294.162ZM1803 289.946H1802V287.838H1803V289.946ZM1803 285.73H1802V283.622H1803V285.73ZM1803 281.514H1802V279.405H1803V281.514ZM1803 277.297H1802V275.189H1803V277.297ZM1803 273.081H1802V270.973H1803V273.081ZM1803 268.865H1802V266.757H1803V268.865ZM1803 264.649H1802V262.541H1803V264.649ZM1803 260.432H1802V258.324H1803V260.432ZM1803 256.216H1802V254.108H1803V256.216ZM1803 252H1802V249.892H1803V252ZM1803 247.784H1802V245.676H1803V247.784ZM1803 243.568H1802V241.459H1803V243.568ZM1803 239.351H1802V237.243H1803V239.351ZM1803 235.135H1802V233.027H1803V235.135ZM1803 230.919H1802V228.811H1803V230.919ZM1803 226.703H1802V224.595H1803V226.703ZM1803 222.486H1802V220.378H1803V222.486ZM1803 218.27H1802V216.162H1803V218.27ZM1803 214.054H1802V211.946H1803V214.054ZM1803 209.838H1802V207.73H1803V209.838ZM1803 205.622H1802V203.514H1803V205.622ZM1803 201.405H1802V199.297H1803V201.405ZM1803 197.189H1802V195.081H1803V197.189ZM1803 192.973H1802V190.865H1803V192.973ZM1803 188.757H1802V186.649H1803V188.757ZM1803 184.541H1802V182.432H1803V184.541ZM1803 180.324H1802V178.216H1803V180.324ZM1803 176.108H1802V174H1803V176.108ZM1803 171.892H1802V169.784H1803V171.892ZM1803 167.676H1802V165.568H1803V167.676ZM1803 163.459H1802V161.351H1803V163.459ZM1803 159.243H1802V157.135H1803V159.243ZM1803 155.027H1802V152.919H1803V155.027ZM1803 150.811H1802V148.703H1803V150.811ZM1803 146.595H1802V144.486H1803V146.595ZM1803 142.378H1802V140.27H1803V142.378ZM1803 138.162H1802V136.054H1803V138.162ZM1803 133.946H1802V131.838H1803V133.946ZM1803 129.73H1802V127.622H1803V129.73ZM1803 125.514H1802V123.405H1803V125.514ZM1803 121.297H1802V119.189H1803V121.297ZM1803 117.081H1802V114.973H1803V117.081ZM1803 112.865H1802V110.757H1803V112.865ZM1803 108.649H1802V106.541H1803V108.649ZM1803 104.432H1802V102.324H1803V104.432ZM1803 100.216H1802V98.1081H1803V100.216ZM1803 96H1802V93.8919H1803V96ZM1803 91.7838H1802V89.6757H1803V91.7838ZM1803 87.5676H1802V85.4595H1803V87.5676ZM1803 83.3514H1802V81.2432H1803V83.3514ZM1803 79.1351H1802V77.027H1803V79.1351ZM1803 74.9189H1802V72.8108H1803V74.9189ZM1803 70.7027H1802V68.5946H1803V70.7027ZM1803 66.4865H1802V64.3784H1803V66.4865ZM1803 62.2703H1802V60.1622H1803V62.2703ZM1803 58.0541H1802V55.9459H1803V58.0541ZM1803 53.8378H1802V51.7297H1803V53.8378ZM1803 49.6216H1802V47.5135H1803V49.6216ZM1803 45.4054H1802V43.2973H1803V45.4054ZM1803 41.1892H1802V39.0811H1803V41.1892ZM1803 36.973H1802V34.8649H1803V36.973ZM1803 32.7568H1802V30.6486H1803V32.7568ZM1803 28.5405H1802V26.4324H1803V28.5405ZM1803 24.3243H1802V22.2162H1803V24.3243ZM1803 20.1081H1802V18H1803V20.1081Z"
          fill="#6E7797"/>
    <path class="stroke" d="M103 408H102V405.892H103V408ZM103 403.784H102V401.676H103V403.784ZM103 399.568H102V397.459H103V399.568ZM103 395.351H102V393.243H103V395.351ZM103 391.135H102V389.027H103V391.135ZM103 386.919H102V384.811H103V386.919ZM103 382.703H102V380.595H103V382.703ZM103 378.486H102V376.378H103V378.486ZM103 374.27H102V372.162H103V374.27ZM103 370.054H102V367.946H103V370.054ZM103 365.838H102V363.73H103V365.838ZM103 361.622H102V359.514H103V361.622ZM103 357.405H102V355.297H103V357.405ZM103 353.189H102V351.081H103V353.189ZM103 348.973H102V346.865H103V348.973ZM103 344.757H102V342.649H103V344.757ZM103 340.541H102V338.432H103V340.541ZM103 336.324H102V334.216H103V336.324ZM103 332.108H102V330H103V332.108ZM103 327.892H102V325.784H103V327.892ZM103 323.676H102V321.568H103V323.676ZM103 319.459H102V317.351H103V319.459ZM103 315.243H102V313.135H103V315.243ZM103 311.027H102V308.919H103V311.027ZM103 306.811H102V304.703H103V306.811ZM103 302.595H102V300.486H103V302.595ZM103 298.378H102V296.27H103V298.378ZM103 294.162H102V292.054H103V294.162ZM103 289.946H102V287.838H103V289.946ZM103 285.73H102V283.622H103V285.73ZM103 281.514H102V279.405H103V281.514ZM103 277.297H102V275.189H103V277.297ZM103 273.081H102V270.973H103V273.081ZM103 268.865H102V266.757H103V268.865ZM103 264.649H102V262.541H103V264.649ZM103 260.432H102V258.324H103V260.432ZM103 256.216H102V254.108H103V256.216ZM103 252H102V249.892H103V252ZM103 247.784H102V245.676H103V247.784ZM103 243.568H102V241.459H103V243.568ZM103 239.351H102V237.243H103V239.351ZM103 235.135H102V233.027H103V235.135ZM103 230.919H102V228.811H103V230.919ZM103 226.703H102V224.595H103V226.703ZM103 222.486H102V220.378H103V222.486ZM103 218.27H102V216.162H103V218.27ZM103 214.054H102V211.946H103V214.054ZM103 209.838H102V207.73H103V209.838ZM103 205.622H102V203.514H103V205.622ZM103 201.405H102V199.297H103V201.405ZM103 197.189H102V195.081H103V197.189ZM103 192.973H102V190.865H103V192.973ZM103 188.757H102V186.649H103V188.757ZM103 184.541H102V182.432H103V184.541ZM103 180.324H102V178.216H103V180.324ZM103 176.108H102V174H103V176.108ZM103 171.892H102V169.784H103V171.892ZM103 167.676H102V165.568H103V167.676ZM103 163.459H102V161.351H103V163.459ZM103 159.243H102V157.135H103V159.243ZM103 155.027H102V152.919H103V155.027ZM103 150.811H102V148.703H103V150.811ZM103 146.595H102V144.486H103V146.595ZM103 142.378H102V140.27H103V142.378ZM103 138.162H102V136.054H103V138.162ZM103 133.946H102V131.838H103V133.946ZM103 129.73H102V127.622H103V129.73ZM103 125.514H102V123.405H103V125.514ZM103 121.297H102V119.189H103V121.297ZM103 117.081H102V114.973H103V117.081ZM103 112.865H102V110.757H103V112.865ZM103 108.649H102V106.541H103V108.649ZM103 104.432H102V102.324H103V104.432ZM103 100.216H102V98.1081H103V100.216ZM103 96H102V93.8919H103V96ZM103 91.7838H102V89.6757H103V91.7838ZM103 87.5676H102V85.4595H103V87.5676ZM103 83.3514H102V81.2432H103V83.3514ZM103 79.1351H102V77.027H103V79.1351ZM103 74.9189H102V72.8108H103V74.9189ZM103 70.7027H102V68.5946H103V70.7027ZM103 66.4865H102V64.3784H103V66.4865ZM103 62.2703H102V60.1622H103V62.2703ZM103 58.0541H102V55.9459H103V58.0541ZM103 53.8378H102V51.7297H103V53.8378ZM103 49.6216H102V47.5135H103V49.6216ZM103 45.4054H102V43.2973H103V45.4054ZM103 41.1892H102V39.0811H103V41.1892ZM103 36.973H102V34.8649H103V36.973ZM103 32.7568H102V30.6486H103V32.7568ZM103 28.5405H102V26.4324H103V28.5405ZM103 24.3243H102V22.2162H103V24.3243ZM103 20.1081H102V18H103V20.1081Z"
          fill="#6E7797"/>
    <path class="stroke" d="M361 408H360V405.892H361V408ZM361 403.784H360V401.676H361V403.784ZM361 399.568H360V397.459H361V399.568ZM361 395.351H360V393.243H361V395.351ZM361 391.135H360V389.027H361V391.135ZM361 386.919H360V384.811H361V386.919ZM361 382.703H360V380.595H361V382.703ZM361 378.486H360V376.378H361V378.486ZM361 374.27H360V372.162H361V374.27ZM361 370.054H360V367.946H361V370.054ZM361 365.838H360V363.73H361V365.838ZM361 361.622H360V359.514H361V361.622ZM361 357.405H360V355.297H361V357.405ZM361 353.189H360V351.081H361V353.189ZM361 348.973H360V346.865H361V348.973ZM361 344.757H360V342.649H361V344.757ZM361 340.541H360V338.432H361V340.541ZM361 336.324H360V334.216H361V336.324ZM361 332.108H360V330H361V332.108ZM361 327.892H360V325.784H361V327.892ZM361 323.676H360V321.568H361V323.676ZM361 319.459H360V317.351H361V319.459ZM361 315.243H360V313.135H361V315.243ZM361 311.027H360V308.919H361V311.027ZM361 306.811H360V304.703H361V306.811ZM361 302.595H360V300.486H361V302.595ZM361 298.378H360V296.27H361V298.378ZM361 294.162H360V292.054H361V294.162ZM361 289.946H360V287.838H361V289.946ZM361 285.73H360V283.622H361V285.73ZM361 281.514H360V279.405H361V281.514ZM361 277.297H360V275.189H361V277.297ZM361 273.081H360V270.973H361V273.081ZM361 268.865H360V266.757H361V268.865ZM361 264.649H360V262.541H361V264.649ZM361 260.432H360V258.324H361V260.432ZM361 256.216H360V254.108H361V256.216ZM361 252H360V249.892H361V252ZM361 247.784H360V245.676H361V247.784ZM361 243.568H360V241.459H361V243.568ZM361 239.351H360V237.243H361V239.351ZM361 235.135H360V233.027H361V235.135ZM361 230.919H360V228.811H361V230.919ZM361 226.703H360V224.595H361V226.703ZM361 222.486H360V220.378H361V222.486ZM361 218.27H360V216.162H361V218.27ZM361 214.054H360V211.946H361V214.054ZM361 209.838H360V207.73H361V209.838ZM361 205.622H360V203.514H361V205.622ZM361 201.405H360V199.297H361V201.405ZM361 197.189H360V195.081H361V197.189ZM361 192.973H360V190.865H361V192.973ZM361 188.757H360V186.649H361V188.757ZM361 184.541H360V182.432H361V184.541ZM361 180.324H360V178.216H361V180.324ZM361 176.108H360V174H361V176.108ZM361 171.892H360V169.784H361V171.892ZM361 167.676H360V165.568H361V167.676ZM361 163.459H360V161.351H361V163.459ZM361 159.243H360V157.135H361V159.243ZM361 155.027H360V152.919H361V155.027ZM361 150.811H360V148.703H361V150.811ZM361 146.595H360V144.486H361V146.595ZM361 142.378H360V140.27H361V142.378ZM361 138.162H360V136.054H361V138.162ZM361 133.946H360V131.838H361V133.946ZM361 129.73H360V127.622H361V129.73ZM361 125.514H360V123.405H361V125.514ZM361 121.297H360V119.189H361V121.297ZM361 117.081H360V114.973H361V117.081ZM361 112.865H360V110.757H361V112.865ZM361 108.649H360V106.541H361V108.649ZM361 104.432H360V102.324H361V104.432ZM361 100.216H360V98.1081H361V100.216ZM361 96H360V93.8919H361V96ZM361 91.7838H360V89.6757H361V91.7838ZM361 87.5676H360V85.4595H361V87.5676ZM361 83.3514H360V81.2432H361V83.3514ZM361 79.1351H360V77.027H361V79.1351ZM361 74.9189H360V72.8108H361V74.9189ZM361 70.7027H360V68.5946H361V70.7027ZM361 66.4865H360V64.3784H361V66.4865ZM361 62.2703H360V60.1622H361V62.2703ZM361 58.0541H360V55.9459H361V58.0541ZM361 53.8378H360V51.7297H361V53.8378ZM361 49.6216H360V47.5135H361V49.6216ZM361 45.4054H360V43.2973H361V45.4054ZM361 41.1892H360V39.0811H361V41.1892ZM361 36.973H360V34.8649H361V36.973ZM361 32.7568H360V30.6486H361V32.7568ZM361 28.5405H360V26.4324H361V28.5405ZM361 24.3243H360V22.2162H361V24.3243ZM361 20.1081H360V18H361V20.1081Z"
          fill="#6E7797"/>
    <path class="stroke" d="M740 408H739V405.892H740V408ZM740 403.784H739V401.676H740V403.784ZM740 399.568H739V397.459H740V399.568ZM740 395.351H739V393.243H740V395.351ZM740 391.135H739V389.027H740V391.135ZM740 386.919H739V384.811H740V386.919ZM740 382.703H739V380.595H740V382.703ZM740 378.486H739V376.378H740V378.486ZM740 374.27H739V372.162H740V374.27ZM740 370.054H739V367.946H740V370.054ZM740 365.838H739V363.73H740V365.838ZM740 361.622H739V359.514H740V361.622ZM740 357.405H739V355.297H740V357.405ZM740 353.189H739V351.081H740V353.189ZM740 348.973H739V346.865H740V348.973ZM740 344.757H739V342.649H740V344.757ZM740 340.541H739V338.432H740V340.541ZM740 336.324H739V334.216H740V336.324ZM740 332.108H739V330H740V332.108ZM740 327.892H739V325.784H740V327.892ZM740 323.676H739V321.568H740V323.676ZM740 319.459H739V317.351H740V319.459ZM740 315.243H739V313.135H740V315.243ZM740 311.027H739V308.919H740V311.027ZM740 306.811H739V304.703H740V306.811ZM740 302.595H739V300.486H740V302.595ZM740 298.378H739V296.27H740V298.378ZM740 294.162H739V292.054H740V294.162ZM740 289.946H739V287.838H740V289.946ZM740 285.73H739V283.622H740V285.73ZM740 281.514H739V279.405H740V281.514ZM740 277.297H739V275.189H740V277.297ZM740 273.081H739V270.973H740V273.081ZM740 268.865H739V266.757H740V268.865ZM740 264.649H739V262.541H740V264.649ZM740 260.432H739V258.324H740V260.432ZM740 256.216H739V254.108H740V256.216ZM740 252H739V249.892H740V252ZM740 247.784H739V245.676H740V247.784ZM740 243.568H739V241.459H740V243.568ZM740 239.351H739V237.243H740V239.351ZM740 235.135H739V233.027H740V235.135ZM740 230.919H739V228.811H740V230.919ZM740 226.703H739V224.595H740V226.703ZM740 222.486H739V220.378H740V222.486ZM740 218.27H739V216.162H740V218.27ZM740 214.054H739V211.946H740V214.054ZM740 209.838H739V207.73H740V209.838ZM740 205.622H739V203.514H740V205.622ZM740 201.405H739V199.297H740V201.405ZM740 197.189H739V195.081H740V197.189ZM740 192.973H739V190.865H740V192.973ZM740 188.757H739V186.649H740V188.757ZM740 184.541H739V182.432H740V184.541ZM740 180.324H739V178.216H740V180.324ZM740 176.108H739V174H740V176.108ZM740 171.892H739V169.784H740V171.892ZM740 167.676H739V165.568H740V167.676ZM740 163.459H739V161.351H740V163.459ZM740 159.243H739V157.135H740V159.243ZM740 155.027H739V152.919H740V155.027ZM740 150.811H739V148.703H740V150.811ZM740 146.595H739V144.486H740V146.595ZM740 142.378H739V140.27H740V142.378ZM740 138.162H739V136.054H740V138.162ZM740 133.946H739V131.838H740V133.946ZM740 129.73H739V127.622H740V129.73ZM740 125.514H739V123.405H740V125.514ZM740 121.297H739V119.189H740V121.297ZM740 117.081H739V114.973H740V117.081ZM740 112.865H739V110.757H740V112.865ZM740 108.649H739V106.541H740V108.649ZM740 104.432H739V102.324H740V104.432ZM740 100.216H739V98.1081H740V100.216ZM740 96H739V93.8919H740V96ZM740 91.7838H739V89.6757H740V91.7838ZM740 87.5676H739V85.4595H740V87.5676ZM740 83.3514H739V81.2432H740V83.3514ZM740 79.1351H739V77.027H740V79.1351ZM740 74.9189H739V72.8108H740V74.9189ZM740 70.7027H739V68.5946H740V70.7027ZM740 66.4865H739V64.3784H740V66.4865ZM740 62.2703H739V60.1622H740V62.2703ZM740 58.0541H739V55.9459H740V58.0541ZM740 53.8378H739V51.7297H740V53.8378ZM740 49.6216H739V47.5135H740V49.6216ZM740 45.4054H739V43.2973H740V45.4054ZM740 41.1892H739V39.0811H740V41.1892ZM740 36.973H739V34.8649H740V36.973ZM740 32.7568H739V30.6486H740V32.7568ZM740 28.5405H739V26.4324H740V28.5405ZM740 24.3243H739V22.2162H740V24.3243ZM740 20.1081H739V18H740V20.1081Z"
          fill="#6E7797"/>
    <path class="stroke" d="M1392 408H1391V405.892H1392V408ZM1392 403.784H1391V401.676H1392V403.784ZM1392 399.568H1391V397.459H1392V399.568ZM1392 395.351H1391V393.243H1392V395.351ZM1392 391.135H1391V389.027H1392V391.135ZM1392 386.919H1391V384.811H1392V386.919ZM1392 382.703H1391V380.595H1392V382.703ZM1392 378.486H1391V376.378H1392V378.486ZM1392 374.27H1391V372.162H1392V374.27ZM1392 370.054H1391V367.946H1392V370.054ZM1392 365.838H1391V363.73H1392V365.838ZM1392 361.622H1391V359.514H1392V361.622ZM1392 357.405H1391V355.297H1392V357.405ZM1392 353.189H1391V351.081H1392V353.189ZM1392 348.973H1391V346.865H1392V348.973ZM1392 344.757H1391V342.649H1392V344.757ZM1392 340.541H1391V338.432H1392V340.541ZM1392 336.324H1391V334.216H1392V336.324ZM1392 332.108H1391V330H1392V332.108ZM1392 327.892H1391V325.784H1392V327.892ZM1392 323.676H1391V321.568H1392V323.676ZM1392 319.459H1391V317.351H1392V319.459ZM1392 315.243H1391V313.135H1392V315.243ZM1392 311.027H1391V308.919H1392V311.027ZM1392 306.811H1391V304.703H1392V306.811ZM1392 302.595H1391V300.486H1392V302.595ZM1392 298.378H1391V296.27H1392V298.378ZM1392 294.162H1391V292.054H1392V294.162ZM1392 289.946H1391V287.838H1392V289.946ZM1392 285.73H1391V283.622H1392V285.73ZM1392 281.514H1391V279.405H1392V281.514ZM1392 277.297H1391V275.189H1392V277.297ZM1392 273.081H1391V270.973H1392V273.081ZM1392 268.865H1391V266.757H1392V268.865ZM1392 264.649H1391V262.541H1392V264.649ZM1392 260.432H1391V258.324H1392V260.432ZM1392 256.216H1391V254.108H1392V256.216ZM1392 252H1391V249.892H1392V252ZM1392 247.784H1391V245.676H1392V247.784ZM1392 243.568H1391V241.459H1392V243.568ZM1392 239.351H1391V237.243H1392V239.351ZM1392 235.135H1391V233.027H1392V235.135ZM1392 230.919H1391V228.811H1392V230.919ZM1392 226.703H1391V224.595H1392V226.703ZM1392 222.486H1391V220.378H1392V222.486ZM1392 218.27H1391V216.162H1392V218.27ZM1392 214.054H1391V211.946H1392V214.054ZM1392 209.838H1391V207.73H1392V209.838ZM1392 205.622H1391V203.514H1392V205.622ZM1392 201.405H1391V199.297H1392V201.405ZM1392 197.189H1391V195.081H1392V197.189ZM1392 192.973H1391V190.865H1392V192.973ZM1392 188.757H1391V186.649H1392V188.757ZM1392 184.541H1391V182.432H1392V184.541ZM1392 180.324H1391V178.216H1392V180.324ZM1392 176.108H1391V174H1392V176.108ZM1392 171.892H1391V169.784H1392V171.892ZM1392 167.676H1391V165.568H1392V167.676ZM1392 163.459H1391V161.351H1392V163.459ZM1392 159.243H1391V157.135H1392V159.243ZM1392 155.027H1391V152.919H1392V155.027ZM1392 150.811H1391V148.703H1392V150.811ZM1392 146.595H1391V144.486H1392V146.595ZM1392 142.378H1391V140.27H1392V142.378ZM1392 138.162H1391V136.054H1392V138.162ZM1392 133.946H1391V131.838H1392V133.946ZM1392 129.73H1391V127.622H1392V129.73ZM1392 125.514H1391V123.405H1392V125.514ZM1392 121.297H1391V119.189H1392V121.297ZM1392 117.081H1391V114.973H1392V117.081ZM1392 112.865H1391V110.757H1392V112.865ZM1392 108.649H1391V106.541H1392V108.649ZM1392 104.432H1391V102.324H1392V104.432ZM1392 100.216H1391V98.1081H1392V100.216ZM1392 96H1391V93.8919H1392V96ZM1392 91.7838H1391V89.6757H1392V91.7838ZM1392 87.5676H1391V85.4595H1392V87.5676ZM1392 83.3514H1391V81.2432H1392V83.3514ZM1392 79.1351H1391V77.027H1392V79.1351ZM1392 74.9189H1391V72.8108H1392V74.9189ZM1392 70.7027H1391V68.5946H1392V70.7027ZM1392 66.4865H1391V64.3784H1392V66.4865ZM1392 62.2703H1391V60.1622H1392V62.2703ZM1392 58.0541H1391V55.9459H1392V58.0541ZM1392 53.8378H1391V51.7297H1392V53.8378ZM1392 49.6216H1391V47.5135H1392V49.6216ZM1392 45.4054H1391V43.2973H1392V45.4054ZM1392 41.1892H1391V39.0811H1392V41.1892ZM1392 36.973H1391V34.8649H1392V36.973ZM1392 32.7568H1391V30.6486H1392V32.7568ZM1392 28.5405H1391V26.4324H1392V28.5405ZM1392 24.3243H1391V22.2162H1392V24.3243ZM1392 20.1081H1391V18H1392V20.1081Z"
          fill="#6E7797"/>
    <path class="stroke" d="M384.513 29.51C385.045 29.846 386.039 30.154 387.215 30.154C389.525 30.154 390.939 28.978 390.939 27.368C390.939 26.178 390.057 25.352 388.965 25.156V25.128C390.085 24.736 390.631 23.98 390.631 23.014C390.631 21.768 389.553 20.746 387.607 20.746C386.431 20.746 385.339 21.082 384.793 21.432L385.227 22.972C385.605 22.748 386.389 22.426 387.131 22.426C388.027 22.426 388.475 22.832 388.475 23.378C388.475 24.148 387.565 24.414 386.851 24.428H386.025V25.954H386.893C387.831 25.954 388.727 26.36 388.727 27.256C388.727 27.942 388.167 28.474 387.061 28.474C386.193 28.474 385.325 28.11 384.947 27.914L384.513 29.51ZM395.569 30.154C397.683 30.154 399.069 29.048 399.069 27.396C399.069 26.22 398.285 25.464 397.403 25.128V25.086C398.299 24.638 398.719 23.868 398.719 23.084C398.719 21.978 397.837 20.746 395.709 20.746C393.889 20.746 392.503 21.768 392.503 23.308C392.503 24.106 392.937 24.848 393.819 25.296V25.338C392.825 25.772 392.195 26.528 392.195 27.62C392.195 28.852 393.259 30.154 395.569 30.154ZM395.653 28.684C394.855 28.684 394.351 28.068 394.365 27.41C394.365 26.752 394.771 26.248 395.471 26.052C396.311 26.276 396.899 26.752 396.899 27.55C396.899 28.194 396.409 28.684 395.653 28.684ZM395.611 22.188C396.395 22.188 396.717 22.748 396.717 23.308C396.717 23.882 396.283 24.33 395.793 24.47C395.065 24.246 394.505 23.854 394.505 23.238C394.505 22.664 394.883 22.188 395.611 22.188ZM403.335 30.154C405.449 30.154 406.835 29.048 406.835 27.396C406.835 26.22 406.051 25.464 405.169 25.128V25.086C406.065 24.638 406.485 23.868 406.485 23.084C406.485 21.978 405.603 20.746 403.475 20.746C401.655 20.746 400.269 21.768 400.269 23.308C400.269 24.106 400.703 24.848 401.585 25.296V25.338C400.591 25.772 399.961 26.528 399.961 27.62C399.961 28.852 401.025 30.154 403.335 30.154ZM403.419 28.684C402.621 28.684 402.117 28.068 402.131 27.41C402.131 26.752 402.537 26.248 403.237 26.052C404.077 26.276 404.665 26.752 404.665 27.55C404.665 28.194 404.175 28.684 403.419 28.684ZM403.377 22.188C404.161 22.188 404.483 22.748 404.483 23.308C404.483 23.882 404.049 24.33 403.559 24.47C402.831 24.246 402.271 23.854 402.271 23.238C402.271 22.664 402.649 22.188 403.377 22.188Z"
          fill="#60FD00"/>
    <path class="stroke" d="M1426.35 30V27.83H1427.44V26.234H1426.35V20.9H1423.75L1420.3 26.444V27.83H1424.34V30H1426.35ZM1422.29 26.234V26.206L1423.51 24.218C1423.82 23.644 1424.06 23.112 1424.35 22.524H1424.41C1424.36 23.112 1424.34 23.672 1424.34 24.218V26.234H1422.29ZM1434.79 30V28.25H1431.36V28.222L1432.2 27.522C1433.52 26.346 1434.62 25.128 1434.62 23.602C1434.62 21.95 1433.49 20.746 1431.43 20.746C1430.2 20.746 1429.13 21.166 1428.45 21.684L1429.05 23.21C1429.53 22.846 1430.21 22.454 1431 22.454C1432.05 22.454 1432.49 23.042 1432.49 23.784C1432.47 24.848 1431.5 25.87 1429.51 27.648L1428.34 28.712V30H1434.79ZM1441.88 30V27.83H1442.97V26.234H1441.88V20.9H1439.28L1435.83 26.444V27.83H1439.87V30H1441.88ZM1437.82 26.234V26.206L1439.04 24.218C1439.35 23.644 1439.59 23.112 1439.88 22.524H1439.94C1439.89 23.112 1439.87 23.672 1439.87 24.218V26.234H1437.82Z"
          fill="#60FD00"/>
    <path class="stroke" d="M1831.65 20.9H1826.63L1826.03 25.674C1826.41 25.618 1826.76 25.59 1827.26 25.59C1829.08 25.59 1829.83 26.164 1829.83 27.102C1829.83 28.068 1828.89 28.488 1828.01 28.488C1827.18 28.488 1826.35 28.236 1825.95 28.04L1825.57 29.636C1826.07 29.902 1827 30.154 1828.1 30.154C1830.55 30.154 1832.01 28.656 1832.01 26.962C1832.01 25.898 1831.59 25.142 1830.9 24.68C1830.26 24.218 1829.38 24.022 1828.51 24.022C1828.29 24.022 1828.12 24.022 1827.92 24.05L1828.12 22.65H1831.65V20.9ZM1836.57 30.154C1838.68 30.154 1840.07 29.048 1840.07 27.396C1840.07 26.22 1839.29 25.464 1838.4 25.128V25.086C1839.3 24.638 1839.72 23.868 1839.72 23.084C1839.72 21.978 1838.84 20.746 1836.71 20.746C1834.89 20.746 1833.5 21.768 1833.5 23.308C1833.5 24.106 1833.94 24.848 1834.82 25.296V25.338C1833.83 25.772 1833.2 26.528 1833.2 27.62C1833.2 28.852 1834.26 30.154 1836.57 30.154ZM1836.65 28.684C1835.86 28.684 1835.35 28.068 1835.37 27.41C1835.37 26.752 1835.77 26.248 1836.47 26.052C1837.31 26.276 1837.9 26.752 1837.9 27.55C1837.9 28.194 1837.41 28.684 1836.65 28.684ZM1836.61 22.188C1837.4 22.188 1837.72 22.748 1837.72 23.308C1837.72 23.882 1837.28 24.33 1836.79 24.47C1836.07 24.246 1835.51 23.854 1835.51 23.238C1835.51 22.664 1835.88 22.188 1836.61 22.188ZM1844.43 20.746C1842.08 20.746 1840.96 22.832 1840.96 25.464C1840.97 28.04 1842.01 30.154 1844.36 30.154C1846.69 30.154 1847.82 28.222 1847.82 25.408C1847.82 22.916 1846.87 20.746 1844.43 20.746ZM1844.4 22.356C1845.26 22.356 1845.69 23.42 1845.69 25.436C1845.69 27.508 1845.24 28.544 1844.42 28.544C1843.59 28.544 1843.09 27.55 1843.1 25.464C1843.09 23.35 1843.62 22.356 1844.4 22.356Z"
          fill="#60FD00"/>
    <path class="stroke" d="M778.645 20.9H773.633L773.031 25.674C773.409 25.618 773.759 25.59 774.263 25.59C776.083 25.59 776.825 26.164 776.825 27.102C776.825 28.068 775.887 28.488 775.005 28.488C774.179 28.488 773.353 28.236 772.947 28.04L772.569 29.636C773.073 29.902 773.997 30.154 775.103 30.154C777.553 30.154 779.009 28.656 779.009 26.962C779.009 25.898 778.589 25.142 777.903 24.68C777.259 24.218 776.377 24.022 775.509 24.022C775.285 24.022 775.117 24.022 774.921 24.05L775.117 22.65H778.645V20.9ZM786.789 30V28.25H783.359V28.222L784.199 27.522C785.515 26.346 786.621 25.128 786.621 23.602C786.621 21.95 785.487 20.746 783.429 20.746C782.197 20.746 781.133 21.166 780.447 21.684L781.049 23.21C781.525 22.846 782.211 22.454 782.995 22.454C784.045 22.454 784.493 23.042 784.493 23.784C784.465 24.848 783.499 25.87 781.511 27.648L780.335 28.712V30H786.789Z"
          fill="#FF0000"/>
    <path class="stroke" d="M127.241 30.126C127.479 30.14 127.843 30.154 128.207 30.126C129.621 30.07 130.811 29.636 131.679 28.852C132.673 27.942 133.275 26.556 133.275 24.666C133.275 22.538 132.169 20.746 129.831 20.746C127.829 20.746 126.401 22.244 126.401 24.022C126.401 25.786 127.703 26.864 129.243 26.864C130.069 26.864 130.657 26.626 131.063 26.206L131.105 26.22C130.937 26.906 130.545 27.494 129.957 27.9C129.467 28.236 128.809 28.418 128.165 28.46C127.745 28.488 127.507 28.488 127.241 28.46V30.126ZM129.775 22.3C130.741 22.3 131.105 23.252 131.105 24.218C131.105 24.484 131.063 24.624 130.993 24.75C130.797 25.072 130.391 25.352 129.817 25.352C128.949 25.352 128.529 24.68 128.529 23.896C128.515 22.944 129.047 22.3 129.775 22.3ZM137.569 30.154C139.683 30.154 141.069 29.048 141.069 27.396C141.069 26.22 140.285 25.464 139.403 25.128V25.086C140.299 24.638 140.719 23.868 140.719 23.084C140.719 21.978 139.837 20.746 137.709 20.746C135.889 20.746 134.503 21.768 134.503 23.308C134.503 24.106 134.937 24.848 135.819 25.296V25.338C134.825 25.772 134.195 26.528 134.195 27.62C134.195 28.852 135.259 30.154 137.569 30.154ZM137.653 28.684C136.855 28.684 136.351 28.068 136.365 27.41C136.365 26.752 136.771 26.248 137.471 26.052C138.311 26.276 138.899 26.752 138.899 27.55C138.899 28.194 138.409 28.684 137.653 28.684ZM137.611 22.188C138.395 22.188 138.717 22.748 138.717 23.308C138.717 23.882 138.283 24.33 137.793 24.47C137.065 24.246 136.505 23.854 136.505 23.238C136.505 22.664 136.883 22.188 137.611 22.188Z"
          fill="#60FD00"/>
    <path class="stroke" d="M373.196 21L378.392 30H368L373.196 21Z" fill="#60FD00"/>
    <path class="stroke" d="M1409.2 21L1414.39 30H1404L1409.2 21Z" fill="#60FD00"/>
    <path class="stroke" d="M1814.2 21L1819.39 30H1809L1814.2 21Z" fill="#60FD00"/>
    <path class="stroke" d="M761.196 30L766.392 21H756L761.196 30Z" fill="#FF0000"/>
    <path class="stroke" d="M115.196 21L120.392 30H110L115.196 21Z" fill="#60FD00"/>
    <path class="line-path dashed" d="M1 299C21.5 279.333 64.3 239 71.5 235C80.5 230 93.5 224 112.5 235C131.5 246 151 232 155 228C159 224 191 197 196 195C201 193 218 192.5 224 189.5C230 186.5 257.5 155.5 264 150C270.5 144.5 279.5 138.5 309.5 140.5C339.5 142.5 341 124.5 363.5 127C386 129.5 397.5 142 425 150.5C452.5 159 455.5 171 469.5 175.5C483.5 180 542 164.5 553.5 171.5C565 178.5 570 190.5 579.5 221C589 251.5 592.5 260.5 599 266.5C605.5 272.5 623.5 277 653 261.5C682.5 246 704 242.5 710 243C716 243.5 727.5 246 754.5 265.5C781.5 285 799.5 277 805.5 273.5C811.5 270 852.5 247 860.5 243.5C868.5 240 876.5 231.5 882 221.5C887.5 211.5 895 197 908 195C921 193 936 199.5 958.5 202C981 204.5 987.5 184 1010 189.5C1032.5 195 1035.5 216 1051.5 221C1067.5 226 1075.5 222 1084.5 221C1093.5 220 1102.5 218.5 1119.5 238C1136.5 257.5 1168 240.5 1172 235.5C1176 230.5 1197.5 217.5 1201 214C1204.5 210.5 1211 198 1216 184.5C1221 171 1245 109 1256.5 100.5C1268 92 1295 83 1301.5 80C1308 77 1329 64.5 1341 66C1353 67.5 1358 69.5001 1390 90.5001C1422 111.5 1478.5 143 1495 148.5C1511.5 154 1582 132.5 1612.5 137.5C1643 142.5 1645.5 144.5 1657 138.5C1668.5 132.5 1685.5 94.0001 1692.5 88.5001C1699.5 83.0001 1712 78.5001 1720.5 77.5001C1729 76.5001 1752 71.5001 1757 66.5001C1762 61.5001 1791.5 18.5001 1801.5 14.0001C1811.5 9.50005 1820 6.50005 1848.5 17.5001C1853.5 18.6667 1865.8 19.5 1875 13.5C1884.2 7.5 1896.83 2.66667 1902 1"
          stroke="#FFCB00" stroke-width="1.5" stroke-dasharray="7 7"/>
    <path class="line-path" d="M2 274.782C24.3333 272.449 71.2 266.982 80 263.782C91 259.782 120.5 238.282 124 234.782C127.5 231.282 155 213.282 160.5 212.282C166 211.282 174 207.282 207 207.782C240 208.282 248 201.782 257.5 196.282C267 190.782 321.5 121.782 359 123.282C396.5 124.782 413.5 145.282 429.5 162.782C445.5 180.282 465.5 189.782 474.5 191.282C483.5 192.782 542.5 194.782 556.5 196.282C570.5 197.782 601.5 194.782 613 202.782C624.5 210.782 663 240.782 675.5 251.282C688 261.782 729.5 298.282 741 298.782C752.5 299.282 820.5 287.282 824.5 284.782C828.5 282.282 840.5 275.282 844 271.782C847.5 268.282 855 257.282 856.5 244.782C858 232.282 873.5 213.782 884 209.782C894.5 205.782 919 198.282 950 209.782C981 221.282 999.5 215.282 1005.5 214.782C1011.5 214.282 1066 200.782 1077 202.282C1088 203.782 1111 211.782 1139.5 220.782C1168 229.782 1184.5 227.782 1191.5 223.782C1198.5 219.782 1209.5 215.782 1219 203.782C1228.5 191.782 1267 136.282 1276.5 130.282C1286 124.282 1328.5 105.282 1333 102.782C1337.5 100.282 1382 78.7818 1401 82.7818C1420 86.7818 1425 88.2818 1461 115.782C1497 143.282 1511.5 159.782 1532.5 159.782C1553.5 159.782 1644.5 117.782 1651 114.782C1657.5 111.782 1679.5 110.782 1693.5 108.782C1707.5 106.782 1721 98.7818 1726 93.2818C1731 87.7818 1758 40.7818 1770.5 33.2818C1783 25.7818 1802 13.7818 1846.5 30.2818C1882.1 43.4818 1898.67 38.1151 1902.5 33.7817"
          stroke="#8000FF" stroke-width="4"/>
</svg>
