<svg width="1139" height="442" viewBox="0 0 1139 442" fill="none" xmlns="http://www.w3.org/2000/svg">
<path d="M-12 258C-10.1611 267.167 -3.17316 285.7 10.0671 286.5C26.6174 287.5 49.1861 268 58.2135 272.5C67.241 277 82.2867 291 91.3142 291.5C100.342 292 135.448 271 140.965 266.5C146.482 262 161.026 244.5 169.051 247C177.075 249.5 200.647 256 204.157 263C207.668 270 209.173 286.5 215.191 293C221.209 299.5 324.022 438.5 334.052 437C344.083 435.5 363.642 418 372.67 405.5C381.697 393 419.813 345.5 433.354 350C446.895 354.5 444.889 360 463.947 357C483.005 354 484.008 351.5 493.537 357C503.066 362.5 541.684 403.5 555.726 401C569.769 398.5 573.28 388 573.28 378C573.28 368 582.809 311.5 587.322 307.5C591.836 303.5 630.955 277 644.496 269.5C658.038 262 682.612 249.5 685.12 242.5C687.628 235.5 693.144 146 696.655 138C700.166 130 751.823 36.5001 762.355 24.0001C772.887 11.5001 777.401 1.50005 790.44 6.00005C803.48 10.5001 821.535 15 830.562 22C839.59 29 852.629 44 861.155 43.5C869.681 43 870.684 39 880.715 43.5C890.745 48 890.244 56.5 899.271 57.5C908.299 58.5 924.849 48.5 931.87 51C938.892 53.5 955.943 79.5 964.469 81.5C972.995 83.5 992.555 77.5 999.075 81C1005.59 84.5 1028.66 119.5 1037.19 123C1045.72 126.5 1076.31 127.5 1079.82 124.5C1082.63 122.1 1094.36 106.5 1099.88 99" stroke="#343A59" stroke-width="8"/>
<path opacity="0.3" d="M1100.38 133C1121.71 133 1139 115.763 1139 94.5C1139 73.237 1121.71 56 1100.38 56C1079.05 56 1061.77 73.237 1061.77 94.5C1061.77 115.763 1079.05 133 1100.38 133Z" fill="#FF0000"/>
<path opacity="0.3" d="M1099.88 125C1116.5 125 1129.97 111.569 1129.97 95C1129.97 78.4315 1116.5 65 1099.88 65C1083.26 65 1069.79 78.4315 1069.79 95C1069.79 111.569 1083.26 125 1099.88 125Z" fill="#FF0000"/>
<path opacity="0.3" d="M1099.88 116C1111.51 116 1120.94 106.374 1120.94 94.5C1120.94 82.6259 1111.51 73 1099.88 73C1088.25 73 1078.82 82.6259 1078.82 94.5C1078.82 106.374 1088.25 116 1099.88 116Z" fill="#FF0000"/>
<path d="M1100.38 107C1107.31 107 1112.92 101.404 1112.92 94.5C1112.92 87.5964 1107.31 82 1100.38 82C1093.46 82 1087.84 87.5964 1087.84 94.5C1087.84 101.404 1093.46 107 1100.38 107Z" fill="#FF0000"/>
</svg>
