<svg width="40" height="35" viewBox="0 0 40 35" fill="none" xmlns="http://www.w3.org/2000/svg">
<path d="M-7.549e-07 3.17786e-07L16.1127 1.7264e-06L16.1127 13.8013C16.1127 19.3954 14.7981 24.1062 12.169 27.9338C9.46479 31.7613 5.40845 34.1167 -3.8147e-06 35L-3.17764e-06 27.7129C4.80751 26.3144 7.32395 22.7077 7.5493 16.8927L-2.23171e-06 16.8927L-7.549e-07 3.17786e-07ZM23.8873 2.40608e-06L40 3.8147e-06L40 13.8013C40 19.3954 38.6854 24.1062 36.0563 27.9338C33.3521 31.7613 29.2958 34.1167 23.8873 35L23.8873 27.7129C28.6948 26.3144 31.2113 22.7077 31.4366 16.8927L23.8873 16.8927L23.8873 2.40608e-06Z" fill="#6E7797"/>
</svg>
