<svg width="1221" height="117" viewBox="0 0 1221 117" fill="none" xmlns="http://www.w3.org/2000/svg">
    <path d="M0.5 68.0001C7.33333 65.6667 21.8 60.6 25 59C29 57 53.5 43 55 42.5C56.5 42 68.5 36 70.5 34.5C72.5 33 84 18 85 17.5C86 17 95 5.50005 97 4.50005C99 3.50005 104 5.04404e-05 108.5 1.00005C113 2.00005 118 4.5 128.5 14C136.9 21.6 164.333 45.1667 177 56C179.167 57.6667 184.5 60.9 188.5 60.5C193.5 60 229.5 51 231 50.5C232.5 50 243 46.5 247 48.5C251 50.5 255 52 262.5 62C270 72 279.5 71 281 71C282.5 71 289 68.5 292 65C295 61.5 303.5 60 310.5 63C317.5 66 330.5 64.5 335.5 67.5C340.5 70.5 351 81 352.5 82.5C354 84 375 105 378 106.5C381 108 406.5 116.5 411.5 115.5C416.5 114.5 419.5 114 423.5 110C427.5 106 455.5 84.5 459 84C462.5 83.5 472.5 83 487.5 83.5C502.5 84 529 85.5 534 83.5C539 81.5 540.5 81.5 548 75C555.5 68.5 579 48.5 586.5 47.5C594 46.5 602.5 49.5 609.5 50.5C616.5 51.5 665 62 673 61.5C681 61 749.5 12.5 794.5 13.5C816.5 13.9889 874 58 880.5 58C887 58 891.5 56.5 899 51C906.5 45.5 922 46 926.5 48C931 50 955.5 65 973 78.5C990.5 92 995.5 92 996.5 92.5C997.5 93 1025 86.5 1029.5 84.5C1034 82.5 1046.5 80 1049.5 80.5C1052.5 81 1055 80 1066 89C1077 98 1095.5 110 1100 109.5C1104.5 109 1140 103.5 1143.5 99.5C1147 95.5 1149 95 1153.5 77.5C1158 60 1178.5 66 1190 63.5C1199.2 61.5 1214.17 60 1220.5 59.5"
          stroke="#E542FF" stroke-width="1.5"/>
</svg>
