<svg width="49" height="49" viewBox="0 0 49 49" fill="none" xmlns="http://www.w3.org/2000/svg">
<circle cx="24.5" cy="24.5" r="24" fill="black" stroke="url(#paint0_linear_207_1896)"/>
<path d="M21.1599 23.4642C20.8853 23.1896 20.5128 23.0353 20.1245 23.0353C19.7361 23.0353 19.3636 23.1896 19.089 23.4642C18.8144 23.7388 18.6602 24.1113 18.6602 24.4996C18.6602 24.888 18.8144 25.2605 19.089 25.5351L23.464 29.9101C23.6003 30.0452 23.7619 30.1522 23.9396 30.2247C24.1173 30.2973 24.3075 30.3341 24.4995 30.333C24.6991 30.3266 24.8953 30.2794 25.0759 30.1941C25.2566 30.1088 25.4177 29.9873 25.5495 29.8371L35.7578 18.1705C35.9935 17.8778 36.1072 17.5055 36.075 17.1311C36.0429 16.7567 35.8676 16.4092 35.5855 16.1609C35.3034 15.9127 34.9363 15.7829 34.5609 15.7986C34.1855 15.8144 33.8306 15.9745 33.5703 16.2455L24.4995 26.7455L21.1599 23.4642Z" fill="url(#paint1_linear_207_1896)"/>
<path d="M37.6248 23.0415C37.238 23.0415 36.8671 23.1952 36.5936 23.4686C36.3201 23.7421 36.1664 24.1131 36.1664 24.4998C36.1664 27.594 34.9373 30.5615 32.7493 32.7494C30.5614 34.9373 27.594 36.1665 24.4998 36.1665C22.1957 36.1655 19.9436 35.4822 18.0273 34.2029C16.1111 32.9236 14.6165 31.1056 13.7321 28.978C12.8477 26.8505 12.6131 24.5087 13.0578 22.248C13.5025 19.9873 14.6067 17.9089 16.231 16.2748C17.3112 15.1802 18.5989 14.312 20.0187 13.721C21.4385 13.1301 22.9619 12.8282 24.4998 12.8332C25.4323 12.839 26.3614 12.9466 27.2706 13.154C27.4609 13.2129 27.6612 13.2321 27.8592 13.2106C28.0571 13.1891 28.2486 13.1272 28.4218 13.0288C28.595 12.9305 28.7462 12.7977 28.8661 12.6387C28.9859 12.4796 29.072 12.2977 29.1189 12.1042C29.1658 11.9106 29.1725 11.7095 29.1387 11.5132C29.1049 11.317 29.0312 11.1297 28.9223 10.963C28.8133 10.7963 28.6714 10.6536 28.5052 10.5439C28.339 10.4341 28.1521 10.3596 27.956 10.3248C26.8231 10.0583 25.6636 9.92133 24.4998 9.9165C21.6186 9.93147 18.8064 10.7996 16.4181 12.4112C14.0298 14.0229 12.1724 16.3058 11.0804 18.9721C9.98828 21.6383 9.71046 24.5683 10.2819 27.3922C10.8534 30.2162 12.2486 32.8076 14.2914 34.8394C16.9991 37.5483 20.6697 39.0742 24.4998 39.0832C28.3675 39.0832 32.0768 37.5467 34.8117 34.8118C37.5466 32.0769 39.0831 28.3676 39.0831 24.4998C39.0831 24.1131 38.9295 23.7421 38.656 23.4686C38.3825 23.1952 38.0115 23.0415 37.6248 23.0415Z" fill="url(#paint2_linear_207_1896)"/>
<defs>
<linearGradient id="paint0_linear_207_1896" x1="49" y1="49" x2="0" y2="49" gradientUnits="userSpaceOnUse">
<stop stop-color="#DE22E2"/>
<stop offset="1" stop-color="#FF2121"/>
</linearGradient>
<linearGradient id="paint1_linear_207_1896" x1="36.0804" y1="30.333" x2="18.6602" y2="30.333" gradientUnits="userSpaceOnUse">
<stop stop-color="#DE22E2"/>
<stop offset="1" stop-color="#FF2121"/>
</linearGradient>
<linearGradient id="paint2_linear_207_1896" x1="39.0831" y1="39.0832" x2="9.99219" y2="39.0832" gradientUnits="userSpaceOnUse">
<stop stop-color="#DE22E2"/>
<stop offset="1" stop-color="#FF2121"/>
</linearGradient>
</defs>
</svg>
