<svg width="166" height="66" viewBox="0 0 166 66" fill="none" xmlns="http://www.w3.org/2000/svg">
<path d="M81.7287 41.453V31.9444H43.9206V53.0898C43.7395 53.5199 43.4678 53.8822 43.1509 54.1991C42.8113 54.4029 42.4264 54.6746 42.0189 54.9462C41.5661 55.15 41.0681 55.3311 40.4568 55.4896C27.6654 58.7497 15.9608 61.9419 3.16942 65.202C2.76191 65.3152 1.29034 65.7453 0.633789 65.9943C1.0413 65.9943 1.47144 65.9943 1.74312 65.9943C11.4781 65.9943 21.2132 66.017 30.9255 65.9717C31.0161 65.9717 31.1066 65.9717 31.1972 65.9491H70.8164L81.7514 65.9264L81.7287 57.0744C75.05 57.0744 68.4619 57.0064 61.8738 57.0064V53.452C68.5525 53.452 75.0953 53.452 81.7287 53.452V44.6226H61.8059C61.8512 43.7849 61.7606 42.2907 61.8059 41.453H81.7287Z" fill="#FF0000"/>
<path d="M77.3141 0.022644H0C0.860304 0.407517 1.15462 0.611273 1.47157 0.679192C15.0327 4.09777 28.5711 7.51634 42.1322 10.867C43.6264 11.2292 44.0566 11.8405 44.034 13.38C43.9434 20.4888 43.9887 22.4132 43.9887 29.6578H81.7288C81.7288 19.5832 81.7288 0.022644 81.7288 0.022644H77.3141ZM64.0247 19.8096H61.8287V10.0067H64.0247V19.8096Z" fill="#FF0000"/>
<path d="M117.975 0.0226392H83.3135V29.6805C89.2224 29.6805 95.0181 29.7258 100.95 29.7258V25.0167H120.963C120.963 22.9112 120.963 21.0095 120.963 19.2663H121.008C121.008 17.523 121.008 16.6854 121.008 16.3231C121.008 16.0515 120.986 15.2817 120.963 13.3573C120.94 11.8179 121.393 11.2066 122.865 10.8444C136.449 7.4937 143.331 5.68253 156.892 2.26396C157.209 2.1734 163.548 0.498071 165.02 0L117.975 0.0226392ZM103.236 17.2287H100.972V9.98405H103.236V17.2287Z" fill="#FF0000"/>
<path d="M122.887 55.0594C121.665 54.7651 121.144 54.2897 121.008 53.2483V50.124C121.008 49.8297 121.008 49.6712 121.031 49.558C121.031 49.1958 121.031 48.3581 121.031 46.5922V31.7633H106.587V40.7286C104.866 38.442 102.014 33.9141 100.723 31.8086H96.9199C96.9199 31.8086 86.4377 31.6954 83.3135 31.6954V65.8811H100.293C100.293 62.7116 100.135 59.5874 100.135 55.9877C102.217 59.2025 103.961 61.9419 105.795 64.636C106.112 65.0888 106.451 65.4963 106.836 65.8811C109.915 65.9491 114.307 65.9038 118.02 65.8811V65.9264H165.065C164.205 65.5416 163.91 65.3378 163.593 65.2699C149.987 61.8739 136.449 58.4327 122.887 55.0594Z" fill="#FF0000"/>
<path d="M38.1474 34.548C39.0976 34.548 39.868 33.3114 39.868 31.786C39.868 30.2605 39.0976 29.0239 38.1474 29.0239C37.1971 29.0239 36.4268 30.2605 36.4268 31.786C36.4268 33.3114 37.1971 34.548 38.1474 34.548Z" fill="#FF0000"/>
<path d="M126.85 34.548C127.8 34.548 128.57 33.3114 128.57 31.786C128.57 30.2605 127.8 29.0239 126.85 29.0239C125.899 29.0239 125.129 30.2605 125.129 31.786C125.129 33.3114 125.899 34.548 126.85 34.548Z" fill="#FF0000"/>
</svg>
