<svg width="1769" height="419" viewBox="0 0 1769 419" fill="none" xmlns="http://www.w3.org/2000/svg">
    <path d="M43.2669 121H40.2513V119.632H43.2805C44.5302 119.632 45.7799 119.632 47.0295 119.632V121C45.7889 121 44.5347 121 43.2669 121ZM33.446 121H26.6542V119.632H33.446V121ZM19.8624 121H13.0706V119.632H19.8624V121ZM6.27883 121H2V119.632H6.29241L6.27883 121ZM1767.73 120.918L1761.07 119.632L1761.32 118.265L1768 119.509L1767.73 120.918ZM904.832 120.685H904.424V119.318H904.818H907.236L911.203 119.236V120.603L907.236 120.685H904.832ZM53.8621 120.549L53.7534 119.181C55.9811 118.99 58.2496 118.744 60.4637 118.443L60.6403 119.81C58.4126 120.125 56.1305 120.371 53.8757 120.562L53.8621 120.549ZM897.606 120.48C895.337 120.357 893.055 120.166 890.814 119.92L890.963 118.552C893.191 118.798 895.459 118.99 897.755 119.113L897.606 120.48ZM918.062 120.48V119.113L924.854 118.976V120.344L918.062 120.48ZM931.646 120.22V118.853L938.438 118.716V120.084L931.646 120.22ZM945.23 119.961V118.593L952.021 118.456V119.824L945.23 119.961ZM958.813 119.701V118.333L965.605 118.196V119.564L958.813 119.701ZM972.397 119.427V118.06L979.189 117.923V119.291L972.397 119.427ZM985.98 119.154V117.786L992.772 117.649V119.017L985.98 119.154ZM883.913 119.044L877.122 118.073L877.312 116.706L884.104 117.677L883.913 119.044ZM999.577 118.88V117.513L1006.37 117.376V118.744L999.577 118.88ZM67.2419 118.73L66.9838 117.362C69.1843 116.938 71.412 116.446 73.5854 115.913L73.9114 117.28C71.8603 117.786 69.619 118.265 67.3913 118.702L67.2419 118.73ZM1013.17 118.607V117.239L1019.97 117.102V118.47L1013.17 118.607ZM1754.23 118.443L1747.54 117.198L1747.79 115.831L1754.47 117.075L1754.23 118.443ZM1026.93 118.265V116.897L1033.73 116.76V118.128L1026.93 118.265ZM1040.52 117.978V116.61L1047.31 116.473V117.841L1040.52 117.978ZM1054.1 117.69V116.323L1060.89 116.172V117.54L1054.1 117.69ZM1067.69 117.39V116.022L1074.48 115.872V117.239L1067.69 117.39ZM1081.27 117.089V115.721L1088.06 115.571V116.938L1081.27 117.089ZM870.547 117.089L863.755 116.118L863.945 114.75L870.737 115.721L870.547 117.089ZM1094.96 116.897V115.53L1101.75 115.366V116.733L1094.96 116.897ZM1108.54 116.569V115.201L1115.34 115.037V116.405L1108.54 116.569ZM1122.13 116.227V114.86L1128.92 114.668V116.036L1122.13 116.227ZM1740.97 115.981L1734.29 114.737L1734.53 113.369L1741.21 114.613L1740.97 115.981ZM1135.78 115.817V114.449C1139.56 114.326 1141.85 114.217 1142.57 114.135L1142.72 115.502C1141.96 115.53 1139.71 115.625 1135.83 115.762L1135.78 115.817ZM80.6489 115.42L80.255 114.053C82.4012 113.396 84.5609 112.685 86.6664 111.906L87.1282 113.191C84.9956 114.025 82.8222 114.764 80.6489 115.42ZM857.167 115.147L850.375 114.176L850.566 112.808L857.357 113.779L857.167 115.147ZM1727.67 113.41L1720.99 112.165L1721.23 110.798L1727.91 112.042L1727.67 113.41ZM843.72 113.205L836.928 112.234L837.118 110.866L843.91 111.837L843.72 113.205ZM1149.12 112.453L1148.52 111.222L1154.62 108.186L1155.23 109.417L1149.12 112.453ZM830.272 111.277L823.48 110.306L823.67 108.938L830.462 109.909L830.272 111.277ZM1714.32 110.907L1707.63 109.663L1707.88 108.295L1714.56 109.54L1714.32 110.907ZM93.4718 110.716L92.942 109.458C95.0067 108.569 97.0171 107.625 99.0818 106.627L99.6795 107.858C97.6555 108.883 95.5636 109.841 93.4853 110.729L93.4718 110.716ZM816.824 109.348L810.032 108.377L810.222 107.01L817.014 107.981L816.824 109.348ZM1700.97 108.418L1694.28 107.174L1694.53 105.806L1701.21 107.051L1700.97 108.418ZM803.431 107.406L796.639 106.435L796.829 105.068L803.553 106.039L803.431 107.406ZM1161.37 106.353L1160.76 105.136L1166.85 102.073L1167.46 103.29L1161.37 106.353ZM1687.67 105.902L1680.98 104.657L1681.23 103.29L1687.91 104.534L1687.67 105.902ZM789.983 105.464L783.191 104.493L783.381 103.126L790.173 104.097L789.983 105.464ZM105.778 104.671L105.113 103.481C107.069 102.374 109.025 101.211 110.913 99.994L111.647 101.143C109.691 102.374 107.707 103.563 105.738 104.685L105.778 104.671ZM776.535 103.536L769.743 102.565L769.934 101.197L776.657 102.168L776.535 103.536ZM1674.3 103.413L1667.62 102.168L1667.86 100.801L1674.55 102.045L1674.3 103.413ZM763.087 101.608L756.364 100.637L756.554 99.2691L763.278 100.24L763.087 101.608ZM1660.96 100.924L1654.28 99.6794L1654.52 98.3119L1661.21 99.5564L1660.96 100.924ZM1173.54 100.24L1172.93 99.023L1179 95.9596L1179.61 97.1768L1173.54 100.24ZM749.653 99.6794L742.861 98.7085L743.052 97.3409L749.776 98.3119L749.653 99.6794ZM1647.61 98.4213L1640.93 97.1768L1641.17 95.8092L1647.85 97.0537L1647.61 98.4213ZM736.151 97.7375L732.497 97.2178L729.441 96.8212L729.604 95.4536L732.687 95.8639L736.341 96.3836L736.151 97.7375ZM117.284 97.3819L116.537 96.2468L122.187 92.4586L122.935 93.5937L117.284 97.3819ZM722.704 96.1784C721.481 96.0964 720.254 96.0326 719.022 95.987L715.925 95.8776V94.51L719.022 94.6194C720.263 94.6194 721.499 94.6832 722.731 94.8109L722.704 96.1784ZM1540.01 95.9459C1537.74 95.9459 1535.45 95.8365 1533.22 95.6861L1533.3 94.3185C1535.53 94.4689 1537.8 94.551 1540.09 94.5784L1540.01 95.9459ZM1634.19 95.9459L1627.51 94.7014L1627.75 93.3339L1634.43 94.5784L1634.19 95.9459ZM1546.85 95.9459V94.5784C1549.09 94.4826 1551.36 94.3322 1553.64 94.1134L1553.76 95.481C1551.4 95.604 1549.17 95.7545 1546.85 95.8502V95.9459ZM709.161 95.7408L702.369 95.4947V94.1271L709.161 94.3732V95.7408ZM695.577 95.2485L688.785 95.0023V93.6347L695.577 93.8809V95.2485ZM1526.4 95.1664C1524.16 94.8929 1521.88 94.5647 1519.61 94.1818L1519.84 92.8142C1522.06 93.1971 1524.31 93.5253 1526.52 93.7852L1526.4 95.1664ZM682.007 94.7562L675.215 94.51V93.1424L682.007 93.3886V94.7562ZM1560.44 94.6604L1560.24 93.2928C1562.45 92.9646 1564.69 92.568 1566.9 92.1167L1567.17 93.4843C1564.94 93.8262 1562.67 94.2228 1560.43 94.5647L1560.44 94.6604ZM668.437 94.2638L661.645 94.0176V92.6501L668.437 92.8963V94.2638ZM1185.66 94.2638L1185.05 93.0467L1191.12 89.9696L1191.73 91.1868L1185.66 94.2638ZM654.854 93.6484L648.062 93.4023V92.0347L654.854 92.2808V93.6484ZM1620.84 93.3886L1617.1 92.6911L1614.17 92.1851L1614.38 90.8175L1617.34 91.3372L1621.08 92.0347L1620.84 93.3886ZM641.27 93.1424C639.002 93.0604 636.706 92.9099 634.478 92.7048L634.6 91.3372C636.828 91.5423 639.097 91.6928 641.392 91.7748L641.27 93.1424ZM1512.94 92.7048C1510.73 92.1988 1508.5 91.6244 1506.33 91.009L1506.69 89.6414C1508.84 90.2568 1511.04 90.8175 1513.24 91.3235L1512.94 92.7048ZM1573.8 92.103L1573.58 90.7355C1575.81 90.3799 1578.09 90.079 1580.37 89.8465L1580.51 91.2141C1578.26 91.4876 1576.01 91.7885 1573.81 92.1304L1573.8 92.103ZM627.673 91.8979C625.432 91.5697 623.163 91.1731 620.881 90.7355L621.153 89.3679C623.353 89.8055 625.595 90.2021 627.809 90.5166L627.673 91.8979ZM1607.47 91.2688C1605.26 91.0227 1602.99 90.8449 1600.68 90.7218L1600.75 89.3542C1603.01 89.4773 1605.31 89.6687 1607.54 89.9149L1607.47 91.2688ZM1587.23 90.6944L1587.16 89.3269C1589.35 89.2175 1591.58 89.1628 1593.76 89.1628H1593.98V90.5303H1593.75C1591.6 90.5577 1589.4 90.6124 1587.2 90.7218L1587.23 90.6944ZM128.572 89.7782L127.825 88.6431L133.475 84.8549L134.222 85.99L128.572 89.7782ZM614.293 89.2038C612.817 88.8209 611.35 88.4151 609.892 87.9866L607.732 87.3439L608.112 85.9763L610.272 86.619C611.721 87.0475 613.175 87.4487 614.633 87.8225L614.293 89.2038ZM1499.81 89.0534L1493.3 87.0977L1493.69 85.7301L1500.2 87.6858L1499.81 89.0534ZM1197.79 87.9183L1197.18 86.7011L1203.25 83.6241L1203.86 84.8412L1197.79 87.9183ZM601.226 85.4429L594.706 83.5146L595.086 82.1471L601.606 84.0754L601.226 85.4429ZM1486.81 85.1558L1480.3 83.2001L1480.69 81.8325L1487.2 83.7882L1486.81 85.1558ZM139.9 82.2155L139.153 81.0804L144.804 77.2922L145.551 78.4273L139.9 82.2155ZM1209.96 81.7915L1209.35 80.5744L1215.42 77.4973L1216.03 78.7144L1209.96 81.7915ZM588.199 81.5864L581.679 79.6581L582.059 78.2905L588.579 80.2188L588.199 81.5864ZM1473.85 81.2308L1467.34 79.2751L1467.74 77.9076L1474.24 79.8632L1473.85 81.2308ZM575.227 77.7298L568.707 75.8015L569.087 74.4339L575.607 76.3622L575.227 77.7298ZM1460.88 77.3195L1454.37 75.3639L1454.76 73.9963L1461.27 75.9519L1460.88 77.3195ZM1222.2 75.6237L1221.59 74.4066L1227.66 71.3295L1228.27 72.5467L1222.2 75.6237ZM151.297 74.6254L150.55 73.4903L156.201 69.7021L156.948 70.8372L151.297 74.6254ZM562.227 73.8595L555.707 71.9312L556.087 70.5637L562.608 72.492L562.227 73.8595ZM1447.88 73.3809L1441.37 71.4253L1441.76 70.0577L1448.27 72.0133L1447.88 73.3809ZM549.214 69.9893L542.694 68.061L543.074 66.6934L549.594 68.6217L549.214 69.9893ZM1434.86 69.4559L1428.27 67.5276L1428.67 66.1601L1435.18 68.1157L1434.86 69.4559ZM1234.37 69.4559L1233.76 68.2388L1239.83 65.1618L1240.44 66.3789L1234.37 69.4559ZM162.626 67.0353L161.879 65.9002L167.529 62.112L168.276 63.2471L162.626 67.0353ZM536.174 66.1464L529.654 64.2181L530.034 62.8505L536.554 64.7788L536.174 66.1464ZM1421.82 65.5583L1415.32 63.6027L1415.71 62.2351L1422.22 64.1907L1421.82 65.5583ZM1246.39 63.3155L1245.78 62.0984L1251.85 59.0213L1252.46 60.2385L1246.39 63.3155ZM523.039 62.3172L516.518 60.3889L516.899 59.0213L523.419 60.9496L523.039 62.3172ZM1408.69 61.6607L1402.18 59.7051L1402.57 58.3375L1409.08 60.2931L1408.69 61.6607ZM173.805 59.4589L173.058 58.3239L178.709 54.5356L179.456 55.6708L173.805 59.4589ZM509.998 58.4332L503.478 56.505L503.859 55.1374L510.379 57.0657L509.998 58.4332ZM1395.65 57.7221L1389.14 55.7665L1389.53 54.3989L1396.04 56.3545L1395.65 57.7221ZM1258.45 57.134L1257.84 55.9169L1263.91 52.8399L1264.52 54.0707L1258.45 57.134ZM496.89 54.5767L490.37 52.6484L490.75 51.2808L497.271 53.2091L496.89 54.5767ZM1382.61 53.7971L1376.1 51.8415L1376.49 50.4739L1383 52.4296L1382.61 53.7971ZM185.107 51.8825L184.359 50.7475L190.01 46.9592L190.757 48.0944L185.107 51.8825ZM1270.71 51.2535L1270.18 49.9953C1272.25 49.0927 1274.39 48.2311 1276.52 47.4516L1276.99 48.7371C1274.9 49.4619 1272.8 50.3098 1270.71 51.2535ZM483.918 50.7748L477.398 48.8465L477.778 47.4789L484.298 49.4072L483.918 50.7748ZM1369.65 49.9406L1363.14 47.9849L1363.54 46.6173L1370.04 48.573L1369.65 49.9406ZM470.905 46.8772L464.385 44.9489L464.765 43.5814L471.285 45.5096L470.905 46.8772ZM1283.41 46.5216L1283.01 45.1541C1285.17 44.4839 1287.39 43.8549 1289.59 43.3078L1289.91 44.6754C1287.73 45.2361 1285.54 45.7831 1283.39 46.508L1283.41 46.5216ZM1356.68 45.9883C1354.52 45.3592 1352.32 44.7711 1350.14 44.2515L1350.45 42.8839C1352.66 43.4036 1354.87 43.9916 1357.06 44.6344L1356.68 45.9883ZM196.422 44.3062L195.675 43.1711L201.325 39.3829L202.072 40.5179L196.422 44.3062ZM1296.51 43.2121L1296.26 41.8445C1298.47 41.4069 1300.74 41.024 1303.05 40.7094L1303.24 42.077C1300.93 42.3916 1298.69 42.7744 1296.51 43.1984V43.2121ZM457.878 43.048L451.358 41.1197L451.738 39.7521L458.259 41.6804L457.878 43.048ZM1343.53 42.8976C1341.33 42.501 1339.09 42.1591 1336.84 41.8719L1337.02 40.5043C1339.28 40.7915 1341.54 41.1334 1343.81 41.5436L1343.53 42.8976ZM1309.88 41.3522L1309.76 39.9846C1312.01 39.7932 1314.31 39.6427 1316.55 39.5743V40.9419C1314.36 40.9829 1312.09 41.1197 1309.87 41.3112L1309.88 41.3522ZM1330.12 41.2017C1327.88 41.0376 1325.61 40.9283 1323.33 40.8872V39.5196C1325.58 39.5196 1327.88 39.6701 1330.12 39.8342V41.2017ZM444.824 39.1641L438.304 37.2358L438.685 35.8682L445.205 37.7965L444.824 39.1641ZM207.696 36.7298L206.949 35.5947L212.6 31.8065L213.347 32.9415L207.696 36.7298ZM431.825 35.3622L425.305 33.4339L425.685 32.0663L432.205 33.9946L431.825 35.3622ZM418.798 31.5056L412.224 29.509L412.604 28.1414L419.124 30.0697L418.798 31.5056ZM219.038 29.1944L218.291 28.0593L223.942 24.2711L224.689 25.4062L219.038 29.1944ZM405.772 27.649L399.252 25.7207L399.632 24.3532L406.152 26.2814L405.772 27.649ZM392.745 23.7925L386.225 21.8642L386.605 20.4966L393.125 22.4249L392.745 23.7925ZM230.353 21.6317L229.62 20.4829C231.535 19.2384 233.491 18.035 235.447 16.9135L236.126 18.1033C234.143 19.1564 232.214 20.3325 230.326 21.5633L230.353 21.6317ZM379.773 19.9359L373.253 18.0076L373.633 16.64L380.153 18.5683L379.773 19.9359ZM366.746 16.0793L360.226 14.151L360.606 12.7834L367.126 14.7117L366.746 16.0793ZM242.144 14.8895L241.533 13.6724C243.557 12.6467 245.608 11.6757 247.713 10.7594L248.257 12.0176C246.11 12.8382 244.046 13.8091 242.049 14.8211L242.144 14.8895ZM353.719 12.1544L347.199 10.2261L347.58 8.8585L354.1 10.7868L353.719 12.1544ZM254.559 9.41921L254.084 8.13368C256.217 7.34049 258.39 6.58831 260.536 5.90452L260.944 7.2721C258.729 7.87383 256.529 8.61232 254.423 9.40552L254.559 9.41921ZM340.72 8.31147L334.213 6.38318L334.594 5.0156L341.114 6.94389L340.72 8.31147ZM267.437 5.3575L267.097 3.98992C269.284 3.42921 271.525 2.90953 273.753 2.4719L274.025 3.83948C271.688 4.27711 269.474 4.75575 267.314 5.34381L267.437 5.3575ZM327.666 4.67371C325.493 4.1677 323.265 3.7164 321.051 3.30613L321.282 1.93855C323.523 2.33515 325.778 2.80012 327.965 3.30613L327.666 4.67371ZM280.681 2.70439L280.49 1.33681C282.732 1.00859 285.014 0.735081 287.282 0.529944L287.404 1.89752C285.027 2.10266 282.772 2.3625 280.558 2.69072L280.681 2.70439ZM314.354 2.32147C312.14 2.04795 309.872 1.82914 307.562 1.67871L307.657 0.311126C309.926 0.46156 312.208 0.680367 314.449 0.967559L314.354 2.32147ZM294.047 1.45989V0.0923088C296.302 0.010254 298.597 -0.0170942 300.839 0.0102574V1.37784C298.502 1.35049 296.247 1.37783 294.047 1.45989Z"
          fill="white"/>
    <path opacity="0.3"
          d="M1422.5 101C1443.76 101 1461 83.763 1461 62.5C1461 41.237 1443.76 24 1422.5 24C1401.24 24 1384 41.237 1384 62.5C1384 83.763 1401.24 101 1422.5 101Z"
          fill="#D51313"/>
    <path opacity="0.3"
          d="M1422 93C1438.57 93 1452 79.5685 1452 63C1452 46.4315 1438.57 33 1422 33C1405.43 33 1392 46.4315 1392 63C1392 79.5685 1405.43 93 1422 93Z"
          fill="#D51313"/>
    <path opacity="0.3"
          d="M1422 84C1433.6 84 1443 74.3741 1443 62.5C1443 50.6259 1433.6 41 1422 41C1410.4 41 1401 50.6259 1401 62.5C1401 74.3741 1410.4 84 1422 84Z"
          fill="#D51313"/>
    <path d="M1422.5 75C1429.4 75 1435 69.4036 1435 62.5C1435 55.5964 1429.4 50 1422.5 50C1415.6 50 1410 55.5964 1410 62.5C1410 69.4036 1415.6 75 1422.5 75Z"
          fill="#D51313"/>
    <path class="line-path" d="M2 312.5C16.1667 321.5 45.3 339.8 48.5 341C52.5 342.5 57 345 66.5 343.5C76 342 111 329 119.5 328C128 327 187.5 327 194.5 326C201.5 325 208.5 321.5 212.5 318.5C216.5 315.5 221.5 306 223.5 298C225.5 290 245 218 245.5 217C245.9 216.2 255 182 259.5 165C261.167 160.333 266.5 150.4 274.5 148C284.5 145 288 142 304.5 148C321 154 387 180.5 390.5 181.5C394 182.5 401 187.5 414.5 183.5C428 179.5 496 140 511.5 139C527 138 537 144.5 543 152.5C549 160.5 554.5 170.5 564.5 173C574.5 175.5 581 174.5 601.5 169C622 163.5 633.5 192.5 637 197.5C640.5 202.5 662.5 257 667.5 261C672.5 265 716.5 307 725.5 310.5C734.5 314 743 313 746.5 312C750 311 768.5 308.5 772.5 307.5C776.5 306.5 787 298 789.5 295.5C792 293 838 250 846 243C854 236 868.5 235.5 872 237C875.5 238.5 904.5 243 911 250C917.5 257 927 274 930.5 283.5C934 293 984.5 398.5 993 408.5C1001.5 418.5 1024 419 1031.5 411.5C1039 404 1070 367 1087 362.5C1104 358 1117.5 365 1141 368.5C1164.5 372 1179 378.5 1191.5 375.5C1204 372.5 1211.5 359.5 1213 353C1214.5 346.5 1231 306.5 1234 303C1237 299.5 1297 234 1301.5 225.5C1306 217 1331 114 1333 113.5C1335 113 1367.5 61.5 1380 56.5C1392.5 51.5 1402.5 50 1418.5 59C1434.5 68 1501.5 110 1517.5 116C1533.5 122 1582.5 103.5 1595.5 108.5C1608.5 113.5 1629 138 1648 159C1667 180 1667 180.5 1676 186C1685 191.5 1708 207 1710 211.5C1711.6 215.1 1748.67 286.667 1767 322"
          stroke="#D51313" stroke-width="4"/>
</svg>
