<svg class="line-dash__cont anim" width="2076" height="408" viewBox="0 0 2076 408" fill="none"
     xmlns="http://www.w3.org/2000/svg">
    <path d="M548.52 404.96H547V408H548.52V404.96Z" fill="#6E7797"/>
    <path d="M2075.59 321.352H2067.99V319.832H2075.59V321.352ZM2060.39 321.352H2052.79V319.832H2060.39V321.352ZM2045.19 321.352H2037.59V319.832H2045.19V321.352ZM2029.99 321.352H2022.39V319.832H2029.99V321.352ZM2014.79 321.352H2007.19V319.832H2014.79V321.352ZM1999.59 321.352H1991.99V319.832H1999.59V321.352ZM1984.39 321.352H1976.78V319.832H1984.39V321.352ZM1969.18 321.352H1961.58V319.832H1969.18V321.352ZM1953.98 321.352H1946.38V319.832H1953.98V321.352ZM1938.78 321.352H1931.18V319.832H1938.78V321.352ZM1923.58 321.352H1915.98V319.832H1923.58V321.352ZM1908.38 321.352H1900.78V319.832H1908.38V321.352ZM1893.18 321.352H1885.58V319.832H1893.18V321.352ZM1877.98 321.352H1870.37V319.832H1877.98V321.352ZM1862.77 321.352H1855.17V319.832H1862.77V321.352ZM1847.57 321.352H1839.97V319.832H1847.57V321.352ZM1832.37 321.352H1824.77V319.832H1832.37V321.352ZM1817.17 321.352H1809.57V319.832H1817.17V321.352ZM1801.97 321.352H1794.37V319.832H1801.97V321.352ZM1786.77 321.352H1779.17V319.832H1786.77V321.352ZM1771.57 321.352H1763.96V319.832H1771.57V321.352ZM1756.36 321.352H1748.76V319.832H1756.36V321.352ZM1741.16 321.352H1733.56V319.832H1741.16V321.352ZM1725.96 321.352H1718.36V319.832H1725.96V321.352ZM1710.76 321.352H1703.16V319.832H1710.76V321.352ZM1695.56 321.352H1687.96V319.832H1695.56V321.352ZM1680.36 321.352H1672.76V319.832H1680.36V321.352ZM1665.16 321.352H1657.56V319.832H1665.16V321.352ZM1649.95 321.352H1642.35V319.832H1649.95V321.352ZM1634.75 321.352H1627.15V319.832H1634.75V321.352ZM1619.55 321.352H1611.95V319.832H1619.55V321.352ZM1604.35 321.352H1596.75V319.832H1604.35V321.352ZM1589.15 321.352H1581.55V319.832H1589.15V321.352ZM1573.95 321.352H1566.35V319.832H1573.95V321.352ZM1558.75 321.352H1551.15V319.832H1558.75V321.352ZM1543.54 321.352H1535.94V319.832H1543.54V321.352ZM1528.34 321.352H1520.74V319.832H1528.34V321.352ZM1513.14 321.352H1505.54V319.832H1513.14V321.352ZM1497.94 321.352H1490.34V319.832H1497.94V321.352ZM1482.74 321.352H1475.14V319.832H1482.74V321.352ZM1467.54 321.352H1459.94V319.832H1467.54V321.352ZM1452.34 321.352H1444.74V319.832H1452.34V321.352ZM1437.13 321.352H1429.53V319.832H1437.13V321.352ZM1421.93 321.352H1414.33V319.832H1421.93V321.352ZM1406.73 321.352H1399.13V319.832H1406.73V321.352ZM1391.53 321.352H1383.93V319.832H1391.53V321.352ZM1376.33 321.352H1368.73V319.832H1376.33V321.352ZM1361.13 321.352H1353.53V319.832H1361.13V321.352ZM1345.93 321.352H1338.33V319.832H1345.93V321.352ZM1330.72 321.352H1323.12V319.832H1330.72V321.352ZM1315.52 321.352H1307.92V319.832H1315.52V321.352ZM1300.32 321.352H1292.72V319.832H1300.32V321.352ZM1285.12 321.352H1277.52V319.832H1285.12V321.352ZM1269.92 321.352H1262.32V319.832H1269.92V321.352ZM1254.72 321.352H1247.12V319.832H1254.72V321.352ZM1239.52 321.352H1231.92V319.832H1239.52V321.352ZM1224.31 321.352H1216.71V319.832H1224.31V321.352ZM1209.11 321.352H1201.51V319.832H1209.11V321.352ZM1193.91 321.352H1186.31V319.832H1193.91V321.352ZM1178.71 321.352H1171.11V319.832H1178.71V321.352ZM1163.51 321.352H1155.91V319.832H1163.51V321.352ZM1148.31 321.352H1140.71V319.832H1148.31V321.352ZM1133.11 321.352H1125.51V319.832H1133.11V321.352ZM1117.9 321.352H1110.3V319.832H1117.9V321.352ZM1102.7 321.352H1095.1V319.832H1102.7V321.352ZM1087.5 321.352H1079.9V319.832H1087.5V321.352ZM1072.3 321.352H1064.7V319.832H1072.3V321.352ZM1057.1 321.352H1049.5V319.832H1057.1V321.352ZM1041.9 321.352H1034.3V319.832H1041.9V321.352ZM1026.7 321.352H1019.1V319.832H1026.7V321.352ZM1011.49 321.352H1003.89V319.832H1011.49V321.352ZM996.293 321.352H988.693V319.832H996.293V321.352ZM981.092 321.352H973.491V319.832H981.092V321.352ZM965.891 321.352H958.29V319.832H965.891V321.352ZM950.689 321.352H943.088V319.832H950.689V321.352ZM935.488 321.352H927.887V319.832H935.488V321.352ZM920.286 321.352H912.686V319.832H920.286V321.352ZM905.085 321.352H897.484V319.832H905.085V321.352ZM889.883 321.352H882.283V319.832H889.883V321.352ZM874.682 321.352H867.081V319.832H874.682V321.352ZM859.481 321.352H851.88V319.832H859.481V321.352ZM844.279 321.352H836.679V319.832H844.279V321.352ZM829.078 321.352H821.477V319.832H829.078V321.352ZM813.876 321.352H806.276V319.832H813.876V321.352ZM798.675 321.352H791.074V319.832H798.675V321.352ZM783.474 321.352H775.873V319.832H783.474V321.352ZM768.272 321.352H760.671V319.832H768.272V321.352ZM753.071 321.352H745.47V319.832H753.071V321.352ZM737.869 321.352H730.269V319.832H737.869V321.352ZM722.668 321.352H715.067V319.832H722.668V321.352ZM707.466 321.352H699.866V319.832H707.466V321.352ZM692.265 321.352H684.664V319.832H692.265V321.352ZM677.064 321.352H669.463V319.832H677.064V321.352ZM661.862 321.352H654.262V319.832H661.862V321.352ZM646.661 321.352H639.06V319.832H646.661V321.352ZM631.459 321.352H623.859V319.832H631.459V321.352ZM616.258 321.352H608.657V319.832H616.258V321.352ZM601.057 321.352H593.456V319.832H601.057V321.352ZM585.855 321.352H578.254V319.832H585.855V321.352ZM570.654 321.352H563.053V319.832H570.654V321.352ZM555.452 321.352H547.852V319.832H555.452V321.352ZM540.251 321.352H532.65V319.832H540.251V321.352ZM525.049 321.352H517.449V319.832H525.049V321.352ZM509.848 321.352H502.247V319.832H509.848V321.352ZM494.647 321.352H487.046V319.832H494.647V321.352ZM479.445 321.352H471.845V319.832H479.445V321.352ZM464.244 321.352H456.643V319.832H464.244V321.352ZM449.042 321.352H441.442V319.832H449.042V321.352ZM433.841 321.352H426.24V319.832H433.841V321.352ZM418.64 321.352H411.039V319.832H418.64V321.352ZM403.438 321.352H395.837V319.832H403.438V321.352ZM388.237 321.352H380.636V319.832H388.237V321.352ZM373.035 321.352H365.435V319.832H373.035V321.352ZM357.834 321.352H350.233V319.832H357.834V321.352ZM342.632 321.352H335.032V319.832H342.632V321.352ZM327.431 321.352H319.83V319.832H327.431V321.352ZM312.23 321.352H304.629V319.832H312.23V321.352ZM297.028 321.352H289.428V319.832H297.028V321.352ZM281.827 321.352H274.226V319.832H281.827V321.352ZM266.625 321.352H259.025V319.832H266.625V321.352ZM251.424 321.352H243.823V319.832H251.424V321.352ZM236.223 321.352H228.622V319.832H236.223V321.352ZM221.021 321.352H213.42V319.832H221.021V321.352ZM205.82 321.352H198.219V319.832H205.82V321.352ZM190.618 321.352H183.018V319.832H190.618V321.352ZM175.417 321.352H167.816V319.832H175.417V321.352ZM160.215 321.352H152.615V319.832H160.215V321.352ZM145.014 321.352H137.413V319.832H145.014V321.352ZM129.813 321.352H122.212V319.832H129.813V321.352ZM114.611 321.352H107.011V319.832H114.611V321.352ZM99.4098 321.352H91.8091V319.832H99.4098V321.352ZM84.2084 321.352H76.6077V319.832H84.2084V321.352ZM69.007 321.352H61.4063V319.832H69.007V321.352ZM53.8055 321.352H46.2048V319.832H53.8055V321.352ZM38.6041 321.352H31.0034V319.832H38.6041V321.352ZM23.4027 321.352H15.802V319.832H23.4027V321.352ZM8.20129 321.352H0.600586V319.832H8.20129V321.352Z"
          fill="#32395E"/>
    <path d="M1879 408H1878V405.892H1879V408ZM1879 403.784H1878V401.676H1879V403.784ZM1879 399.568H1878V397.459H1879V399.568ZM1879 395.351H1878V393.243H1879V395.351ZM1879 391.135H1878V389.027H1879V391.135ZM1879 386.919H1878V384.811H1879V386.919ZM1879 382.703H1878V380.595H1879V382.703ZM1879 378.486H1878V376.378H1879V378.486ZM1879 374.27H1878V372.162H1879V374.27ZM1879 370.054H1878V367.946H1879V370.054ZM1879 365.838H1878V363.73H1879V365.838ZM1879 361.622H1878V359.514H1879V361.622ZM1879 357.405H1878V355.297H1879V357.405ZM1879 353.189H1878V351.081H1879V353.189ZM1879 348.973H1878V346.865H1879V348.973ZM1879 344.757H1878V342.649H1879V344.757ZM1879 340.541H1878V338.432H1879V340.541ZM1879 336.324H1878V334.216H1879V336.324ZM1879 332.108H1878V330H1879V332.108ZM1879 327.892H1878V325.784H1879V327.892ZM1879 323.676H1878V321.568H1879V323.676ZM1879 319.459H1878V317.351H1879V319.459ZM1879 315.243H1878V313.135H1879V315.243ZM1879 311.027H1878V308.919H1879V311.027ZM1879 306.811H1878V304.703H1879V306.811ZM1879 302.595H1878V300.486H1879V302.595ZM1879 298.378H1878V296.27H1879V298.378ZM1879 294.162H1878V292.054H1879V294.162ZM1879 289.946H1878V287.838H1879V289.946ZM1879 285.73H1878V283.622H1879V285.73ZM1879 281.514H1878V279.405H1879V281.514ZM1879 277.297H1878V275.189H1879V277.297ZM1879 273.081H1878V270.973H1879V273.081ZM1879 268.865H1878V266.757H1879V268.865ZM1879 264.649H1878V262.541H1879V264.649ZM1879 260.432H1878V258.324H1879V260.432ZM1879 256.216H1878V254.108H1879V256.216ZM1879 252H1878V249.892H1879V252ZM1879 247.784H1878V245.676H1879V247.784ZM1879 243.568H1878V241.459H1879V243.568ZM1879 239.351H1878V237.243H1879V239.351ZM1879 235.135H1878V233.027H1879V235.135ZM1879 230.919H1878V228.811H1879V230.919ZM1879 226.703H1878V224.595H1879V226.703ZM1879 222.486H1878V220.378H1879V222.486ZM1879 218.27H1878V216.162H1879V218.27ZM1879 214.054H1878V211.946H1879V214.054ZM1879 209.838H1878V207.73H1879V209.838ZM1879 205.622H1878V203.514H1879V205.622ZM1879 201.405H1878V199.297H1879V201.405ZM1879 197.189H1878V195.081H1879V197.189ZM1879 192.973H1878V190.865H1879V192.973ZM1879 188.757H1878V186.649H1879V188.757ZM1879 184.541H1878V182.432H1879V184.541ZM1879 180.324H1878V178.216H1879V180.324ZM1879 176.108H1878V174H1879V176.108ZM1879 171.892H1878V169.784H1879V171.892ZM1879 167.676H1878V165.568H1879V167.676ZM1879 163.459H1878V161.351H1879V163.459ZM1879 159.243H1878V157.135H1879V159.243ZM1879 155.027H1878V152.919H1879V155.027ZM1879 150.811H1878V148.703H1879V150.811ZM1879 146.595H1878V144.486H1879V146.595ZM1879 142.378H1878V140.27H1879V142.378ZM1879 138.162H1878V136.054H1879V138.162ZM1879 133.946H1878V131.838H1879V133.946ZM1879 129.73H1878V127.622H1879V129.73ZM1879 125.514H1878V123.405H1879V125.514ZM1879 121.297H1878V119.189H1879V121.297ZM1879 117.081H1878V114.973H1879V117.081ZM1879 112.865H1878V110.757H1879V112.865ZM1879 108.649H1878V106.541H1879V108.649ZM1879 104.432H1878V102.324H1879V104.432ZM1879 100.216H1878V98.1081H1879V100.216ZM1879 96H1878V93.8919H1879V96ZM1879 91.7838H1878V89.6757H1879V91.7838ZM1879 87.5676H1878V85.4595H1879V87.5676ZM1879 83.3513H1878V81.2432H1879V83.3513ZM1879 79.1351H1878V77.027H1879V79.1351ZM1879 74.9189H1878V72.8108H1879V74.9189ZM1879 70.7027H1878V68.5946H1879V70.7027ZM1879 66.4865H1878V64.3784H1879V66.4865ZM1879 62.2703H1878V60.1622H1879V62.2703ZM1879 58.0541H1878V55.9459H1879V58.0541ZM1879 53.8378H1878V51.7297H1879V53.8378ZM1879 49.6216H1878V47.5135H1879V49.6216ZM1879 45.4054H1878V43.2973H1879V45.4054ZM1879 41.1892H1878V39.0811H1879V41.1892ZM1879 36.973H1878V34.8649H1879V36.973ZM1879 32.7568H1878V30.6486H1879V32.7568ZM1879 28.5405H1878V26.4324H1879V28.5405ZM1879 24.3243H1878V22.2162H1879V24.3243ZM1879 20.1081H1878V18H1879V20.1081Z"
          fill="#6E7797"/>
    <path d="M179 408H178V405.892H179V408ZM179 403.784H178V401.676H179V403.784ZM179 399.568H178V397.459H179V399.568ZM179 395.351H178V393.243H179V395.351ZM179 391.135H178V389.027H179V391.135ZM179 386.919H178V384.811H179V386.919ZM179 382.703H178V380.595H179V382.703ZM179 378.486H178V376.378H179V378.486ZM179 374.27H178V372.162H179V374.27ZM179 370.054H178V367.946H179V370.054ZM179 365.838H178V363.73H179V365.838ZM179 361.622H178V359.514H179V361.622ZM179 357.405H178V355.297H179V357.405ZM179 353.189H178V351.081H179V353.189ZM179 348.973H178V346.865H179V348.973ZM179 344.757H178V342.649H179V344.757ZM179 340.541H178V338.432H179V340.541ZM179 336.324H178V334.216H179V336.324ZM179 332.108H178V330H179V332.108ZM179 327.892H178V325.784H179V327.892ZM179 323.676H178V321.568H179V323.676ZM179 319.459H178V317.351H179V319.459ZM179 315.243H178V313.135H179V315.243ZM179 311.027H178V308.919H179V311.027ZM179 306.811H178V304.703H179V306.811ZM179 302.595H178V300.486H179V302.595ZM179 298.378H178V296.27H179V298.378ZM179 294.162H178V292.054H179V294.162ZM179 289.946H178V287.838H179V289.946ZM179 285.73H178V283.622H179V285.73ZM179 281.514H178V279.405H179V281.514ZM179 277.297H178V275.189H179V277.297ZM179 273.081H178V270.973H179V273.081ZM179 268.865H178V266.757H179V268.865ZM179 264.649H178V262.541H179V264.649ZM179 260.432H178V258.324H179V260.432ZM179 256.216H178V254.108H179V256.216ZM179 252H178V249.892H179V252ZM179 247.784H178V245.676H179V247.784ZM179 243.568H178V241.459H179V243.568ZM179 239.351H178V237.243H179V239.351ZM179 235.135H178V233.027H179V235.135ZM179 230.919H178V228.811H179V230.919ZM179 226.703H178V224.595H179V226.703ZM179 222.486H178V220.378H179V222.486ZM179 218.27H178V216.162H179V218.27ZM179 214.054H178V211.946H179V214.054ZM179 209.838H178V207.73H179V209.838ZM179 205.622H178V203.514H179V205.622ZM179 201.405H178V199.297H179V201.405ZM179 197.189H178V195.081H179V197.189ZM179 192.973H178V190.865H179V192.973ZM179 188.757H178V186.649H179V188.757ZM179 184.541H178V182.432H179V184.541ZM179 180.324H178V178.216H179V180.324ZM179 176.108H178V174H179V176.108ZM179 171.892H178V169.784H179V171.892ZM179 167.676H178V165.568H179V167.676ZM179 163.459H178V161.351H179V163.459ZM179 159.243H178V157.135H179V159.243ZM179 155.027H178V152.919H179V155.027ZM179 150.811H178V148.703H179V150.811ZM179 146.595H178V144.486H179V146.595ZM179 142.378H178V140.27H179V142.378ZM179 138.162H178V136.054H179V138.162ZM179 133.946H178V131.838H179V133.946ZM179 129.73H178V127.622H179V129.73ZM179 125.514H178V123.405H179V125.514ZM179 121.297H178V119.189H179V121.297ZM179 117.081H178V114.973H179V117.081ZM179 112.865H178V110.757H179V112.865ZM179 108.649H178V106.541H179V108.649ZM179 104.432H178V102.324H179V104.432ZM179 100.216H178V98.1081H179V100.216ZM179 96H178V93.8919H179V96ZM179 91.7838H178V89.6757H179V91.7838ZM179 87.5676H178V85.4595H179V87.5676ZM179 83.3513H178V81.2432H179V83.3513ZM179 79.1351H178V77.027H179V79.1351ZM179 74.9189H178V72.8108H179V74.9189ZM179 70.7027H178V68.5946H179V70.7027ZM179 66.4865H178V64.3784H179V66.4865ZM179 62.2703H178V60.1622H179V62.2703ZM179 58.0541H178V55.9459H179V58.0541ZM179 53.8378H178V51.7297H179V53.8378ZM179 49.6216H178V47.5135H179V49.6216ZM179 45.4054H178V43.2973H179V45.4054ZM179 41.1892H178V39.0811H179V41.1892ZM179 36.973H178V34.8649H179V36.973ZM179 32.7568H178V30.6486H179V32.7568ZM179 28.5405H178V26.4324H179V28.5405ZM179 24.3243H178V22.2162H179V24.3243ZM179 20.1081H178V18H179V20.1081Z"
          fill="#6E7797"/>
    <path d="M437 408H436V405.892H437V408ZM437 403.784H436V401.676H437V403.784ZM437 399.568H436V397.459H437V399.568ZM437 395.351H436V393.243H437V395.351ZM437 391.135H436V389.027H437V391.135ZM437 386.919H436V384.811H437V386.919ZM437 382.703H436V380.595H437V382.703ZM437 378.486H436V376.378H437V378.486ZM437 374.27H436V372.162H437V374.27ZM437 370.054H436V367.946H437V370.054ZM437 365.838H436V363.73H437V365.838ZM437 361.622H436V359.514H437V361.622ZM437 357.405H436V355.297H437V357.405ZM437 353.189H436V351.081H437V353.189ZM437 348.973H436V346.865H437V348.973ZM437 344.757H436V342.649H437V344.757ZM437 340.541H436V338.432H437V340.541ZM437 336.324H436V334.216H437V336.324ZM437 332.108H436V330H437V332.108ZM437 327.892H436V325.784H437V327.892ZM437 323.676H436V321.568H437V323.676ZM437 319.459H436V317.351H437V319.459ZM437 315.243H436V313.135H437V315.243ZM437 311.027H436V308.919H437V311.027ZM437 306.811H436V304.703H437V306.811ZM437 302.595H436V300.486H437V302.595ZM437 298.378H436V296.27H437V298.378ZM437 294.162H436V292.054H437V294.162ZM437 289.946H436V287.838H437V289.946ZM437 285.73H436V283.622H437V285.73ZM437 281.514H436V279.405H437V281.514ZM437 277.297H436V275.189H437V277.297ZM437 273.081H436V270.973H437V273.081ZM437 268.865H436V266.757H437V268.865ZM437 264.649H436V262.541H437V264.649ZM437 260.432H436V258.324H437V260.432ZM437 256.216H436V254.108H437V256.216ZM437 252H436V249.892H437V252ZM437 247.784H436V245.676H437V247.784ZM437 243.568H436V241.459H437V243.568ZM437 239.351H436V237.243H437V239.351ZM437 235.135H436V233.027H437V235.135ZM437 230.919H436V228.811H437V230.919ZM437 226.703H436V224.595H437V226.703ZM437 222.486H436V220.378H437V222.486ZM437 218.27H436V216.162H437V218.27ZM437 214.054H436V211.946H437V214.054ZM437 209.838H436V207.73H437V209.838ZM437 205.622H436V203.514H437V205.622ZM437 201.405H436V199.297H437V201.405ZM437 197.189H436V195.081H437V197.189ZM437 192.973H436V190.865H437V192.973ZM437 188.757H436V186.649H437V188.757ZM437 184.541H436V182.432H437V184.541ZM437 180.324H436V178.216H437V180.324ZM437 176.108H436V174H437V176.108ZM437 171.892H436V169.784H437V171.892ZM437 167.676H436V165.568H437V167.676ZM437 163.459H436V161.351H437V163.459ZM437 159.243H436V157.135H437V159.243ZM437 155.027H436V152.919H437V155.027ZM437 150.811H436V148.703H437V150.811ZM437 146.595H436V144.486H437V146.595ZM437 142.378H436V140.27H437V142.378ZM437 138.162H436V136.054H437V138.162ZM437 133.946H436V131.838H437V133.946ZM437 129.73H436V127.622H437V129.73ZM437 125.514H436V123.405H437V125.514ZM437 121.297H436V119.189H437V121.297ZM437 117.081H436V114.973H437V117.081ZM437 112.865H436V110.757H437V112.865ZM437 108.649H436V106.541H437V108.649ZM437 104.432H436V102.324H437V104.432ZM437 100.216H436V98.1081H437V100.216ZM437 96H436V93.8919H437V96ZM437 91.7838H436V89.6757H437V91.7838ZM437 87.5676H436V85.4595H437V87.5676ZM437 83.3513H436V81.2432H437V83.3513ZM437 79.1351H436V77.027H437V79.1351ZM437 74.9189H436V72.8108H437V74.9189ZM437 70.7027H436V68.5946H437V70.7027ZM437 66.4865H436V64.3784H437V66.4865ZM437 62.2703H436V60.1622H437V62.2703ZM437 58.0541H436V55.9459H437V58.0541ZM437 53.8378H436V51.7297H437V53.8378ZM437 49.6216H436V47.5135H437V49.6216ZM437 45.4054H436V43.2973H437V45.4054ZM437 41.1892H436V39.0811H437V41.1892ZM437 36.973H436V34.8649H437V36.973ZM437 32.7568H436V30.6486H437V32.7568ZM437 28.5405H436V26.4324H437V28.5405ZM437 24.3243H436V22.2162H437V24.3243ZM437 20.1081H436V18H437V20.1081Z"
          fill="#6E7797"/>
    <path d="M816 408H815V405.892H816V408ZM816 403.784H815V401.676H816V403.784ZM816 399.568H815V397.459H816V399.568ZM816 395.351H815V393.243H816V395.351ZM816 391.135H815V389.027H816V391.135ZM816 386.919H815V384.811H816V386.919ZM816 382.703H815V380.595H816V382.703ZM816 378.486H815V376.378H816V378.486ZM816 374.27H815V372.162H816V374.27ZM816 370.054H815V367.946H816V370.054ZM816 365.838H815V363.73H816V365.838ZM816 361.622H815V359.514H816V361.622ZM816 357.405H815V355.297H816V357.405ZM816 353.189H815V351.081H816V353.189ZM816 348.973H815V346.865H816V348.973ZM816 344.757H815V342.649H816V344.757ZM816 340.541H815V338.432H816V340.541ZM816 336.324H815V334.216H816V336.324ZM816 332.108H815V330H816V332.108ZM816 327.892H815V325.784H816V327.892ZM816 323.676H815V321.568H816V323.676ZM816 319.459H815V317.351H816V319.459ZM816 315.243H815V313.135H816V315.243ZM816 311.027H815V308.919H816V311.027ZM816 306.811H815V304.703H816V306.811ZM816 302.595H815V300.486H816V302.595ZM816 298.378H815V296.27H816V298.378ZM816 294.162H815V292.054H816V294.162ZM816 289.946H815V287.838H816V289.946ZM816 285.73H815V283.622H816V285.73ZM816 281.514H815V279.405H816V281.514ZM816 277.297H815V275.189H816V277.297ZM816 273.081H815V270.973H816V273.081ZM816 268.865H815V266.757H816V268.865ZM816 264.649H815V262.541H816V264.649ZM816 260.432H815V258.324H816V260.432ZM816 256.216H815V254.108H816V256.216ZM816 252H815V249.892H816V252ZM816 247.784H815V245.676H816V247.784ZM816 243.568H815V241.459H816V243.568ZM816 239.351H815V237.243H816V239.351ZM816 235.135H815V233.027H816V235.135ZM816 230.919H815V228.811H816V230.919ZM816 226.703H815V224.595H816V226.703ZM816 222.486H815V220.378H816V222.486ZM816 218.27H815V216.162H816V218.27ZM816 214.054H815V211.946H816V214.054ZM816 209.838H815V207.73H816V209.838ZM816 205.622H815V203.514H816V205.622ZM816 201.405H815V199.297H816V201.405ZM816 197.189H815V195.081H816V197.189ZM816 192.973H815V190.865H816V192.973ZM816 188.757H815V186.649H816V188.757ZM816 184.541H815V182.432H816V184.541ZM816 180.324H815V178.216H816V180.324ZM816 176.108H815V174H816V176.108ZM816 171.892H815V169.784H816V171.892ZM816 167.676H815V165.568H816V167.676ZM816 163.459H815V161.351H816V163.459ZM816 159.243H815V157.135H816V159.243ZM816 155.027H815V152.919H816V155.027ZM816 150.811H815V148.703H816V150.811ZM816 146.595H815V144.486H816V146.595ZM816 142.378H815V140.27H816V142.378ZM816 138.162H815V136.054H816V138.162ZM816 133.946H815V131.838H816V133.946ZM816 129.73H815V127.622H816V129.73ZM816 125.514H815V123.405H816V125.514ZM816 121.297H815V119.189H816V121.297ZM816 117.081H815V114.973H816V117.081ZM816 112.865H815V110.757H816V112.865ZM816 108.649H815V106.541H816V108.649ZM816 104.432H815V102.324H816V104.432ZM816 100.216H815V98.1081H816V100.216ZM816 96H815V93.8919H816V96ZM816 91.7838H815V89.6757H816V91.7838ZM816 87.5676H815V85.4595H816V87.5676ZM816 83.3513H815V81.2432H816V83.3513ZM816 79.1351H815V77.027H816V79.1351ZM816 74.9189H815V72.8108H816V74.9189ZM816 70.7027H815V68.5946H816V70.7027ZM816 66.4865H815V64.3784H816V66.4865ZM816 62.2703H815V60.1622H816V62.2703ZM816 58.0541H815V55.9459H816V58.0541ZM816 53.8378H815V51.7297H816V53.8378ZM816 49.6216H815V47.5135H816V49.6216ZM816 45.4054H815V43.2973H816V45.4054ZM816 41.1892H815V39.0811H816V41.1892ZM816 36.973H815V34.8649H816V36.973ZM816 32.7568H815V30.6486H816V32.7568ZM816 28.5405H815V26.4324H816V28.5405ZM816 24.3243H815V22.2162H816V24.3243ZM816 20.1081H815V18H816V20.1081Z"
          fill="#6E7797"/>
    <path d="M1468 408H1467V405.892H1468V408ZM1468 403.784H1467V401.676H1468V403.784ZM1468 399.568H1467V397.459H1468V399.568ZM1468 395.351H1467V393.243H1468V395.351ZM1468 391.135H1467V389.027H1468V391.135ZM1468 386.919H1467V384.811H1468V386.919ZM1468 382.703H1467V380.595H1468V382.703ZM1468 378.486H1467V376.378H1468V378.486ZM1468 374.27H1467V372.162H1468V374.27ZM1468 370.054H1467V367.946H1468V370.054ZM1468 365.838H1467V363.73H1468V365.838ZM1468 361.622H1467V359.514H1468V361.622ZM1468 357.405H1467V355.297H1468V357.405ZM1468 353.189H1467V351.081H1468V353.189ZM1468 348.973H1467V346.865H1468V348.973ZM1468 344.757H1467V342.649H1468V344.757ZM1468 340.541H1467V338.432H1468V340.541ZM1468 336.324H1467V334.216H1468V336.324ZM1468 332.108H1467V330H1468V332.108ZM1468 327.892H1467V325.784H1468V327.892ZM1468 323.676H1467V321.568H1468V323.676ZM1468 319.459H1467V317.351H1468V319.459ZM1468 315.243H1467V313.135H1468V315.243ZM1468 311.027H1467V308.919H1468V311.027ZM1468 306.811H1467V304.703H1468V306.811ZM1468 302.595H1467V300.486H1468V302.595ZM1468 298.378H1467V296.27H1468V298.378ZM1468 294.162H1467V292.054H1468V294.162ZM1468 289.946H1467V287.838H1468V289.946ZM1468 285.73H1467V283.622H1468V285.73ZM1468 281.514H1467V279.405H1468V281.514ZM1468 277.297H1467V275.189H1468V277.297ZM1468 273.081H1467V270.973H1468V273.081ZM1468 268.865H1467V266.757H1468V268.865ZM1468 264.649H1467V262.541H1468V264.649ZM1468 260.432H1467V258.324H1468V260.432ZM1468 256.216H1467V254.108H1468V256.216ZM1468 252H1467V249.892H1468V252ZM1468 247.784H1467V245.676H1468V247.784ZM1468 243.568H1467V241.459H1468V243.568ZM1468 239.351H1467V237.243H1468V239.351ZM1468 235.135H1467V233.027H1468V235.135ZM1468 230.919H1467V228.811H1468V230.919ZM1468 226.703H1467V224.595H1468V226.703ZM1468 222.486H1467V220.378H1468V222.486ZM1468 218.27H1467V216.162H1468V218.27ZM1468 214.054H1467V211.946H1468V214.054ZM1468 209.838H1467V207.73H1468V209.838ZM1468 205.622H1467V203.514H1468V205.622ZM1468 201.405H1467V199.297H1468V201.405ZM1468 197.189H1467V195.081H1468V197.189ZM1468 192.973H1467V190.865H1468V192.973ZM1468 188.757H1467V186.649H1468V188.757ZM1468 184.541H1467V182.432H1468V184.541ZM1468 180.324H1467V178.216H1468V180.324ZM1468 176.108H1467V174H1468V176.108ZM1468 171.892H1467V169.784H1468V171.892ZM1468 167.676H1467V165.568H1468V167.676ZM1468 163.459H1467V161.351H1468V163.459ZM1468 159.243H1467V157.135H1468V159.243ZM1468 155.027H1467V152.919H1468V155.027ZM1468 150.811H1467V148.703H1468V150.811ZM1468 146.595H1467V144.486H1468V146.595ZM1468 142.378H1467V140.27H1468V142.378ZM1468 138.162H1467V136.054H1468V138.162ZM1468 133.946H1467V131.838H1468V133.946ZM1468 129.73H1467V127.622H1468V129.73ZM1468 125.514H1467V123.405H1468V125.514ZM1468 121.297H1467V119.189H1468V121.297ZM1468 117.081H1467V114.973H1468V117.081ZM1468 112.865H1467V110.757H1468V112.865ZM1468 108.649H1467V106.541H1468V108.649ZM1468 104.432H1467V102.324H1468V104.432ZM1468 100.216H1467V98.1081H1468V100.216ZM1468 96H1467V93.8919H1468V96ZM1468 91.7838H1467V89.6757H1468V91.7838ZM1468 87.5676H1467V85.4595H1468V87.5676ZM1468 83.3513H1467V81.2432H1468V83.3513ZM1468 79.1351H1467V77.027H1468V79.1351ZM1468 74.9189H1467V72.8108H1468V74.9189ZM1468 70.7027H1467V68.5946H1468V70.7027ZM1468 66.4865H1467V64.3784H1468V66.4865ZM1468 62.2703H1467V60.1622H1468V62.2703ZM1468 58.0541H1467V55.9459H1468V58.0541ZM1468 53.8378H1467V51.7297H1468V53.8378ZM1468 49.6216H1467V47.5135H1468V49.6216ZM1468 45.4054H1467V43.2973H1468V45.4054ZM1468 41.1892H1467V39.0811H1468V41.1892ZM1468 36.973H1467V34.8649H1468V36.973ZM1468 32.7568H1467V30.6486H1468V32.7568ZM1468 28.5405H1467V26.4324H1468V28.5405ZM1468 24.3243H1467V22.2162H1468V24.3243ZM1468 20.1081H1467V18H1468V20.1081Z"
          fill="#6E7797"/>
    <path d="M460.513 29.51C461.045 29.846 462.039 30.154 463.215 30.154C465.525 30.154 466.939 28.978 466.939 27.368C466.939 26.178 466.057 25.352 464.965 25.156V25.128C466.085 24.736 466.631 23.98 466.631 23.014C466.631 21.768 465.553 20.746 463.607 20.746C462.431 20.746 461.339 21.082 460.793 21.432L461.227 22.972C461.605 22.748 462.389 22.426 463.131 22.426C464.027 22.426 464.475 22.832 464.475 23.378C464.475 24.148 463.565 24.414 462.851 24.428H462.025V25.954H462.893C463.831 25.954 464.727 26.36 464.727 27.256C464.727 27.942 464.167 28.474 463.061 28.474C462.193 28.474 461.325 28.11 460.947 27.914L460.513 29.51ZM471.569 30.154C473.683 30.154 475.069 29.048 475.069 27.396C475.069 26.22 474.285 25.464 473.403 25.128V25.086C474.299 24.638 474.719 23.868 474.719 23.084C474.719 21.978 473.837 20.746 471.709 20.746C469.889 20.746 468.503 21.768 468.503 23.308C468.503 24.106 468.937 24.848 469.819 25.296V25.338C468.825 25.772 468.195 26.528 468.195 27.62C468.195 28.852 469.259 30.154 471.569 30.154ZM471.653 28.684C470.855 28.684 470.351 28.068 470.365 27.41C470.365 26.752 470.771 26.248 471.471 26.052C472.311 26.276 472.899 26.752 472.899 27.55C472.899 28.194 472.409 28.684 471.653 28.684ZM471.611 22.188C472.395 22.188 472.717 22.748 472.717 23.308C472.717 23.882 472.283 24.33 471.793 24.47C471.065 24.246 470.505 23.854 470.505 23.238C470.505 22.664 470.883 22.188 471.611 22.188ZM479.335 30.154C481.449 30.154 482.835 29.048 482.835 27.396C482.835 26.22 482.051 25.464 481.169 25.128V25.086C482.065 24.638 482.485 23.868 482.485 23.084C482.485 21.978 481.603 20.746 479.475 20.746C477.655 20.746 476.269 21.768 476.269 23.308C476.269 24.106 476.703 24.848 477.585 25.296V25.338C476.591 25.772 475.961 26.528 475.961 27.62C475.961 28.852 477.025 30.154 479.335 30.154ZM479.419 28.684C478.621 28.684 478.117 28.068 478.131 27.41C478.131 26.752 478.537 26.248 479.237 26.052C480.077 26.276 480.665 26.752 480.665 27.55C480.665 28.194 480.175 28.684 479.419 28.684ZM479.377 22.188C480.161 22.188 480.483 22.748 480.483 23.308C480.483 23.882 480.049 24.33 479.559 24.47C478.831 24.246 478.271 23.854 478.271 23.238C478.271 22.664 478.649 22.188 479.377 22.188Z"
          fill="#60FD00"/>
    <path d="M1502.35 30V27.83H1503.44V26.234H1502.35V20.9H1499.75L1496.3 26.444V27.83H1500.34V30H1502.35ZM1498.29 26.234V26.206L1499.51 24.218C1499.82 23.644 1500.06 23.112 1500.35 22.524H1500.41C1500.36 23.112 1500.34 23.672 1500.34 24.218V26.234H1498.29ZM1510.79 30V28.25H1507.36V28.222L1508.2 27.522C1509.52 26.346 1510.62 25.128 1510.62 23.602C1510.62 21.95 1509.49 20.746 1507.43 20.746C1506.2 20.746 1505.13 21.166 1504.45 21.684L1505.05 23.21C1505.53 22.846 1506.21 22.454 1507 22.454C1508.05 22.454 1508.49 23.042 1508.49 23.784C1508.47 24.848 1507.5 25.87 1505.51 27.648L1504.34 28.712V30H1510.79ZM1517.88 30V27.83H1518.97V26.234H1517.88V20.9H1515.28L1511.83 26.444V27.83H1515.87V30H1517.88ZM1513.82 26.234V26.206L1515.04 24.218C1515.35 23.644 1515.59 23.112 1515.88 22.524H1515.94C1515.89 23.112 1515.87 23.672 1515.87 24.218V26.234H1513.82Z"
          fill="#60FD00"/>
    <path d="M1907.65 20.9H1902.63L1902.03 25.674C1902.41 25.618 1902.76 25.59 1903.26 25.59C1905.08 25.59 1905.83 26.164 1905.83 27.102C1905.83 28.068 1904.89 28.488 1904.01 28.488C1903.18 28.488 1902.35 28.236 1901.95 28.04L1901.57 29.636C1902.07 29.902 1903 30.154 1904.1 30.154C1906.55 30.154 1908.01 28.656 1908.01 26.962C1908.01 25.898 1907.59 25.142 1906.9 24.68C1906.26 24.218 1905.38 24.022 1904.51 24.022C1904.29 24.022 1904.12 24.022 1903.92 24.05L1904.12 22.65H1907.65V20.9ZM1912.57 30.154C1914.68 30.154 1916.07 29.048 1916.07 27.396C1916.07 26.22 1915.29 25.464 1914.4 25.128V25.086C1915.3 24.638 1915.72 23.868 1915.72 23.084C1915.72 21.978 1914.84 20.746 1912.71 20.746C1910.89 20.746 1909.5 21.768 1909.5 23.308C1909.5 24.106 1909.94 24.848 1910.82 25.296V25.338C1909.83 25.772 1909.2 26.528 1909.2 27.62C1909.2 28.852 1910.26 30.154 1912.57 30.154ZM1912.65 28.684C1911.86 28.684 1911.35 28.068 1911.37 27.41C1911.37 26.752 1911.77 26.248 1912.47 26.052C1913.31 26.276 1913.9 26.752 1913.9 27.55C1913.9 28.194 1913.41 28.684 1912.65 28.684ZM1912.61 22.188C1913.4 22.188 1913.72 22.748 1913.72 23.308C1913.72 23.882 1913.28 24.33 1912.79 24.47C1912.07 24.246 1911.51 23.854 1911.51 23.238C1911.51 22.664 1911.88 22.188 1912.61 22.188ZM1920.43 20.746C1918.08 20.746 1916.96 22.832 1916.96 25.464C1916.97 28.04 1918.01 30.154 1920.36 30.154C1922.69 30.154 1923.82 28.222 1923.82 25.408C1923.82 22.916 1922.87 20.746 1920.43 20.746ZM1920.4 22.356C1921.26 22.356 1921.69 23.42 1921.69 25.436C1921.69 27.508 1921.24 28.544 1920.42 28.544C1919.59 28.544 1919.09 27.55 1919.1 25.464C1919.09 23.35 1919.62 22.356 1920.4 22.356Z"
          fill="#60FD00"/>
    <path d="M854.645 20.9H849.633L849.031 25.674C849.409 25.618 849.759 25.59 850.263 25.59C852.083 25.59 852.825 26.164 852.825 27.102C852.825 28.068 851.887 28.488 851.005 28.488C850.179 28.488 849.353 28.236 848.947 28.04L848.569 29.636C849.073 29.902 849.997 30.154 851.103 30.154C853.553 30.154 855.009 28.656 855.009 26.962C855.009 25.898 854.589 25.142 853.903 24.68C853.259 24.218 852.377 24.022 851.509 24.022C851.285 24.022 851.117 24.022 850.921 24.05L851.117 22.65H854.645V20.9ZM862.789 30V28.25H859.359V28.222L860.199 27.522C861.515 26.346 862.621 25.128 862.621 23.602C862.621 21.95 861.487 20.746 859.429 20.746C858.197 20.746 857.133 21.166 856.447 21.684L857.049 23.21C857.525 22.846 858.211 22.454 858.995 22.454C860.045 22.454 860.493 23.042 860.493 23.784C860.465 24.848 859.499 25.87 857.511 27.648L856.335 28.712V30H862.789Z"
          fill="#FF0000"/>
    <path d="M203.241 30.126C203.479 30.14 203.843 30.154 204.207 30.126C205.621 30.07 206.811 29.636 207.679 28.852C208.673 27.942 209.275 26.556 209.275 24.666C209.275 22.538 208.169 20.746 205.831 20.746C203.829 20.746 202.401 22.244 202.401 24.022C202.401 25.786 203.703 26.864 205.243 26.864C206.069 26.864 206.657 26.626 207.063 26.206L207.105 26.22C206.937 26.906 206.545 27.494 205.957 27.9C205.467 28.236 204.809 28.418 204.165 28.46C203.745 28.488 203.507 28.488 203.241 28.46V30.126ZM205.775 22.3C206.741 22.3 207.105 23.252 207.105 24.218C207.105 24.484 207.063 24.624 206.993 24.75C206.797 25.072 206.391 25.352 205.817 25.352C204.949 25.352 204.529 24.68 204.529 23.896C204.515 22.944 205.047 22.3 205.775 22.3ZM213.569 30.154C215.683 30.154 217.069 29.048 217.069 27.396C217.069 26.22 216.285 25.464 215.403 25.128V25.086C216.299 24.638 216.719 23.868 216.719 23.084C216.719 21.978 215.837 20.746 213.709 20.746C211.889 20.746 210.503 21.768 210.503 23.308C210.503 24.106 210.937 24.848 211.819 25.296V25.338C210.825 25.772 210.195 26.528 210.195 27.62C210.195 28.852 211.259 30.154 213.569 30.154ZM213.653 28.684C212.855 28.684 212.351 28.068 212.365 27.41C212.365 26.752 212.771 26.248 213.471 26.052C214.311 26.276 214.899 26.752 214.899 27.55C214.899 28.194 214.409 28.684 213.653 28.684ZM213.611 22.188C214.395 22.188 214.717 22.748 214.717 23.308C214.717 23.882 214.283 24.33 213.793 24.47C213.065 24.246 212.505 23.854 212.505 23.238C212.505 22.664 212.883 22.188 213.611 22.188Z"
          fill="#60FD00"/>
    <path d="M449.196 21L454.392 30H444L449.196 21Z" fill="#60FD00"/>
    <path d="M1485.2 21L1490.39 30H1480L1485.2 21Z" fill="#60FD00"/>
    <path d="M1890.2 21L1895.39 30H1885L1890.2 21Z" fill="#60FD00"/>
    <path d="M837.196 30L842.392 21H832L837.196 30Z" fill="#FF0000"/>
    <path d="M191.196 21L196.392 30H186L191.196 21Z" fill="#60FD00"/>
    <path class="line-path dashed" d="M77 299C97.5 279.333 140.3 239 147.5 235C156.5 230 169.5 224 188.5 235C207.5 246 227 232 231 228C235 224 267 197 272 195C277 193 294 192.5 300 189.5C306 186.5 333.5 155.5 340 150C346.5 144.5 355.5 138.5 385.5 140.5C415.5 142.5 417 124.5 439.5 127C462 129.5 473.5 142 501 150.5C528.5 159 531.5 171 545.5 175.5C559.5 180 618 164.5 629.5 171.5C641 178.5 646 190.5 655.5 221C665 251.5 668.5 260.5 675 266.5C681.5 272.5 699.5 277 729 261.5C758.5 246 780 242.5 786 243C792 243.5 803.5 246 830.5 265.5C857.5 285 875.5 277 881.5 273.5C887.5 270 928.5 247 936.5 243.5C944.5 240 952.5 231.5 958 221.5C963.5 211.5 971 197 984 195C997 193 1012 199.5 1034.5 202C1057 204.5 1063.5 184 1086 189.5C1108.5 195 1111.5 216 1127.5 221C1143.5 226 1151.5 222 1160.5 221C1169.5 220 1178.5 218.5 1195.5 238C1212.5 257.5 1244 240.5 1248 235.5C1252 230.5 1273.5 217.5 1277 214C1280.5 210.5 1287 198 1292 184.5C1297 171 1321 109 1332.5 100.5C1344 92 1371 83 1377.5 80C1384 77 1405 64.5 1417 66C1429 67.5 1434 69.5001 1466 90.5001C1498 111.5 1554.5 143 1571 148.5C1587.5 154 1658 132.5 1688.5 137.5C1719 142.5 1721.5 144.5 1733 138.5C1744.5 132.5 1761.5 94.0001 1768.5 88.5001C1775.5 83.0001 1788 78.5001 1796.5 77.5001C1805 76.5001 1828 71.5001 1833 66.5001C1838 61.5001 1867.5 18.5001 1877.5 14.0001C1887.5 9.50005 1896 6.50005 1924.5 17.5001C1929.5 18.6667 1941.8 19.5 1951 13.5C1960.2 7.5 1972.83 2.66667 1978 1"
          stroke="#FFCB00" stroke-width="1.5" stroke-dasharray="7 7"/>
    <path class="line-path" d="M78 274.782C100.333 272.449 147.2 266.982 156 263.782C167 259.782 196.5 238.282 200 234.782C203.5 231.282 231 213.282 236.5 212.282C242 211.282 250 207.282 283 207.782C316 208.282 324 201.782 333.5 196.282C343 190.782 397.5 121.782 435 123.282C472.5 124.782 489.5 145.282 505.5 162.782C521.5 180.282 541.5 189.782 550.5 191.282C559.5 192.782 618.5 194.782 632.5 196.282C646.5 197.782 677.5 194.782 689 202.782C700.5 210.782 739 240.782 751.5 251.282C764 261.782 805.5 298.282 817 298.782C828.5 299.282 896.5 287.282 900.5 284.782C904.5 282.282 916.5 275.282 920 271.782C923.5 268.282 931 257.282 932.5 244.782C934 232.282 949.5 213.782 960 209.782C970.5 205.782 995 198.282 1026 209.782C1057 221.282 1075.5 215.282 1081.5 214.782C1087.5 214.282 1142 200.782 1153 202.282C1164 203.782 1187 211.782 1215.5 220.782C1244 229.782 1260.5 227.782 1267.5 223.782C1274.5 219.782 1285.5 215.782 1295 203.782C1304.5 191.782 1343 136.282 1352.5 130.282C1362 124.282 1404.5 105.282 1409 102.782C1413.5 100.282 1458 78.7818 1477 82.7818C1496 86.7818 1501 88.2818 1537 115.782C1573 143.282 1587.5 159.782 1608.5 159.782C1629.5 159.782 1720.5 117.782 1727 114.782C1733.5 111.782 1755.5 110.782 1769.5 108.782C1783.5 106.782 1797 98.7818 1802 93.2818C1807 87.7818 1834 40.7818 1846.5 33.2818C1859 25.7818 1878 13.7818 1922.5 30.2818C1958.1 43.4818 1974.67 38.1151 1978.5 33.7817"
          stroke="#8000FF" stroke-width="4"/>
</svg>
