<svg width="1768" height="418" viewBox="0 0 1768 418" fill="none" xmlns="http://www.w3.org/2000/svg">
    <path d="M42.2669 121H39.2513V119.632H42.2805C43.5302 119.632 44.7799 119.632 46.0295 119.632V121C44.7889 121 43.5347 121 42.2669 121ZM32.446 121H25.6542V119.632H32.446V121ZM18.8624 121H12.0706V119.632H18.8624V121ZM5.27883 121H1V119.632H5.29241L5.27883 121ZM1766.73 120.918L1760.07 119.632L1760.32 118.265L1767 119.509L1766.73 120.918ZM903.832 120.685H903.424V119.318H903.818H906.236L910.203 119.236V120.603L906.236 120.685H903.832ZM52.8621 120.549L52.7534 119.181C54.9811 118.99 57.2496 118.743 59.4637 118.443L59.6403 119.81C57.4126 120.125 55.1305 120.371 52.8757 120.562L52.8621 120.549ZM896.606 120.48C894.337 120.357 892.055 120.166 889.814 119.92L889.963 118.552C892.191 118.798 894.459 118.99 896.755 119.113L896.606 120.48ZM917.062 120.48V119.113L923.854 118.976V120.344L917.062 120.48ZM930.646 120.22V118.853L937.438 118.716V120.084L930.646 120.22ZM944.23 119.961V118.593L951.021 118.456V119.824L944.23 119.961ZM957.813 119.701V118.333L964.605 118.196V119.564L957.813 119.701ZM971.397 119.427V118.06L978.189 117.923V119.291L971.397 119.427ZM984.98 119.154V117.786L991.772 117.649V119.017L984.98 119.154ZM882.913 119.044L876.122 118.073L876.312 116.706L883.104 117.677L882.913 119.044ZM998.577 118.88V117.513L1005.37 117.376V118.744L998.577 118.88ZM66.2419 118.73L65.9838 117.362C68.1843 116.938 70.412 116.446 72.5854 115.913L72.9114 117.28C70.8603 117.786 68.619 118.265 66.3913 118.702L66.2419 118.73ZM1012.17 118.607V117.239L1018.97 117.102V118.47L1012.17 118.607ZM1753.23 118.443L1746.54 117.198L1746.79 115.831L1753.47 117.075L1753.23 118.443ZM1025.93 118.265V116.897L1032.73 116.76V118.128L1025.93 118.265ZM1039.52 117.978V116.61L1046.31 116.473V117.841L1039.52 117.978ZM1053.1 117.69V116.323L1059.89 116.172V117.54L1053.1 117.69ZM1066.69 117.39V116.022L1073.48 115.872V117.239L1066.69 117.39ZM1080.27 117.089V115.721L1087.06 115.571V116.938L1080.27 117.089ZM869.547 117.089L862.755 116.118L862.945 114.75L869.737 115.721L869.547 117.089ZM1093.96 116.897V115.53L1100.75 115.366V116.733L1093.96 116.897ZM1107.54 116.569V115.201L1114.34 115.037V116.405L1107.54 116.569ZM1121.13 116.227V114.86L1127.92 114.668V116.036L1121.13 116.227ZM1739.97 115.981L1733.29 114.737L1733.53 113.369L1740.21 114.613L1739.97 115.981ZM1134.78 115.817V114.449C1138.56 114.326 1140.85 114.217 1141.57 114.135L1141.72 115.502C1140.96 115.53 1138.71 115.625 1134.83 115.762L1134.78 115.817ZM79.6489 115.42L79.255 114.053C81.4012 113.396 83.5609 112.685 85.6664 111.906L86.1282 113.191C83.9956 114.025 81.8223 114.764 79.6489 115.42ZM856.167 115.147L849.375 114.176L849.566 112.808L856.357 113.779L856.167 115.147ZM1726.67 113.41L1719.99 112.165L1720.23 110.798L1726.91 112.042L1726.67 113.41ZM842.719 113.205L835.928 112.234L836.118 110.866L842.91 111.837L842.719 113.205ZM1148.12 112.453L1147.52 111.222L1153.62 108.186L1154.23 109.417L1148.12 112.453ZM829.272 111.277L822.48 110.306L822.67 108.938L829.462 109.909L829.272 111.277ZM1713.32 110.907L1706.63 109.663L1706.88 108.295L1713.56 109.54L1713.32 110.907ZM92.4718 110.716L91.942 109.458C94.0067 108.569 96.0171 107.625 98.0818 106.627L98.6795 107.858C96.6555 108.883 94.5636 109.841 92.4853 110.729L92.4718 110.716ZM815.824 109.348L809.032 108.377L809.222 107.01L816.014 107.981L815.824 109.348ZM1699.97 108.418L1693.28 107.174L1693.53 105.806L1700.21 107.051L1699.97 108.418ZM802.431 107.406L795.639 106.435L795.829 105.068L802.553 106.039L802.431 107.406ZM1160.37 106.353L1159.76 105.136L1165.85 102.073L1166.46 103.29L1160.37 106.353ZM1686.67 105.902L1679.98 104.657L1680.23 103.29L1686.91 104.534L1686.67 105.902ZM788.983 105.464L782.191 104.493L782.381 103.126L789.173 104.097L788.983 105.464ZM104.778 104.671L104.113 103.481C106.069 102.374 108.025 101.211 109.913 99.994L110.647 101.143C108.691 102.374 106.707 103.563 104.738 104.685L104.778 104.671ZM775.535 103.536L768.743 102.565L768.934 101.197L775.657 102.168L775.535 103.536ZM1673.3 103.413L1666.62 102.168L1666.86 100.801L1673.55 102.045L1673.3 103.413ZM762.087 101.608L755.364 100.637L755.554 99.2691L762.278 100.24L762.087 101.608ZM1659.96 100.924L1653.28 99.6794L1653.52 98.3119L1660.21 99.5564L1659.96 100.924ZM1172.54 100.24L1171.93 99.023L1178 95.9596L1178.61 97.1768L1172.54 100.24ZM748.653 99.6794L741.862 98.7085L742.052 97.3409L748.776 98.3119L748.653 99.6794ZM1646.61 98.4213L1639.93 97.1768L1640.17 95.8092L1646.85 97.0537L1646.61 98.4213ZM735.151 97.7375L731.497 97.2178L728.441 96.8212L728.604 95.4536L731.687 95.8639L735.341 96.3836L735.151 97.7375ZM116.284 97.3819L115.537 96.2468L121.187 92.4586L121.935 93.5937L116.284 97.3819ZM721.703 96.1784C720.481 96.0964 719.254 96.0325 718.022 95.987L714.925 95.8776V94.51L718.022 94.6194C719.263 94.6194 720.499 94.6832 721.731 94.8109L721.703 96.1784ZM1539.01 95.9459C1536.74 95.9459 1534.45 95.8365 1532.22 95.6861L1532.3 94.3185C1534.53 94.4689 1536.8 94.551 1539.09 94.5784L1539.01 95.9459ZM1633.19 95.9459L1626.51 94.7014L1626.75 93.3339L1633.43 94.5784L1633.19 95.9459ZM1545.85 95.9459V94.5784C1548.09 94.4826 1550.36 94.3322 1552.64 94.1134L1552.76 95.481C1550.4 95.604 1548.17 95.7545 1545.85 95.8502V95.9459ZM708.161 95.7408L701.369 95.4947V94.1271L708.161 94.3732V95.7408ZM694.577 95.2485L687.785 95.0023V93.6347L694.577 93.8809V95.2485ZM1525.4 95.1664C1523.16 94.8929 1520.88 94.5647 1518.61 94.1818L1518.84 92.8142C1521.06 93.1971 1523.31 93.5253 1525.52 93.7852L1525.4 95.1664ZM681.007 94.7561L674.215 94.51V93.1424L681.007 93.3886V94.7561ZM1559.44 94.6604L1559.24 93.2928C1561.45 92.9646 1563.69 92.568 1565.9 92.1167L1566.17 93.4843C1563.94 93.8262 1561.67 94.2228 1559.43 94.5647L1559.44 94.6604ZM667.437 94.2638L660.645 94.0176V92.6501L667.437 92.8963V94.2638ZM1184.66 94.2638L1184.05 93.0467L1190.12 89.9696L1190.73 91.1868L1184.66 94.2638ZM653.854 93.6484L647.062 93.4023V92.0347L653.854 92.2808V93.6484ZM1619.84 93.3886L1616.1 92.6911L1613.17 92.1851L1613.38 90.8175L1616.34 91.3372L1620.08 92.0347L1619.84 93.3886ZM640.27 93.1424C638.002 93.0604 635.706 92.9099 633.478 92.7048L633.6 91.3372C635.828 91.5423 638.097 91.6928 640.392 91.7748L640.27 93.1424ZM1511.94 92.7048C1509.73 92.1988 1507.5 91.6244 1505.33 91.009L1505.69 89.6414C1507.84 90.2568 1510.04 90.8175 1512.24 91.3235L1511.94 92.7048ZM1572.8 92.103L1572.58 90.7355C1574.81 90.3799 1577.09 90.079 1579.37 89.8465L1579.51 91.2141C1577.26 91.4876 1575.01 91.7885 1572.81 92.1304L1572.8 92.103ZM626.673 91.8979C624.432 91.5697 622.163 91.1731 619.881 90.7355L620.153 89.3679C622.353 89.8055 624.595 90.2021 626.809 90.5166L626.673 91.8979ZM1606.47 91.2688C1604.26 91.0227 1601.99 90.8449 1599.68 90.7218L1599.75 89.3542C1602.01 89.4773 1604.31 89.6687 1606.54 89.9149L1606.47 91.2688ZM1586.23 90.6944L1586.16 89.3269C1588.35 89.2175 1590.58 89.1628 1592.76 89.1628H1592.98V90.5303H1592.75C1590.6 90.5577 1588.4 90.6124 1586.2 90.7218L1586.23 90.6944ZM127.572 89.7782L126.825 88.6431L132.475 84.8549L133.222 85.99L127.572 89.7782ZM613.293 89.2038C611.817 88.8209 610.35 88.4151 608.892 87.9866L606.732 87.3439L607.112 85.9763L609.272 86.619C610.721 87.0475 612.175 87.4487 613.633 87.8225L613.293 89.2038ZM1498.81 89.0534L1492.3 87.0977L1492.69 85.7301L1499.2 87.6858L1498.81 89.0534ZM1196.79 87.9183L1196.18 86.7011L1202.25 83.6241L1202.86 84.8412L1196.79 87.9183ZM600.226 85.4429L593.706 83.5146L594.086 82.1471L600.606 84.0754L600.226 85.4429ZM1485.81 85.1558L1479.3 83.2001L1479.69 81.8325L1486.2 83.7882L1485.81 85.1558ZM138.9 82.2155L138.153 81.0804L143.804 77.2922L144.551 78.4273L138.9 82.2155ZM1208.96 81.7915L1208.35 80.5744L1214.42 77.4973L1215.03 78.7144L1208.96 81.7915ZM587.199 81.5864L580.679 79.6581L581.059 78.2905L587.579 80.2188L587.199 81.5864ZM1472.85 81.2308L1466.34 79.2751L1466.74 77.9076L1473.24 79.8632L1472.85 81.2308ZM574.227 77.7298L567.707 75.8015L568.087 74.4339L574.607 76.3622L574.227 77.7298ZM1459.88 77.3195L1453.37 75.3639L1453.76 73.9963L1460.27 75.9519L1459.88 77.3195ZM1221.2 75.6237L1220.59 74.4066L1226.66 71.3295L1227.27 72.5467L1221.2 75.6237ZM150.297 74.6254L149.55 73.4903L155.201 69.7021L155.948 70.8372L150.297 74.6254ZM561.227 73.8595L554.707 71.9313L555.087 70.5637L561.608 72.492L561.227 73.8595ZM1446.88 73.3809L1440.37 71.4253L1440.76 70.0577L1447.27 72.0133L1446.88 73.3809ZM548.214 69.9893L541.694 68.061L542.074 66.6934L548.594 68.6217L548.214 69.9893ZM1433.86 69.4559L1427.27 67.5276L1427.67 66.1601L1434.18 68.1157L1433.86 69.4559ZM1233.37 69.4559L1232.76 68.2388L1238.83 65.1618L1239.44 66.3789L1233.37 69.4559ZM161.626 67.0353L160.879 65.9002L166.529 62.112L167.276 63.2471L161.626 67.0353ZM535.174 66.1464L528.654 64.2181L529.034 62.8505L535.554 64.7788L535.174 66.1464ZM1420.82 65.5583L1414.32 63.6027L1414.71 62.2351L1421.22 64.1907L1420.82 65.5583ZM1245.39 63.3155L1244.78 62.0984L1250.85 59.0213L1251.46 60.2385L1245.39 63.3155ZM522.039 62.3172L515.518 60.3889L515.899 59.0213L522.419 60.9496L522.039 62.3172ZM1407.69 61.6607L1401.18 59.7051L1401.57 58.3375L1408.08 60.2931L1407.69 61.6607ZM172.805 59.4589L172.058 58.3239L177.709 54.5356L178.456 55.6708L172.805 59.4589ZM508.998 58.4332L502.478 56.505L502.859 55.1374L509.379 57.0657L508.998 58.4332ZM1394.65 57.7221L1388.14 55.7665L1388.53 54.3989L1395.04 56.3545L1394.65 57.7221ZM1257.45 57.134L1256.84 55.9169L1262.91 52.8399L1263.53 54.0707L1257.45 57.134ZM495.89 54.5767L489.37 52.6484L489.75 51.2808L496.271 53.2091L495.89 54.5767ZM1381.61 53.7971L1375.1 51.8415L1375.49 50.4739L1382 52.4296L1381.61 53.7971ZM184.107 51.8825L183.359 50.7475L189.01 46.9592L189.757 48.0944L184.107 51.8825ZM1269.71 51.2535L1269.18 49.9953C1271.25 49.0927 1273.39 48.2311 1275.52 47.4516L1275.99 48.7371C1273.9 49.4619 1271.8 50.3098 1269.71 51.2535ZM482.918 50.7748L476.398 48.8465L476.778 47.4789L483.298 49.4072L482.918 50.7748ZM1368.65 49.9406L1362.14 47.9849L1362.54 46.6173L1369.04 48.573L1368.65 49.9406ZM469.905 46.8772L463.385 44.9489L463.765 43.5814L470.285 45.5096L469.905 46.8772ZM1282.41 46.5216L1282.01 45.1541C1284.17 44.484 1286.39 43.8549 1288.59 43.3078L1288.91 44.6754C1286.73 45.2361 1284.54 45.7831 1282.39 46.508L1282.41 46.5216ZM1355.68 45.9883C1353.52 45.3592 1351.32 44.7711 1349.14 44.2515L1349.45 42.8839C1351.66 43.4036 1353.87 43.9916 1356.06 44.6344L1355.68 45.9883ZM195.422 44.3062L194.675 43.1711L200.325 39.3829L201.072 40.5179L195.422 44.3062ZM1295.51 43.2121L1295.26 41.8445C1297.47 41.4069 1299.74 41.024 1302.05 40.7094L1302.24 42.077C1299.93 42.3916 1297.69 42.7744 1295.51 43.1984V43.2121ZM456.878 43.048L450.358 41.1197L450.738 39.7521L457.259 41.6804L456.878 43.048ZM1342.53 42.8976C1340.33 42.501 1338.09 42.1591 1335.84 41.8719L1336.02 40.5043C1338.28 40.7915 1340.54 41.1334 1342.81 41.5436L1342.53 42.8976ZM1308.88 41.3522L1308.76 39.9846C1311.01 39.7932 1313.31 39.6427 1315.55 39.5743V40.9419C1313.36 40.9829 1311.09 41.1197 1308.87 41.3112L1308.88 41.3522ZM1329.12 41.2017C1326.88 41.0376 1324.61 40.9282 1322.33 40.8872V39.5196C1324.58 39.5196 1326.88 39.6701 1329.12 39.8342V41.2017ZM443.824 39.1641L437.304 37.2358L437.685 35.8682L444.205 37.7965L443.824 39.1641ZM206.696 36.7298L205.949 35.5947L211.6 31.8065L212.347 32.9415L206.696 36.7298ZM430.825 35.3622L424.305 33.4339L424.685 32.0663L431.205 33.9946L430.825 35.3622ZM417.798 31.5056L411.224 29.509L411.604 28.1414L418.124 30.0697L417.798 31.5056ZM218.038 29.1944L217.291 28.0593L222.942 24.2711L223.689 25.4062L218.038 29.1944ZM404.772 27.649L398.252 25.7207L398.632 24.3532L405.152 26.2814L404.772 27.649ZM391.745 23.7925L385.225 21.8642L385.605 20.4966L392.125 22.4249L391.745 23.7925ZM229.353 21.6317L228.62 20.4829C230.535 19.2384 232.491 18.035 234.447 16.9135L235.126 18.1033C233.143 19.1564 231.214 20.3325 229.326 21.5633L229.353 21.6317ZM378.773 19.9359L372.253 18.0076L372.633 16.64L379.153 18.5683L378.773 19.9359ZM365.746 16.0793L359.226 14.151L359.606 12.7834L366.126 14.7117L365.746 16.0793ZM241.144 14.8895L240.533 13.6724C242.557 12.6467 244.608 11.6757 246.713 10.7594L247.257 12.0176C245.11 12.8382 243.046 13.8091 241.049 14.8211L241.144 14.8895ZM352.719 12.1544L346.199 10.2261L346.58 8.8585L353.1 10.7868L352.719 12.1544ZM253.559 9.41921L253.084 8.13368C255.217 7.34049 257.39 6.58831 259.536 5.90452L259.944 7.2721C257.729 7.87384 255.529 8.61232 253.423 9.40552L253.559 9.41921ZM339.72 8.31147L333.213 6.38318L333.594 5.0156L340.114 6.94389L339.72 8.31147ZM266.437 5.3575L266.097 3.98992C268.284 3.42921 270.525 2.90953 272.753 2.4719L273.025 3.83948C270.688 4.27711 268.474 4.75575 266.314 5.34381L266.437 5.3575ZM326.666 4.67371C324.493 4.1677 322.265 3.7164 320.051 3.30613L320.282 1.93855C322.523 2.33515 324.778 2.80012 326.965 3.30613L326.666 4.67371ZM279.681 2.70439L279.49 1.33681C281.732 1.00859 284.014 0.735081 286.282 0.529944L286.404 1.89752C284.027 2.10266 281.772 2.3625 279.558 2.69072L279.681 2.70439ZM313.354 2.32147C311.14 2.04795 308.872 1.82914 306.562 1.67871L306.658 0.311127C308.926 0.46156 311.208 0.680367 313.449 0.967559L313.354 2.32147ZM293.047 1.45989V0.0923088C295.302 0.010254 297.597 -0.0170942 299.839 0.0102574V1.37784C297.502 1.35049 295.247 1.37783 293.047 1.45989Z"
          fill="white"/>
    <path class="line-path" d="M1014.1 418C1012.19 417.997 1010.29 417.843 1008.41 417.537C1003.05 416.762 997.961 414.689 993.583 411.498C989.206 408.307 985.672 404.095 983.287 399.226L916.675 261.963C914.76 258.11 912.025 254.725 908.663 252.046C905.302 249.367 901.395 247.458 897.218 246.454L872.086 240.074C867.088 238.798 861.852 238.786 856.849 240.04C851.846 241.294 847.232 243.774 843.423 247.257L784.563 302.285C779.812 306.706 773.909 309.691 767.537 310.896L745.446 315.168C740.293 316.159 734.985 315.987 729.907 314.665C724.829 313.342 720.109 310.902 716.091 307.522L670.469 268.357C667.066 265.483 664.292 261.935 662.323 257.936L627.835 187.291C621.046 173.32 603.395 167.062 588.609 173.333C581.713 176.281 574.054 176.929 566.763 175.18C559.472 173.43 552.936 169.378 548.12 163.62L538.236 151.499C533.784 146.213 527.696 142.571 520.94 141.151C514.184 139.731 507.148 140.615 500.951 143.663L420.72 182.938C416.375 185.053 411.643 186.256 406.817 186.471C401.99 186.686 397.171 185.91 392.655 184.189L299.797 148.642C295.721 147.088 291.366 146.406 287.012 146.64C282.658 146.874 278.401 148.02 274.515 150.002C270.93 151.769 267.76 154.276 265.214 157.36C262.668 160.443 260.803 164.033 259.742 167.892L222.892 303.74C219.131 317.589 206.056 327.561 191.066 327.996L123.544 329.914C120.873 329.988 118.221 330.404 115.655 331.152L70.5772 344.307C65.8032 345.71 60.7866 346.084 55.8579 345.404C50.9292 344.724 46.2002 343.006 41.9824 340.362L0 313.807L2.17244 310.352L44.1684 336.934C47.8995 339.273 52.0832 340.792 56.4434 341.393C60.8036 341.993 65.2413 341.66 69.4638 340.416L114.542 327.261C117.441 326.43 120.434 325.973 123.449 325.901L190.971 323.983C204.169 323.602 215.683 314.868 218.982 302.734L255.832 166.885C257.044 162.485 259.172 158.391 262.076 154.874C264.981 151.357 268.595 148.496 272.682 146.479C277.069 144.254 281.871 142.971 286.781 142.714C291.691 142.456 296.601 143.229 301.195 144.983L394.054 180.462C398.049 181.986 402.313 182.674 406.584 182.485C410.855 182.295 415.042 181.232 418.887 179.36L499.118 140.085C506.141 136.639 514.113 135.645 521.765 137.262C529.417 138.879 536.309 143.014 541.345 149.009L551.23 161.13C555.487 166.206 561.261 169.775 567.699 171.311C574.136 172.847 580.896 172.268 586.98 169.66C603.748 162.559 623.64 169.66 631.447 185.59L665.962 256.331C667.671 259.819 670.079 262.917 673.036 265.432L718.684 304.57C722.228 307.568 726.396 309.734 730.883 310.911C735.37 312.088 740.062 312.245 744.618 311.372L766.871 306.883C772.463 305.808 777.639 303.177 781.807 299.292L840.667 244.264C844.979 240.323 850.198 237.514 855.859 236.09C861.52 234.665 867.445 234.67 873.104 236.102L898.236 242.482C902.976 243.64 907.406 245.824 911.215 248.879C915.024 251.934 918.121 255.786 920.286 260.167L986.899 397.43C989.001 401.706 992.111 405.403 995.96 408.203C999.809 411.002 1004.28 412.819 1008.99 413.497C1013.85 414.316 1018.84 413.951 1023.53 412.433C1028.22 410.916 1032.48 408.29 1035.94 404.777L1070.7 368.998C1074.77 364.907 1079.78 361.882 1085.3 360.188C1090.81 358.494 1096.65 358.184 1102.31 359.285L1175.13 373.406C1189.53 376.208 1203.78 368.767 1209 355.721L1227.9 308.488C1229.29 305.022 1231.28 301.827 1233.77 299.047L1295.05 230.361C1297.93 227.124 1300.03 223.258 1301.17 219.07L1328.33 118.265C1329.43 114.153 1331.36 110.307 1333.99 106.96L1368.27 63.0735C1373.48 56.5746 1380.84 52.1536 1389.01 50.6072C1397.19 49.0608 1405.64 50.4906 1412.86 54.6391L1511.12 110.769C1517.44 114.353 1524.81 115.619 1531.96 114.347L1579.49 105.967C1585.2 104.952 1591.07 105.372 1596.58 107.188C1602.09 109.004 1607.06 112.16 1611.05 116.374L1667.54 177.428C1668.82 178.813 1670.24 180.07 1671.76 181.183L1704.35 204.989C1708.45 207.981 1711.8 211.883 1714.15 216.39L1768 320.609L1764.39 322.486L1710.53 218.267C1708.47 214.323 1705.53 210.91 1701.93 208.295L1669.34 184.488C1667.61 183.223 1666 181.793 1664.54 180.217L1608.05 119.162C1604.53 115.446 1600.13 112.664 1595.27 111.067C1590.4 109.469 1585.22 109.105 1580.18 110.007L1532.66 118.387C1524.57 119.816 1516.23 118.373 1509.09 114.306L1410.82 58.1761C1404.46 54.5037 1396.99 53.2312 1389.77 54.5882C1382.55 55.9451 1376.05 59.8422 1371.45 65.5766L1337.14 109.476C1334.84 112.396 1333.16 115.751 1332.19 119.339L1305.04 220.144C1303.73 224.944 1301.33 229.373 1298.02 233.082L1236.78 301.768C1234.61 304.191 1232.88 306.976 1231.67 309.998L1212.76 357.231C1206.82 372.086 1190.66 380.575 1174.34 377.405L1101.52 363.285C1096.54 362.331 1091.41 362.613 1086.56 364.107C1081.72 365.601 1077.31 368.261 1073.73 371.855L1038.92 407.674C1035.67 410.967 1031.81 413.577 1027.55 415.35C1023.28 417.124 1018.71 418.024 1014.1 418Z"
          fill="#D51313"/>
    <path opacity="0.3"
          d="M1421.5 101C1442.76 101 1460 83.763 1460 62.5C1460 41.237 1442.76 24 1421.5 24C1400.24 24 1383 41.237 1383 62.5C1383 83.763 1400.24 101 1421.5 101Z"
          fill="#D51313"/>
    <path opacity="0.3"
          d="M1421 93C1437.57 93 1451 79.5685 1451 63C1451 46.4315 1437.57 33 1421 33C1404.43 33 1391 46.4315 1391 63C1391 79.5685 1404.43 93 1421 93Z"
          fill="#D51313"/>
    <path opacity="0.3"
          d="M1421 84C1432.6 84 1442 74.3741 1442 62.5C1442 50.6259 1432.6 41 1421 41C1409.4 41 1400 50.6259 1400 62.5C1400 74.3741 1409.4 84 1421 84Z"
          fill="#D51313"/>
    <path d="M1421.5 75C1428.4 75 1434 69.4036 1434 62.5C1434 55.5964 1428.4 50 1421.5 50C1414.6 50 1409 55.5964 1409 62.5C1409 69.4036 1414.6 75 1421.5 75Z"
          fill="#D51313"/>
</svg>
