<svg width="88" height="80" viewBox="0 0 88 80" fill="none" xmlns="http://www.w3.org/2000/svg">
<path d="M80.9039 0.887967L3.39645 33.1468C3.39645 33.1468 -0.267986 34.4788 0.0156559 36.9356C0.306935 39.3968 3.29718 40.5226 3.29718 40.5226L22.7998 47.4849C22.7998 47.4849 28.6864 67.9639 29.845 71.8607C31.0036 75.7466 31.933 75.8382 31.933 75.8382C33.012 76.3357 33.9927 75.5437 33.9927 75.5437L46.593 63.3591L66.2308 79.3325C71.5426 81.7904 73.4757 76.6695 73.4757 76.6695L87.2749 2.83746C87.2749 -2.08046 80.9039 0.887967 80.9039 0.887967ZM67.1821 70.7316L46.173 53.6476L39.6536 59.9499L41.087 46.5413L69.0913 20L30.9185 42.663L13.9861 36.6193L78.5878 9.72997L67.1821 70.7316Z" fill="url(#paint0_linear_295_2896)"/>
<defs>
<linearGradient id="paint0_linear_295_2896" x1="87.2749" y1="80" x2="0" y2="80" gradientUnits="userSpaceOnUse">
<stop stop-color="#DE22E2"/>
<stop offset="1" stop-color="#FF2121"/>
</linearGradient>
</defs>
</svg>
