<svg width="205" height="79" viewBox="0 0 205 79" fill="none" xmlns="http://www.w3.org/2000/svg">
    <path d="M12.5 79L23.3253 60.25H1.67468L12.5 79Z" fill="url(#paint0_linear_295_2763)"/>
    <path d="M12.5 54L23.3253 35.25H1.67468L12.5 54Z" fill="url(#paint1_linear_295_2763)"/>
    <path d="M12.5 25L23.3253 6.25H1.67468L12.5 25Z" fill="url(#paint2_linear_295_2763)"/>
    <path d="M132.5 79L143.325 60.25H121.675L132.5 79Z" fill="url(#paint3_linear_295_2763)"/>
    <path d="M132.5 54L143.325 35.25H121.675L132.5 54Z" fill="url(#paint4_linear_295_2763)"/>
    <path d="M132.5 25L143.325 6.25H121.675L132.5 25Z" fill="url(#paint5_linear_295_2763)"/>
    <path d="M72.5 79L83.3253 60.25H61.6747L72.5 79Z" fill="url(#paint6_linear_295_2763)"/>
    <path d="M72.5 54L83.3253 35.25H61.6747L72.5 54Z" fill="url(#paint7_linear_295_2763)"/>
    <path d="M72.5 25L83.3253 6.25H61.6747L72.5 25Z" fill="url(#paint8_linear_295_2763)"/>
    <path d="M192.5 79L203.325 60.25H181.675L192.5 79Z" fill="url(#paint9_linear_295_2763)"/>
    <path d="M192.5 54L203.325 35.25H181.675L192.5 54Z" fill="url(#paint10_linear_295_2763)"/>
    <path d="M192.5 25L203.325 6.25H181.675L192.5 25Z" fill="url(#paint11_linear_295_2763)"/>
    <path d="M42.5 79L53.3253 60.25H31.6747L42.5 79Z" fill="url(#paint12_linear_295_2763)"/>
    <path d="M42.5 54L53.3253 35.25H31.6747L42.5 54Z" fill="url(#paint13_linear_295_2763)"/>
    <path d="M42.5 25L53.3253 6.25H31.6747L42.5 25Z" fill="url(#paint14_linear_295_2763)"/>
    <path d="M162.5 79L173.325 60.25H151.675L162.5 79Z" fill="url(#paint15_linear_295_2763)"/>
    <path d="M162.5 54L173.325 35.25H151.675L162.5 54Z" fill="url(#paint16_linear_295_2763)"/>
    <path d="M162.5 25L173.325 6.25H151.675L162.5 25Z" fill="url(#paint17_linear_295_2763)"/>
    <path d="M102.5 79L113.325 60.25H91.6747L102.5 79Z" fill="url(#paint18_linear_295_2763)"/>
    <path d="M102.5 54L113.325 35.25H91.6747L102.5 54Z" fill="url(#paint19_linear_295_2763)"/>
    <path d="M102.5 25L113.325 6.25H91.6747L102.5 25Z" fill="url(#paint20_linear_295_2763)"/>
    <defs>
        <linearGradient id="paint0_linear_295_2763" x1="25" y1="54" x2="0" y2="54" gradientUnits="userSpaceOnUse">
            <stop stop-color="#FF0000"/>
            <stop offset="1" stop-color="#2621FF"/>
        </linearGradient>
        <linearGradient id="paint1_linear_295_2763" x1="25" y1="29" x2="0" y2="29" gradientUnits="userSpaceOnUse">
            <stop stop-color="#FF0000"/>
            <stop offset="1" stop-color="#2621FF"/>
        </linearGradient>
        <linearGradient id="paint2_linear_295_2763" x1="25" y1="1.21642e-05" x2="0" y2="1.21642e-05"
                        gradientUnits="userSpaceOnUse">
            <stop stop-color="#FF0000"/>
            <stop offset="1" stop-color="#2621FF"/>
        </linearGradient>
        <linearGradient id="paint3_linear_295_2763" x1="145" y1="54" x2="120" y2="54" gradientUnits="userSpaceOnUse">
            <stop stop-color="#FF0000"/>
            <stop offset="1" stop-color="#2621FF"/>
        </linearGradient>
        <linearGradient id="paint4_linear_295_2763" x1="145" y1="29" x2="120" y2="29" gradientUnits="userSpaceOnUse">
            <stop stop-color="#FF0000"/>
            <stop offset="1" stop-color="#2621FF"/>
        </linearGradient>
        <linearGradient id="paint5_linear_295_2763" x1="145" y1="1.21642e-05" x2="120" y2="1.21642e-05"
                        gradientUnits="userSpaceOnUse">
            <stop stop-color="#FF0000"/>
            <stop offset="1" stop-color="#2621FF"/>
        </linearGradient>
        <linearGradient id="paint6_linear_295_2763" x1="85" y1="54" x2="60" y2="54" gradientUnits="userSpaceOnUse">
            <stop stop-color="#FF0000"/>
            <stop offset="1" stop-color="#2621FF"/>
        </linearGradient>
        <linearGradient id="paint7_linear_295_2763" x1="85" y1="29" x2="60" y2="29" gradientUnits="userSpaceOnUse">
            <stop stop-color="#FF0000"/>
            <stop offset="1" stop-color="#2621FF"/>
        </linearGradient>
        <linearGradient id="paint8_linear_295_2763" x1="85" y1="1.21642e-05" x2="60" y2="1.21642e-05"
                        gradientUnits="userSpaceOnUse">
            <stop stop-color="#FF0000"/>
            <stop offset="1" stop-color="#2621FF"/>
        </linearGradient>
        <linearGradient id="paint9_linear_295_2763" x1="205" y1="54" x2="180" y2="54" gradientUnits="userSpaceOnUse">
            <stop stop-color="#FF0000"/>
            <stop offset="1" stop-color="#2621FF"/>
        </linearGradient>
        <linearGradient id="paint10_linear_295_2763" x1="205" y1="29" x2="180" y2="29" gradientUnits="userSpaceOnUse">
            <stop stop-color="#FF0000"/>
            <stop offset="1" stop-color="#2621FF"/>
        </linearGradient>
        <linearGradient id="paint11_linear_295_2763" x1="205" y1="1.21642e-05" x2="180" y2="1.21642e-05"
                        gradientUnits="userSpaceOnUse">
            <stop stop-color="#FF0000"/>
            <stop offset="1" stop-color="#2621FF"/>
        </linearGradient>
        <linearGradient id="paint12_linear_295_2763" x1="55" y1="54" x2="30" y2="54" gradientUnits="userSpaceOnUse">
            <stop stop-color="#FF0000"/>
            <stop offset="1" stop-color="#2621FF"/>
        </linearGradient>
        <linearGradient id="paint13_linear_295_2763" x1="55" y1="29" x2="30" y2="29" gradientUnits="userSpaceOnUse">
            <stop stop-color="#FF0000"/>
            <stop offset="1" stop-color="#2621FF"/>
        </linearGradient>
        <linearGradient id="paint14_linear_295_2763" x1="55" y1="1.21642e-05" x2="30" y2="1.21642e-05"
                        gradientUnits="userSpaceOnUse">
            <stop stop-color="#FF0000"/>
            <stop offset="1" stop-color="#2621FF"/>
        </linearGradient>
        <linearGradient id="paint15_linear_295_2763" x1="175" y1="54" x2="150" y2="54" gradientUnits="userSpaceOnUse">
            <stop stop-color="#FF0000"/>
            <stop offset="1" stop-color="#2621FF"/>
        </linearGradient>
        <linearGradient id="paint16_linear_295_2763" x1="175" y1="29" x2="150" y2="29" gradientUnits="userSpaceOnUse">
            <stop stop-color="#FF0000"/>
            <stop offset="1" stop-color="#2621FF"/>
        </linearGradient>
        <linearGradient id="paint17_linear_295_2763" x1="175" y1="1.21642e-05" x2="150" y2="1.21642e-05"
                        gradientUnits="userSpaceOnUse">
            <stop stop-color="#FF0000"/>
            <stop offset="1" stop-color="#2621FF"/>
        </linearGradient>
        <linearGradient id="paint18_linear_295_2763" x1="115" y1="54" x2="90" y2="54" gradientUnits="userSpaceOnUse">
            <stop stop-color="#FF0000"/>
            <stop offset="1" stop-color="#2621FF"/>
        </linearGradient>
        <linearGradient id="paint19_linear_295_2763" x1="115" y1="29" x2="90" y2="29" gradientUnits="userSpaceOnUse">
            <stop stop-color="#FF0000"/>
            <stop offset="1" stop-color="#2621FF"/>
        </linearGradient>
        <linearGradient id="paint20_linear_295_2763" x1="115" y1="1.21642e-05" x2="90" y2="1.21642e-05"
                        gradientUnits="userSpaceOnUse">
            <stop stop-color="#FF0000"/>
            <stop offset="1" stop-color="#2621FF"/>
        </linearGradient>
    </defs>
</svg>
